<svg xmlns="http://www.w3.org/2000/svg" viewBox="0 0 1921.89 1080"><title>filtro</title><g id="Layer_2" data-name="Layer 2"><g id="Layer_1-2" data-name="Layer 1"><rect width="2.83" height="1080"/><rect x="5.67" width="2.83" height="1080"/><rect x="8.5" width="2.83" height="1080"/><rect x="11.34" width="2.83" height="1080"/><rect x="14.17" width="2.83" height="1080"/><rect x="17.01" width="2.83" height="1080"/><rect x="22.68" width="2.83" height="1080"/><rect x="25.51" width="2.83" height="1080"/><rect x="28.35" width="2.83" height="1080"/><rect x="31.18" width="2.83" height="1080"/><rect x="34.02" width="2.83" height="1080"/><rect x="39.69" width="2.83" height="1080"/><rect x="42.52" width="2.83" height="1080"/><rect x="45.35" width="2.83" height="1080"/><rect x="48.19" width="2.83" height="1080"/><rect x="51.02" width="2.83" height="1080"/><rect x="56.69" width="2.83" height="1080"/><rect x="59.53" width="2.83" height="1080"/><rect x="62.36" width="2.83" height="1080"/><rect x="65.2" width="2.83" height="1080"/><rect x="68.03" width="2.83" height="1080"/><rect x="73.7" width="2.83" height="1080"/><rect x="76.54" width="2.83" height="1080"/><rect x="79.37" width="2.83" height="1080"/><rect x="82.2" width="2.83" height="1080"/><rect x="85.04" width="2.83" height="1080"/><rect x="90.71" width="2.83" height="1080"/><rect x="93.54" width="2.83" height="1080"/><rect x="96.38" width="2.83" height="1080"/><rect x="99.21" width="2.83" height="1080"/><rect x="102.05" width="2.83" height="1080"/><rect x="107.72" width="2.83" height="1080"/><rect x="110.55" width="2.83" height="1080"/><rect x="113.39" width="2.83" height="1080"/><rect x="116.22" width="2.83" height="1080"/><rect x="119.06" width="2.83" height="1080"/><rect x="124.72" width="2.83" height="1080"/><rect x="127.56" width="2.83" height="1080"/><rect x="130.39" width="2.83" height="1080"/><rect x="133.23" width="2.83" height="1080"/><rect x="136.06" width="2.83" height="1080"/><rect x="141.73" width="2.83" height="1080"/><rect x="144.57" width="2.83" height="1080"/><rect x="147.4" width="2.83" height="1080"/><rect x="150.24" width="2.83" height="1080"/><rect x="153.07" width="2.83" height="1080"/><rect x="158.74" width="2.83" height="1080"/><rect x="161.57" width="2.83" height="1080"/><rect x="164.41" width="2.83" height="1080"/><rect x="167.24" width="2.83" height="1080"/><rect x="170.08" width="2.83" height="1080"/><rect x="175.75" width="2.83" height="1080"/><rect x="178.58" width="2.83" height="1080"/><rect x="181.42" width="2.83" height="1080"/><rect x="184.25" width="2.83" height="1080"/><rect x="187.09" width="2.83" height="1080"/><rect x="192.76" width="2.83" height="1080"/><rect x="195.59" width="2.83" height="1080"/><rect x="198.43" width="2.83" height="1080"/><rect x="201.26" width="2.83" height="1080"/><rect x="204.09" width="2.83" height="1080"/><rect x="209.76" width="2.83" height="1080"/><rect x="212.6" width="2.83" height="1080"/><rect x="215.43" width="2.83" height="1080"/><rect x="218.27" width="2.83" height="1080"/><rect x="221.1" width="2.83" height="1080"/><rect x="226.77" width="2.83" height="1080"/><rect x="229.61" width="2.83" height="1080"/><rect x="232.44" width="2.83" height="1080"/><rect x="235.28" width="2.83" height="1080"/><rect x="238.11" width="2.83" height="1080"/><rect x="243.78" width="2.83" height="1080"/><rect x="246.61" width="2.83" height="1080"/><rect x="249.45" width="2.83" height="1080"/><rect x="252.28" width="2.83" height="1080"/><rect x="255.12" width="2.83" height="1080"/><rect x="260.79" width="2.83" height="1080"/><rect x="263.62" width="2.83" height="1080"/><rect x="266.46" width="2.83" height="1080"/><rect x="269.29" width="2.83" height="1080"/><rect x="272.13" width="2.83" height="1080"/><rect x="277.8" width="2.83" height="1080"/><rect x="280.63" width="2.83" height="1080"/><rect x="283.46" width="2.83" height="1080"/><rect x="286.3" width="2.83" height="1080"/><rect x="289.13" width="2.83" height="1080"/><rect x="294.8" width="2.83" height="1080"/><rect x="297.64" width="2.83" height="1080"/><rect x="300.47" width="2.83" height="1080"/><rect x="303.31" width="2.83" height="1080"/><rect x="306.14" width="2.83" height="1080"/><rect x="311.81" width="2.83" height="1080"/><rect x="314.65" width="2.83" height="1080"/><rect x="317.48" width="2.83" height="1080"/><rect x="320.31" width="2.83" height="1080"/><rect x="323.15" width="2.83" height="1080"/><rect x="328.82" width="2.83" height="1080"/><rect x="331.65" width="2.83" height="1080"/><rect x="334.49" width="2.83" height="1080"/><rect x="337.32" width="2.83" height="1080"/><rect x="340.16" width="2.83" height="1080"/><rect x="345.83" width="2.83" height="1080"/><rect x="348.66" width="2.83" height="1080"/><rect x="351.5" width="2.83" height="1080"/><rect x="354.33" width="2.83" height="1080"/><rect x="357.17" width="2.83" height="1080"/><rect x="362.83" width="2.83" height="1080"/><rect x="365.67" width="2.83" height="1080"/><rect x="368.5" width="2.83" height="1080"/><rect x="371.34" width="2.83" height="1080"/><rect x="374.17" width="2.83" height="1080"/><rect x="379.84" width="2.83" height="1080"/><rect x="382.68" width="2.83" height="1080"/><rect x="385.51" width="2.83" height="1080"/><rect x="388.35" width="2.83" height="1080"/><rect x="391.18" width="2.83" height="1080"/><rect x="396.85" width="2.83" height="1080"/><rect x="399.69" width="2.83" height="1080"/><rect x="402.52" width="2.83" height="1080"/><rect x="405.35" width="2.83" height="1080"/><rect x="408.19" width="2.83" height="1080"/><rect x="413.86" width="2.83" height="1080"/><rect x="416.69" width="2.83" height="1080"/><rect x="419.53" width="2.83" height="1080"/><rect x="422.36" width="2.83" height="1080"/><rect x="425.2" width="2.83" height="1080"/><rect x="430.87" width="2.83" height="1080"/><rect x="433.7" width="2.83" height="1080"/><rect x="436.54" width="2.83" height="1080"/><rect x="439.37" width="2.83" height="1080"/><rect x="442.2" width="2.83" height="1080"/><rect x="447.87" width="2.83" height="1080"/><rect x="450.71" width="2.83" height="1080"/><rect x="453.54" width="2.83" height="1080"/><rect x="456.38" width="2.83" height="1080"/><rect x="459.21" width="2.83" height="1080"/><rect x="464.88" width="2.83" height="1080"/><rect x="467.72" width="2.83" height="1080"/><rect x="470.55" width="2.83" height="1080"/><rect x="473.39" width="2.83" height="1080"/><rect x="476.22" width="2.83" height="1080"/><rect x="481.89" width="2.83" height="1080"/><rect x="484.72" width="2.83" height="1080"/><rect x="487.56" width="2.83" height="1080"/><rect x="490.39" width="2.83" height="1080"/><rect x="493.23" width="2.83" height="1080"/><rect x="498.9" width="2.83" height="1080"/><rect x="501.73" width="2.83" height="1080"/><rect x="504.57" width="2.83" height="1080"/><rect x="507.4" width="2.83" height="1080"/><rect x="510.24" width="2.83" height="1080"/><rect x="515.91" width="2.83" height="1080"/><rect x="518.74" width="2.83" height="1080"/><rect x="521.57" width="2.83" height="1080"/><rect x="524.41" width="2.83" height="1080"/><rect x="527.24" width="2.83" height="1080"/><rect x="532.91" width="2.83" height="1080"/><rect x="535.75" width="2.83" height="1080"/><rect x="538.58" width="2.83" height="1080"/><rect x="541.42" width="2.83" height="1080"/><rect x="544.25" width="2.83" height="1080"/><rect x="549.92" width="2.83" height="1080"/><rect x="552.76" width="2.83" height="1080"/><rect x="555.59" width="2.83" height="1080"/><rect x="558.43" width="2.83" height="1080"/><rect x="561.26" width="2.83" height="1080"/><rect x="566.93" width="2.83" height="1080"/><rect x="569.76" width="2.83" height="1080"/><rect x="572.6" width="2.83" height="1080"/><rect x="575.43" width="2.83" height="1080"/><rect x="578.27" width="2.83" height="1080"/><rect x="583.94" width="2.83" height="1080"/><rect x="586.77" width="2.83" height="1080"/><rect x="589.61" width="2.83" height="1080"/><rect x="592.44" width="2.83" height="1080"/><rect x="595.28" width="2.83" height="1080"/><rect x="600.94" width="2.83" height="1080"/><rect x="603.78" width="2.83" height="1080"/><rect x="606.61" width="2.83" height="1080"/><rect x="609.45" width="2.83" height="1080"/><rect x="612.28" width="2.83" height="1080"/><rect x="617.95" width="2.83" height="1080"/><rect x="620.79" width="2.83" height="1080"/><rect x="623.62" width="2.83" height="1080"/><rect x="626.46" width="2.83" height="1080"/><rect x="629.29" width="2.83" height="1080"/><rect x="634.96" width="2.83" height="1080"/><rect x="637.8" width="2.83" height="1080"/><rect x="640.63" width="2.83" height="1080"/><rect x="643.46" width="2.83" height="1080"/><rect x="646.3" width="2.83" height="1080"/><rect x="651.97" width="2.83" height="1080"/><rect x="654.8" width="2.83" height="1080"/><rect x="657.64" width="2.83" height="1080"/><rect x="660.47" width="2.83" height="1080"/><rect x="663.31" width="2.83" height="1080"/><rect x="668.98" width="2.83" height="1080"/><rect x="671.81" width="2.83" height="1080"/><rect x="674.65" width="2.83" height="1080"/><rect x="677.48" width="2.83" height="1080"/><rect x="680.31" width="2.83" height="1080"/><rect x="685.98" width="2.83" height="1080"/><rect x="688.82" width="2.83" height="1080"/><rect x="691.65" width="2.83" height="1080"/><rect x="694.49" width="2.83" height="1080"/><rect x="697.32" width="2.83" height="1080"/><rect x="702.99" width="2.83" height="1080"/><rect x="705.83" width="2.83" height="1080"/><rect x="708.66" width="2.83" height="1080"/><rect x="711.5" width="2.83" height="1080"/><rect x="714.33" width="2.83" height="1080"/><rect x="720" width="2.83" height="1080"/><rect x="722.83" width="2.83" height="1080"/><rect x="725.67" width="2.83" height="1080"/><rect x="728.5" width="2.83" height="1080"/><rect x="731.34" width="2.83" height="1080"/><rect x="737.01" width="2.83" height="1080"/><rect x="739.84" width="2.83" height="1080"/><rect x="742.68" width="2.83" height="1080"/><rect x="745.51" width="2.83" height="1080"/><rect x="748.35" width="2.83" height="1080"/><rect x="754.02" width="2.83" height="1080"/><rect x="756.85" width="2.83" height="1080"/><rect x="759.69" width="2.83" height="1080"/><rect x="762.52" width="2.83" height="1080"/><rect x="765.35" width="2.83" height="1080"/><rect x="771.02" width="2.83" height="1080"/><rect x="773.86" width="2.83" height="1080"/><rect x="776.69" width="2.83" height="1080"/><rect x="779.53" width="2.83" height="1080"/><rect x="782.36" width="2.83" height="1080"/><rect x="788.03" width="2.83" height="1080"/><rect x="790.87" width="2.83" height="1080"/><rect x="793.7" width="2.83" height="1080"/><rect x="796.54" width="2.83" height="1080"/><rect x="799.37" width="2.83" height="1080"/><rect x="805.04" width="2.83" height="1080"/><rect x="807.87" width="2.83" height="1080"/><rect x="810.71" width="2.83" height="1080"/><rect x="813.54" width="2.83" height="1080"/><rect x="816.38" width="2.83" height="1080"/><rect x="822.05" width="2.83" height="1080"/><rect x="824.88" width="2.83" height="1080"/><rect x="827.72" width="2.83" height="1080"/><rect x="830.55" width="2.83" height="1080"/><rect x="833.39" width="2.83" height="1080"/><rect x="839.06" width="2.83" height="1080"/><rect x="841.89" width="2.83" height="1080"/><rect x="844.72" width="2.83" height="1080"/><rect x="847.56" width="2.83" height="1080"/><rect x="850.39" width="2.83" height="1080"/><rect x="856.06" width="2.83" height="1080"/><rect x="858.9" width="2.83" height="1080"/><rect x="861.73" width="2.83" height="1080"/><rect x="864.57" width="2.83" height="1080"/><rect x="867.4" width="2.83" height="1080"/><rect x="873.07" width="2.83" height="1080"/><rect x="875.91" width="2.83" height="1080"/><rect x="878.74" width="2.83" height="1080"/><rect x="881.57" width="2.83" height="1080"/><rect x="884.41" width="2.83" height="1080"/><rect x="890.08" width="2.83" height="1080"/><rect x="892.91" width="2.83" height="1080"/><rect x="895.75" width="2.83" height="1080"/><rect x="898.58" width="2.83" height="1080"/><rect x="901.42" width="2.83" height="1080"/><rect x="907.09" width="2.83" height="1080"/><rect x="909.92" width="2.83" height="1080"/><rect x="912.76" width="2.83" height="1080"/><rect x="915.59" width="2.83" height="1080"/><rect x="918.43" width="2.83" height="1080"/><rect x="924.09" width="2.83" height="1080"/><rect x="926.93" width="2.83" height="1080"/><rect x="929.76" width="2.83" height="1080"/><rect x="932.6" width="2.83" height="1080"/><rect x="935.43" width="2.83" height="1080"/><rect x="941.1" width="2.83" height="1080"/><rect x="943.94" width="2.83" height="1080"/><rect x="946.77" width="2.83" height="1080"/><rect x="949.61" width="2.83" height="1080"/><rect x="952.44" width="2.83" height="1080"/><rect x="958.11" width="2.83" height="1080"/><rect x="960.94" width="2.83" height="1080"/><rect x="963.78" width="2.83" height="1080"/><rect x="966.61" width="2.83" height="1080"/><rect x="969.45" width="2.83" height="1080"/><rect x="975.12" width="2.83" height="1080"/><rect x="977.95" width="2.83" height="1080"/><rect x="980.79" width="2.83" height="1080"/><rect x="983.62" width="2.83" height="1080"/><rect x="986.46" width="2.83" height="1080"/><rect x="992.13" width="2.83" height="1080"/><rect x="994.96" width="2.83" height="1080"/><rect x="997.8" width="2.83" height="1080"/><rect x="1000.63" width="2.83" height="1080"/><rect x="1003.46" width="2.83" height="1080"/><rect x="1009.13" width="2.83" height="1080"/><rect x="1011.97" width="2.83" height="1080"/><rect x="1014.8" width="2.83" height="1080"/><rect x="1017.64" width="2.83" height="1080"/><rect x="1020.47" width="2.83" height="1080"/><rect x="1026.14" width="2.83" height="1080"/><rect x="1028.98" width="2.83" height="1080"/><rect x="1031.81" width="2.83" height="1080"/><rect x="1034.65" width="2.83" height="1080"/><rect x="1037.48" width="2.83" height="1080"/><rect x="1043.15" width="2.83" height="1080"/><rect x="1045.98" width="2.83" height="1080"/><rect x="1048.82" width="2.83" height="1080"/><rect x="1051.65" width="2.83" height="1080"/><rect x="1054.49" width="2.83" height="1080"/><rect x="1060.16" width="2.83" height="1080"/><rect x="1062.99" width="2.83" height="1080"/><rect x="1065.83" width="2.83" height="1080"/><rect x="1068.66" width="2.83" height="1080"/><rect x="1071.5" width="2.83" height="1080"/><rect x="1077.17" width="2.83" height="1080"/><rect x="1080" width="2.83" height="1080"/><rect x="1082.83" width="2.83" height="1080"/><rect x="1085.67" width="2.83" height="1080"/><rect x="1088.5" width="2.83" height="1080"/><rect x="1094.17" width="2.83" height="1080"/><rect x="1097.01" width="2.83" height="1080"/><rect x="1099.84" width="2.83" height="1080"/><rect x="1102.68" width="2.83" height="1080"/><rect x="1105.51" width="2.83" height="1080"/><rect x="1111.18" width="2.83" height="1080"/><rect x="1114.02" width="2.83" height="1080"/><rect x="1116.85" width="2.83" height="1080"/><rect x="1119.69" width="2.83" height="1080"/><rect x="1122.52" width="2.83" height="1080"/><rect x="1128.19" width="2.83" height="1080"/><rect x="1131.02" width="2.83" height="1080"/><rect x="1133.86" width="2.83" height="1080"/><rect x="1136.69" width="2.83" height="1080"/><rect x="1139.53" width="2.83" height="1080"/><rect x="1145.2" width="2.83" height="1080"/><rect x="1148.03" width="2.83" height="1080"/><rect x="1150.87" width="2.83" height="1080"/><rect x="1153.7" width="2.83" height="1080"/><rect x="1156.54" width="2.83" height="1080"/><rect x="1162.2" width="2.83" height="1080"/><rect x="1165.04" width="2.83" height="1080"/><rect x="1167.87" width="2.83" height="1080"/><rect x="1170.71" width="2.83" height="1080"/><rect x="1173.54" width="2.83" height="1080"/><rect x="1179.21" width="2.83" height="1080"/><rect x="1182.05" width="2.83" height="1080"/><rect x="1184.88" width="2.83" height="1080"/><rect x="1187.72" width="2.83" height="1080"/><rect x="1190.55" width="2.83" height="1080"/><rect x="1196.22" width="2.83" height="1080"/><rect x="1199.06" width="2.83" height="1080"/><rect x="1201.89" width="2.83" height="1080"/><rect x="1204.72" width="2.83" height="1080"/><rect x="1207.56" width="2.83" height="1080"/><rect x="1213.23" width="2.83" height="1080"/><rect x="1216.06" width="2.83" height="1080"/><rect x="1218.9" width="2.83" height="1080"/><rect x="1221.73" width="2.83" height="1080"/><rect x="1224.57" width="2.83" height="1080"/><rect x="1230.24" width="2.83" height="1080"/><rect x="1233.07" width="2.83" height="1080"/><rect x="1235.91" width="2.83" height="1080"/><rect x="1238.74" width="2.83" height="1080"/><rect x="1241.57" width="2.83" height="1080"/><rect x="1247.24" width="2.83" height="1080"/><rect x="1250.08" width="2.83" height="1080"/><rect x="1252.91" width="2.83" height="1080"/><rect x="1255.75" width="2.83" height="1080"/><rect x="1258.58" width="2.83" height="1080"/><rect x="1264.25" width="2.83" height="1080"/><rect x="1267.09" width="2.83" height="1080"/><rect x="1269.92" width="2.83" height="1080"/><rect x="1272.76" width="2.83" height="1080"/><rect x="1275.59" width="2.83" height="1080"/><rect x="1281.26" width="2.83" height="1080"/><rect x="1284.09" width="2.83" height="1080"/><rect x="1286.93" width="2.83" height="1080"/><rect x="1289.76" width="2.83" height="1080"/><rect x="1292.6" width="2.83" height="1080"/><rect x="1298.27" width="2.83" height="1080"/><rect x="1301.1" width="2.83" height="1080"/><rect x="1303.94" width="2.83" height="1080"/><rect x="1306.77" width="2.83" height="1080"/><rect x="1309.61" width="2.83" height="1080"/><rect x="1315.28" width="2.83" height="1080"/><rect x="1318.11" width="2.83" height="1080"/><rect x="1320.94" width="2.83" height="1080"/><rect x="1323.78" width="2.83" height="1080"/><rect x="1326.61" width="2.83" height="1080"/><rect x="1332.28" width="2.83" height="1080"/><rect x="1335.12" width="2.83" height="1080"/><rect x="1337.95" width="2.83" height="1080"/><rect x="1340.79" width="2.83" height="1080"/><rect x="1343.62" width="2.83" height="1080"/><rect x="1349.29" width="2.83" height="1080"/><rect x="1352.13" width="2.83" height="1080"/><rect x="1354.96" width="2.83" height="1080"/><rect x="1357.8" width="2.83" height="1080"/><rect x="1360.63" width="2.83" height="1080"/><rect x="1366.3" width="2.83" height="1080"/><rect x="1369.13" width="2.83" height="1080"/><rect x="1371.97" width="2.83" height="1080"/><rect x="1374.8" width="2.83" height="1080"/><rect x="1377.64" width="2.83" height="1080"/><rect x="1383.31" width="2.83" height="1080"/><rect x="1386.14" width="2.83" height="1080"/><rect x="1388.98" width="2.83" height="1080"/><rect x="1391.81" width="2.83" height="1080"/><rect x="1394.65" width="2.83" height="1080"/><rect x="1400.31" width="2.83" height="1080"/><rect x="1403.15" width="2.83" height="1080"/><rect x="1405.98" width="2.83" height="1080"/><rect x="1408.82" width="2.83" height="1080"/><rect x="1411.65" width="2.83" height="1080"/><rect x="1417.32" width="2.83" height="1080"/><rect x="1420.16" width="2.83" height="1080"/><rect x="1422.99" width="2.83" height="1080"/><rect x="1425.83" width="2.83" height="1080"/><rect x="1428.66" width="2.83" height="1080"/><rect x="1434.33" width="2.83" height="1080"/><rect x="1437.17" width="2.83" height="1080"/><rect x="1440" width="2.83" height="1080"/><rect x="1442.83" width="2.83" height="1080"/><rect x="1445.67" width="2.83" height="1080"/><rect x="1451.34" width="2.83" height="1080"/><rect x="1454.17" width="2.83" height="1080"/><rect x="1457.01" width="2.83" height="1080"/><rect x="1459.84" width="2.83" height="1080"/><rect x="1462.68" width="2.83" height="1080"/><rect x="1468.35" width="2.83" height="1080"/><rect x="1471.18" width="2.83" height="1080"/><rect x="1474.02" width="2.83" height="1080"/><rect x="1476.85" width="2.83" height="1080"/><rect x="1479.69" width="2.83" height="1080"/><rect x="1485.35" width="2.83" height="1080"/><rect x="1488.19" width="2.83" height="1080"/><rect x="1491.02" width="2.83" height="1080"/><rect x="1493.86" width="2.83" height="1080"/><rect x="1496.69" width="2.83" height="1080"/><rect x="1502.36" width="2.83" height="1080"/><rect x="1505.2" width="2.83" height="1080"/><rect x="1508.03" width="2.83" height="1080"/><rect x="1510.87" width="2.83" height="1080"/><rect x="1513.7" width="2.83" height="1080"/><rect x="1519.37" width="2.83" height="1080"/><rect x="1522.2" width="2.83" height="1080"/><rect x="1525.04" width="2.83" height="1080"/><rect x="1527.87" width="2.83" height="1080"/><rect x="1530.71" width="2.83" height="1080"/><rect x="1536.38" width="2.83" height="1080"/><rect x="1539.21" width="2.83" height="1080"/><rect x="1542.05" width="2.83" height="1080"/><rect x="1544.88" width="2.83" height="1080"/><rect x="1547.72" width="2.83" height="1080"/><rect x="1553.39" width="2.83" height="1080"/><rect x="1556.22" width="2.83" height="1080"/><rect x="1559.06" width="2.83" height="1080"/><rect x="1561.89" width="2.83" height="1080"/><rect x="1564.72" width="2.83" height="1080"/><rect x="1570.39" width="2.83" height="1080"/><rect x="1573.23" width="2.83" height="1080"/><rect x="1576.06" width="2.83" height="1080"/><rect x="1578.9" width="2.83" height="1080"/><rect x="1581.73" width="2.83" height="1080"/><rect x="1587.4" width="2.83" height="1080"/><rect x="1590.24" width="2.83" height="1080"/><rect x="1593.07" width="2.83" height="1080"/><rect x="1595.91" width="2.83" height="1080"/><rect x="1598.74" width="2.83" height="1080"/><rect x="1604.41" width="2.83" height="1080"/><rect x="1607.24" width="2.83" height="1080"/><rect x="1610.08" width="2.83" height="1080"/><rect x="1612.91" width="2.83" height="1080"/><rect x="1615.75" width="2.83" height="1080"/><rect x="1621.42" width="2.83" height="1080"/><rect x="1624.25" width="2.83" height="1080"/><rect x="1627.09" width="2.83" height="1080"/><rect x="1629.92" width="2.83" height="1080"/><rect x="1632.76" width="2.83" height="1080"/><rect x="1638.43" width="2.83" height="1080"/><rect x="1641.26" width="2.83" height="1080"/><rect x="1644.09" width="2.83" height="1080"/><rect x="1646.93" width="2.83" height="1080"/><rect x="1649.76" width="2.83" height="1080"/><rect x="1655.43" width="2.83" height="1080"/><rect x="1658.27" width="2.83" height="1080"/><rect x="1661.1" width="2.83" height="1080"/><rect x="1663.94" width="2.83" height="1080"/><rect x="1666.77" width="2.83" height="1080"/><rect x="1672.44" width="2.83" height="1080"/><rect x="1675.28" width="2.83" height="1080"/><rect x="1678.11" width="2.83" height="1080"/><rect x="1680.94" width="2.83" height="1080"/><rect x="1683.78" width="2.83" height="1080"/><rect x="1689.45" width="2.83" height="1080"/><rect x="1692.28" width="2.83" height="1080"/><rect x="1695.12" width="2.83" height="1080"/><rect x="1697.95" width="2.83" height="1080"/><rect x="1700.79" width="2.83" height="1080"/><rect x="1706.46" width="2.83" height="1080"/><rect x="1709.29" width="2.83" height="1080"/><rect x="1712.13" width="2.83" height="1080"/><rect x="1714.96" width="2.83" height="1080"/><rect x="1717.8" width="2.83" height="1080"/><rect x="1723.46" width="2.83" height="1080"/><rect x="1726.3" width="2.83" height="1080"/><rect x="1729.13" width="2.83" height="1080"/><rect x="1731.97" width="2.83" height="1080"/><rect x="1734.8" width="2.83" height="1080"/><rect x="1740.47" width="2.83" height="1080"/><rect x="1743.31" width="2.83" height="1080"/><rect x="1746.14" width="2.83" height="1080"/><rect x="1748.98" width="2.83" height="1080"/><rect x="1751.81" width="2.83" height="1080"/><rect x="1757.48" width="2.83" height="1080"/><rect x="1760.31" width="2.83" height="1080"/><rect x="1763.15" width="2.83" height="1080"/><rect x="1765.98" width="2.83" height="1080"/><rect x="1768.82" width="2.83" height="1080"/><rect x="1774.49" width="2.83" height="1080"/><rect x="1777.32" width="2.83" height="1080"/><rect x="1780.16" width="2.83" height="1080"/><rect x="1782.99" width="2.83" height="1080"/><rect x="1785.83" width="2.83" height="1080"/><rect x="1791.5" width="2.83" height="1080"/><rect x="1794.33" width="2.83" height="1080"/><rect x="1797.17" width="2.83" height="1080"/><rect x="1800" width="2.83" height="1080"/><rect x="1802.83" width="2.83" height="1080"/><rect x="1808.5" width="2.83" height="1080"/><rect x="1811.34" width="2.83" height="1080"/><rect x="1814.17" width="2.83" height="1080"/><rect x="1817.01" width="2.83" height="1080"/><rect x="1819.84" width="2.83" height="1080"/><rect x="1825.51" width="2.83" height="1080"/><rect x="1828.35" width="2.83" height="1080"/><rect x="1831.18" width="2.83" height="1080"/><rect x="1834.02" width="2.83" height="1080"/><rect x="1836.85" width="2.83" height="1080"/><rect x="1842.52" width="2.83" height="1080"/><rect x="1845.35" width="2.83" height="1080"/><rect x="1848.19" width="2.83" height="1080"/><rect x="1851.02" width="2.83" height="1080"/><rect x="1853.86" width="2.83" height="1080"/><rect x="1859.53" width="2.83" height="1080"/><rect x="1862.36" width="2.83" height="1080"/><rect x="1865.2" width="2.83" height="1080"/><rect x="1868.03" width="2.83" height="1080"/><rect x="1870.87" width="2.83" height="1080"/><rect x="1876.54" width="2.83" height="1080"/><rect x="1879.37" width="2.83" height="1080"/><rect x="1882.2" width="2.83" height="1080"/><rect x="1885.04" width="2.83" height="1080"/><rect x="1887.87" width="2.83" height="1080"/><rect x="1893.54" width="2.83" height="1080"/><rect x="1896.38" width="2.83" height="1080"/><rect x="1899.21" width="2.83" height="1080"/><rect x="1902.05" width="2.83" height="1080"/><rect x="1904.88" width="2.83" height="1080"/><rect x="1910.55" width="2.83" height="1080"/><rect x="1913.39" width="2.83" height="1080"/><rect x="1916.22" width="2.83" height="1080"/><rect x="1919.06" width="2.83" height="1080"/></g></g></svg>