<svg xmlns="http://www.w3.org/2000/svg" viewBox="0 0 1920 1080"><defs><style>.cls-1{fill:#fff;}</style></defs><title>fundo</title><g id="Layer_2" data-name="Layer 2"><g id="Layer_1-2" data-name="Layer 1"><rect class="cls-1" width="1920" height="1080"/><rect class="cls-1" x="5" y="385" width="1910" height="310"/><rect x="221.1" y="542.21" width="2.83" height="2.22"/><polygon points="240.63 542.21 240.63 488.37 240.94 488.37 240.94 486.15 238.11 486.15 238.11 544.43 240.94 544.43 240.94 542.21 240.63 542.21"/><path d="M255.12,486.15v7.23a24.39,24.39,0,0,1,2.83,6.14V486.15Z"/><path d="M223.94,488.47v-2.32H221.1v3A11.8,11.8,0,0,1,223.94,488.47Z"/><path d="M274.27,486.15h-2.14v2.22h2.4v53.84h-2.4v2.22H275V486.15Z"/><path d="M289.13,511.3v1.95a7.46,7.46,0,0,1,2.84-1.18v-1.93A11.7,11.7,0,0,0,289.13,511.3Z"/><path d="M306.21,542.21V525.74c0-1.25,0-2.4-.07-3.46v22.15H309v-2.22Z"/><path d="M323.15,510.26v34.17H326V510.17C325.06,510.22,324.11,510.26,323.15,510.26Z"/><path d="M323.77,496.26a4.59,4.59,0,0,0,2.21,1.22v-9.14a4.66,4.66,0,0,0-2.19,1.24,5.56,5.56,0,0,0-.64.77v5.16A4.84,4.84,0,0,0,323.77,496.26Z"/><rect x="357.17" y="542.21" width="2.83" height="2.22"/><rect x="340.16" y="542.21" width="2.83" height="2.22"/><path d="M357.71,517.05a13.58,13.58,0,0,1,2.29-3.16v-2.61a11.32,11.32,0,0,0-2.83,3.4v3.46A8.51,8.51,0,0,1,357.71,517.05Z"/><rect x="340.16" y="510.27" width="2.83" height="2.22"/><rect x="376.22" y="510.27" width="0.79" height="2.22"/><path d="M393.06,540.47a22,22,0,0,1-.63-6.47V512.49H394v-2.22h-1.59v-9.91c-.41.08-.83.13-1.25.2v44.3q.9.09,1.95.09l.89,0v-3.28A2.24,2.24,0,0,1,393.06,540.47Z"/><path d="M442.54,532.87h-.34v1.3C442.32,533.74,442.44,533.32,442.54,532.87Z"/><path d="M427.24,511.14c.28,0,.53,0,.79.06v-2l-.36,0a16.68,16.68,0,0,0-2.47.21v2A9.2,9.2,0,0,1,427.24,511.14Z"/><path d="M425.2,543.13v2.12a17.52,17.52,0,0,0,2.83.26v-2A9.36,9.36,0,0,1,425.2,543.13Z"/><path d="M410.86,527.26a21.83,21.83,0,0,0,.16,2.59v-5.14A21.29,21.29,0,0,0,410.86,527.26Z"/><path d="M442.54,524.74a22.82,22.82,0,0,0-.34-3v3Z"/><rect x="425.2" y="522.79" width="2.83" height="1.96"/><path d="M460.31,512.81a5.73,5.73,0,0,1,1.74-1.08v-2.12a14.39,14.39,0,0,0-2.84,1v3.76A5.47,5.47,0,0,1,460.31,512.81Z"/><path d="M478.65,532.87a20.46,20.46,0,0,1-2.43,5.34v3.21a14.42,14.42,0,0,0,2.84-4.12v-4.43Z"/><path d="M460,540.58a7.92,7.92,0,0,1-.75-2.14V544a15.93,15.93,0,0,0,2.84,1v-2.38A5.46,5.46,0,0,1,460,540.58Z"/><rect x="459.21" y="522.79" width="2.83" height="1.96"/><path d="M479.06,524.74v-6.81a13.93,13.93,0,0,0-2.84-4.22v11Z"/><path d="M511.63,511.66a5.18,5.18,0,0,1,1.44.19V509.2a13.6,13.6,0,0,0-2.83.38v2.22A8,8,0,0,1,511.63,511.66Z"/><path d="M493.23,510.22v34.21h2.83V510.07C495.14,510.14,494.2,510.18,493.23,510.22Z"/><rect x="527.24" y="542.21" width="2.83" height="2.22"/><rect x="510.24" y="542.21" width="2.83" height="2.22"/><rect x="578.27" y="486.15" width="2.83" height="2.22"/><polygon points="578.27 502.91 578.27 528.63 581.1 535.6 581.1 509.86 578.27 502.91"/><polygon points="595.85 488.37 598.11 488.37 598.11 486.15 595.28 486.15 595.28 512.89 596.46 515.79 595.28 518.77 595.28 524.86 597.72 518.79 598.11 519.73 598.11 493.87 595.85 488.37"/><rect x="612.28" y="486.15" width="2.83" height="2.22"/><polygon points="561.26 486.15 561.26 488.37 561.87 488.37 564.09 493.83 564.09 486.15 561.26 486.15"/><polygon points="613.45 531.35 612.28 528.51 612.28 540.66 615.12 533.09 615.12 526.86 613.45 531.35"/><polygon points="629.29 486.15 629.29 488.37 629.4 488.37 629.29 488.66 629.29 495.27 631.88 488.37 632.13 488.37 632.13 486.15 629.29 486.15"/><path d="M666,540.43c-.33-.58-.5-2-.5-4.39v-16a19.65,19.65,0,0,0-.63-5.65,4.83,4.83,0,0,0-1.53-2.19v33.24c.29,0,.58.06.9.06a9.69,9.69,0,0,0,1.93-.2v-4.65A1.37,1.37,0,0,1,666,540.43Z"/><path d="M649.13,511.75V509.9a25.35,25.35,0,0,0-2.83.46v1.89A12.59,12.59,0,0,1,649.13,511.75Z"/><path d="M649.13,528v-2.25c-1,.18-1.94.38-2.83.61v3.06l.09-.08A8,8,0,0,1,649.13,528Z"/><path d="M648.91,541.56a4.55,4.55,0,0,1-2.61-.83v4.71a12.33,12.33,0,0,0,2.83-.62v-3.28Z"/><polygon points="697.32 530.65 697.32 547.64 700.16 541.22 700.16 536.19 697.32 530.65"/><path d="M681.33,558.68a3.81,3.81,0,0,0-1,.15V567a5.22,5.22,0,0,0,2.19.44c.22,0,.44,0,.65,0v-8.29A3.75,3.75,0,0,0,681.33,558.68Z"/><polygon points="683.15 520.82 683.15 510.27 680.32 510.27 680.32 515.32 683.15 520.82"/><rect x="714.33" y="510.27" width="2.83" height="2.22"/><path d="M748.35,527.56v12.27a11.9,11.9,0,0,0,1.6-6.18A11.19,11.19,0,0,0,748.35,527.56Z"/><path d="M734.17,511.24v-2a11.91,11.91,0,0,0-2.83.65v2.18A8.59,8.59,0,0,1,734.17,511.24Z"/><path d="M731.34,520.75v8.49a20.51,20.51,0,0,0,2.83.86v-8.7A25.41,25.41,0,0,1,731.34,520.75Z"/><path d="M731.34,541.09v2.34a14.7,14.7,0,0,0,2.83,1.37v-2A10.78,10.78,0,0,1,731.34,541.09Z"/><path d="M802.2,512.61v-2.77a17.26,17.26,0,0,0-2.83-.52v2.07A6.7,6.7,0,0,1,802.2,512.61Z"/><path d="M784.33,514.46a19,19,0,0,0-2,2.38v20.94a19.58,19.58,0,0,0,2,2.45c.26.26.52.49.79.73V513.65C784.9,513.92,784.61,514.18,784.33,514.46Z"/><path d="M802.12,542.06a7.31,7.31,0,0,1-2.75,1.22v2.05a16.56,16.56,0,0,0,2.83-.61V542Z"/><path d="M851.1,487.46a8.3,8.3,0,0,0-.71-.5v9.63a3.85,3.85,0,0,0,2-1.18,4.59,4.59,0,0,0,.83-1.32v-3.9A6.43,6.43,0,0,0,851.1,487.46Z"/><path d="M833.39,491.74v52.69h2.83V488.84A20,20,0,0,0,833.39,491.74Z"/><rect x="901.42" y="486.15" width="2.83" height="58.28"/><path d="M920,542.21h-1.57v2.22h2.83v-2.24Z"/><path d="M935.43,527.42v17h1l1.61-19h-2C935.77,526.1,935.6,526.77,935.43,527.42Z"/><path d="M954.83,538a60.34,60.34,0,0,1-.59-10.65,72,72,0,0,1,.48-10.56,6.44,6.44,0,0,1,.56-1.67v-4.54a16.56,16.56,0,0,0-2.84,1.53v30.41a16.52,16.52,0,0,0,2.84,1.58v-4.74A7.48,7.48,0,0,1,954.83,538Z"/><path d="M969.45,510.49v4.6a8,8,0,0,1,.55,1.61,64.12,64.12,0,0,1,.54,10.56,66,66,0,0,1-.54,10.63,8.22,8.22,0,0,1-.55,1.63V544a17.85,17.85,0,0,0,2.83-1.63V512A16.93,16.93,0,0,0,969.45,510.49Z"/><path d="M1020.47,516.21v21.63a17.33,17.33,0,0,0,2.84-5.92V522A16.5,16.5,0,0,0,1020.47,516.21Z"/><path d="M1006,511.14l.3,0v-2h-.21a20.47,20.47,0,0,0-2.63.19v2.09A10.15,10.15,0,0,1,1006,511.14Z"/><path d="M1006,543.56a9.7,9.7,0,0,1-2.54-.33v2.12a18.5,18.5,0,0,0,2.37.16l.47,0v-2Z"/><path d="M988.09,527.26a18.78,18.78,0,0,0,1.2,6.75V520.58A18.48,18.48,0,0,0,988.09,527.26Z"/><rect x="1071.5" y="542.21" width="2.83" height="2.22"/><path d="M1037.48,486.12v58.31h2.83V486C1039.36,486.05,1038.42,486.09,1037.48,486.12Z"/><rect x="1054.49" y="510.27" width="2.83" height="2.22"/><rect x="1054.49" y="542.21" width="2.83" height="2.22"/><polygon points="1054.49 535.71 1057.32 539.04 1057.32 526.75 1054.49 523.46 1054.49 535.71"/><polygon points="1057.32 517.14 1057.32 514.59 1054.49 517.23 1054.49 519.76 1057.32 517.14"/><path d="M1091.31,496.28l0,0v-6.61l-.06-.07a4.62,4.62,0,0,0-2.78-1.32v9.34A4.68,4.68,0,0,0,1091.31,496.28Z"/><path d="M1088.5,510.05v34.38h2.84V509.71C1090.41,509.85,1089.47,510,1088.5,510.05Z"/><path d="M1122.52,511.07v2.23a8.73,8.73,0,0,1,2.83-1.38v-2.17A12.14,12.14,0,0,0,1122.52,511.07Z"/><path d="M1105.78,510.27h-.27v2.22H1108v29.72h-2.48v2.22h2.84v-34.2C1107.51,510.26,1106.65,510.27,1105.78,510.27Z"/><path d="M1139.76,542.21V524a46.26,46.26,0,0,0-.23-4.91v25.38h2.83v-2.22Z"/><path d="M1159.37,531.13V511.88c-.43.31-.86.62-1.27,1a12.89,12.89,0,0,0-1.56,1.58v14.5A12.8,12.8,0,0,0,1159.37,531.13Z"/><path d="M1157,535.19a9.84,9.84,0,0,1,2.4-1.24v-1.68a12.37,12.37,0,0,0-2.83.9v2.34A5.34,5.34,0,0,1,1157,535.19Z"/><path d="M1157.36,557.16a8.77,8.77,0,0,1,2-5.9v-9.77a11.73,11.73,0,0,1-2.83-.42v7.52a13.55,13.55,0,0,0,2.43.84c-.91.52-1.71,1-2.43,1.47V565a15,15,0,0,0,2.83,1.3v-3.73A7.25,7.25,0,0,1,1157.36,557.16Z"/><path d="M1173.54,541.08v7.77l2.84-.15V541Z"/><path d="M1173.54,564.73v2.14a23.54,23.54,0,0,0,2.84-.79v-2.19A18,18,0,0,1,1173.54,564.73Z"/><path d="M1174.48,519.53q0,8.25-.91,10.38l0,.05v3.25a23.69,23.69,0,0,0,2.84-1.39V511.51a14.22,14.22,0,0,0-2.84-1.42v3.75A12.85,12.85,0,0,1,1174.48,519.53Z"/><path d="M1226.46,521a2.89,2.89,0,0,0,.94-1.36v-2.77a3.25,3.25,0,0,0-.36-.78,3.26,3.26,0,0,1-.58-1.71,1.89,1.89,0,0,1,.94-1.61v-2.13a15.43,15.43,0,0,0-2.83,1.09v10.14A4.18,4.18,0,0,0,1226.46,521Z"/><path d="M1243.71,511.05a10.44,10.44,0,0,0-2.14-.74v33.46a6,6,0,0,0,2.84,1.49V511.44Z"/><path d="M1226,535.43a8.15,8.15,0,0,1,1.38-4.84v-4a25.2,25.2,0,0,0-2.83,1v17.62a13.62,13.62,0,0,0,2.71.26h.12v-5.77A6.37,6.37,0,0,1,1226,535.43Z"/><rect x="1275.59" y="510.27" width="2.83" height="2.22"/><rect x="1258.58" y="510.27" width="2.83" height="2.22"/><path d="M1278,542.21a4.53,4.53,0,0,1-2.36-.53v3.24a17.7,17.7,0,0,0,2.84-.33v-2.42C1278.27,542.18,1278.11,542.21,1278,542.21Z"/><path d="M1346.12,540.43c-.34-.58-.5-2-.5-4.39v-16a19.65,19.65,0,0,0-.63-5.65,4.67,4.67,0,0,0-1.37-2v33.09c.25,0,.48,0,.74,0a9.86,9.86,0,0,0,2.1-.23v-4.43A1.43,1.43,0,0,1,1346.12,540.43Z"/><path d="M1329.45,511.73v-1.85c-1,.11-2,.25-2.84.43v1.89A13.08,13.08,0,0,1,1329.45,511.73Z"/><path d="M1329.45,525.71c-1,.17-1.94.38-2.84.6v3a8.65,8.65,0,0,1,2.84-1.33Z"/><path d="M1329.06,541.56a4.53,4.53,0,0,1-2.45-.73v4.59a12,12,0,0,0,2.84-.66v-3.23Z"/><rect x="1411.65" y="542.21" width="2.83" height="2.22"/><rect x="1411.65" y="486.15" width="2.83" height="2.22"/><path d="M1395.11,488.37h2.37v-2.22h-2.83v2.24Z"/><rect x="1394.65" y="542.21" width="2.83" height="2.22"/><polygon points="1380.16 486.15 1378.64 505.97 1380.47 505.97 1380.47 486.15 1380.16 486.15"/><path d="M1428.66,486.15v17.66c.17.7.33,1.41.48,2.16h2.22l-1.52-19.82Z"/><path d="M1447.74,560.46a4.64,4.64,0,0,1-2.07,2v3.42a9.67,9.67,0,0,0,1.87-1.86c.31-.4.63-.86,1-1.36v-3.57C1448.22,559.67,1448,560.11,1447.74,560.46Z"/><rect x="1462.68" y="510.27" width="2.83" height="2.22"/><polygon points="1448.5 533.86 1448.5 516.1 1446.65 512.49 1448.5 512.49 1448.5 510.27 1445.67 510.27 1445.67 528.36 1448.5 533.86"/><polygon points="1462.68 527.61 1462.68 532.4 1465.51 525.98 1465.51 521.26 1462.68 527.61"/><path d="M1499.53,542.74v-2.41a8.71,8.71,0,0,1-2.84-4.4v3.7A13,13,0,0,0,1499.53,542.74Z"/><path d="M1513.7,510.82v31.95a19,19,0,0,0,2.84-2.22V512.8A15.81,15.81,0,0,0,1513.7,510.82Z"/><path d="M1496.72,519.48a13.6,13.6,0,0,1,2.81-4.87v-2.68a13.61,13.61,0,0,0-2.84,3.55v4.09Z"/><rect x="1496.69" y="564.72" width="2.83" height="2.48"/><rect x="1481.07" y="510.27" width="1.45" height="2.22"/><rect x="1481.64" y="564.72" width="0.88" height="2.48"/><path d="M1550.55,512.13v-2.54a14.62,14.62,0,0,0-2.83-.38v2A6.23,6.23,0,0,1,1550.55,512.13Z"/><path d="M1547.72,543.56v2a14.68,14.68,0,0,0,2.83-.29v-2A13.48,13.48,0,0,1,1547.72,543.56Z"/><rect x="1547.72" y="522.79" width="2.83" height="1.96"/><path d="M1530.71,523.23v8.13a17,17,0,0,0,2.83,6.64V516.62A17.1,17.1,0,0,0,1530.71,523.23Z"/><path d="M1599.62,492.19a5.48,5.48,0,0,0-.88-3V495A4.63,4.63,0,0,0,1599.62,492.19Z"/><path d="M1582.89,542.21V512.49h1.68v-2.22h-1.68V503a67.23,67.23,0,0,1,.48-9.58,6.85,6.85,0,0,1,1.2-3v-3.16a15.31,15.31,0,0,0-2.84,2v55.17h2.84v-2.22Z"/><rect x="1567.12" y="510.27" width="0.44" height="2.22"/><path d="M1618.58,512.71v-2.93c-.8,0-1.66-.07-2.57-.07h-.26v2A5.06,5.06,0,0,1,1618.58,512.71Z"/><path d="M1598.74,533.84V540a8.05,8.05,0,0,0,2.14,3q.33.3.69.57V529.89A9.11,9.11,0,0,0,1598.74,533.84Z"/><path d="M1615.75,527.26c.87-.11,1.81-.2,2.83-.27v-2c-1,.06-1.92.14-2.83.24Z"/><path d="M1600.62,517.92a4.16,4.16,0,0,0,1,2.68v-5.77A5.44,5.44,0,0,0,1600.62,517.92Z"/><path d="M1633.56,539.17a7.65,7.65,0,0,1-.8,1v3.17a8.43,8.43,0,0,0,1.85-4.16Z"/><path d="M1616.55,539.84a8.39,8.39,0,0,1-.8.57v2.52a18,18,0,0,0,2.83-2.61v-2.65A10.92,10.92,0,0,1,1616.55,539.84Z"/><path d="M1650.88,535.5a116.31,116.31,0,0,1-.41-11.63q0-7.74,2.13-10.21v-3.28a17.22,17.22,0,0,0-2.84,1.44v31.25a16.23,16.23,0,0,0,2.84,1.39v-3.75A11.5,11.5,0,0,1,1650.88,535.5Z"/><path d="M1667.37,522.79a4,4,0,0,0,2.24-.65v-8.83a12.88,12.88,0,0,0-1.41-1.32,11.59,11.59,0,0,0-1.43-1v11.72A5.82,5.82,0,0,0,1667.37,522.79Z"/><path d="M1666.77,540.32V543a12.1,12.1,0,0,0,1-.78,13.24,13.24,0,0,0,1.85-2v-4.07A15.88,15.88,0,0,1,1666.77,540.32Z"/><path d="M1683.78,514.36v25.89l.06.07a19.7,19.7,0,0,0,2.77,2.32V512A19,19,0,0,0,1683.78,514.36Z"/><path d="M1700.79,542.67v2a14.55,14.55,0,0,0,2.83-1.39V541A10.5,10.5,0,0,1,1700.79,542.67Z"/><path d="M1701.36,518.09a46.13,46.13,0,0,1-.35,4.7h-.22v2h2.83V511.66a14.79,14.79,0,0,0-2.83-1.5v4.47A9.78,9.78,0,0,1,1701.36,518.09Z"/><path d="M223.94,493.58v57.89l1.68,0,1.15,0V493.58Z"/><path d="M206.93,493.55v5.92l2.83-.1v-5.81Z"/><path d="M242.61,493.54h-1.67v5.66l2.84.07v-5.74Z"/><path d="M292.72,511c-.24-.19-.5-.35-.75-.53v41l2.83.06V513.21A10,10,0,0,0,292.72,511Z"/><path d="M275.54,507.9,275,508v5.41a20.15,20.15,0,0,1,2.83-.21h0v-5.6C277,507.68,276.27,507.77,275.54,507.9Z"/><path d="M260.28,493.58l-2.33,0v57.88h.13c.64,0,1.55,0,2.71.06V493.58Z"/><path d="M311.81,499.2v-5.93c-.83,0-1.74,0-2.72-.07,0,1.3,0,3.19-.11,5.66v.37Z"/><path d="M309,508.5v43c1,0,1.67,0,2.11,0h.72V508.53Z"/><path d="M343.57,508c-.21.05-.38.12-.58.18v5.86a12,12,0,0,1,2.84-.51v-5.93A15.25,15.25,0,0,0,343.57,508Z"/><path d="M327.74,508.5l0,3.9q0,14.63-1.53,39.13l2.57-.07v-43Z"/><path d="M377,513.76h2.09c0-1.61.11-3.31.26-5.09H377Z"/><path d="M361.15,500.55c-.14,3.83-.29,6.53-.43,8.12H360v5.09h.31L360,519.4v29l0,.06a7,7,0,0,0,2.8,2.68V500.22Z"/><path d="M377.49,551.44q.54-3.44,1-5.52l-1.5.38v5.25Z"/><path d="M411,547.12v5.06c.29,0,.57,0,.85-.08.63-.07,1.3-.18,2-.3v-5.25C412.88,546.78,411.93,547,411,547.12Z"/><rect x="394.02" y="524.55" width="2.83" height="3.53"/><path d="M413,514.55a8.13,8.13,0,0,1,.84.82V509c-.31-.12-.62-.25-.94-.36-.63-.19-1.26-.36-1.9-.51v5.16A9,9,0,0,1,413,514.55Z"/><rect x="411.02" y="524.55" width="2.83" height="3.53"/><path d="M394,542v8.28a17.88,17.88,0,0,0,2.35.91c.15,0,.32.08.48.12v-6.59A12.39,12.39,0,0,1,394,542Z"/><path d="M394.2,517.48a12.24,12.24,0,0,1,2.65-2.63v-6a17.31,17.31,0,0,0-2.83,1.28v7.61Z"/><path d="M445,545.87v5.93c.91.18,1.86.32,2.83.43v-5.34A15.13,15.13,0,0,1,445,545.87Z"/><path d="M462.49,520.39a24.4,24.4,0,0,1,.34,4.16h-.78v3.53h2.83V512a13.78,13.78,0,0,0-2.83-2.08v8.91A10.8,10.8,0,0,1,462.49,520.39Z"/><rect x="445.04" y="524.55" width="2.83" height="3.53"/><path d="M462.05,546.05v5.37c.9-.18,1.83-.4,2.83-.64v-5.59C463.91,545.51,463,545.79,462.05,546.05Z"/><path d="M447.09,512.83q.39-.12.78-.21v-4.87a24.49,24.49,0,0,0-2.83.51v5.37A13.87,13.87,0,0,1,447.09,512.83Z"/><path d="M429.65,530.88a27.7,27.7,0,0,0,1.22,8.26V522.41A29.06,29.06,0,0,0,429.65,530.88Z"/><path d="M479.06,508.5v43l1.76,0,1.07,0V508.53Z"/><path d="M515.87,511.32a11.7,11.7,0,0,0-2.8-1.87v42l1.68,0,1.16,0v-40.1Z"/><path d="M496.06,508.5V514a16,16,0,0,1,2.84-.5v-5.64A27.69,27.69,0,0,0,496.06,508.5Z"/><polygon points="565.06 518.86 564.09 515.62 564.09 538.79 566.93 547.87 566.93 524.9 565.06 518.86"/><path d="M549.28,493.54l.64,1.95v-1.94Z"/><path d="M600.94,500.45v-6.87h-2.83v12.91Q599.52,503.45,600.94,500.45Z"/><polygon points="615.12 514.78 615.12 530.82 617.95 524.6 617.95 508.23 615.12 514.78"/><path d="M583.94,512.31V493.57H581.1v10.07C582.06,506.51,583,509.39,583.94,512.31Z"/><path d="M598.11,532.9v18.61c.94,0,1.88,0,2.83-.06v-10Q599.49,537.19,598.11,532.9Z"/><path d="M632.13,493.55v.69l.32-.7Z"/><path d="M581.1,527v15.44q1.39-3,2.84-6.07V520.52C583,522.7,582.06,524.87,581.1,527Z"/><path d="M649.13,527.05v5.06l.11,0c.62-.21,1.53-.49,2.73-.83v-4.92C650.93,526.58,650,526.82,649.13,527.05Z"/><path d="M668,510.49a11.94,11.94,0,0,0-1.83-1v42h.39c.67,0,1.49,0,2.45,0V511.31A10.3,10.3,0,0,0,668,510.49Z"/><path d="M634.71,534.45a11,11,0,0,0-1.55,2.93,10.29,10.29,0,0,0-.58,3.53A11.8,11.8,0,0,0,634.2,547a9.34,9.34,0,0,0,.76,1.1V534.14C634.88,534.24,634.78,534.35,634.71,534.45Z"/><path d="M652,512.07v-4.45c-.94.06-1.88.15-2.84.25v4.49C650.09,512.22,651,512.13,652,512.07Z"/><path d="M649.32,548h-.19v4.4c.88,0,1.78-.05,2.74-.13h.1v-4.4C651.06,548,650.17,548,649.32,548Z"/><path d="M684.46,526.93l1.52,4.34v-22l-.18-.78-2.65.07v14.72Z"/><path d="M717.17,508.58v8l2.83-6.24v-1.81Z"/><polygon points="702.36 534.35 700.16 539.72 700.16 554.21 702.99 547.91 702.99 532.88 702.36 534.35"/><path d="M684.29,566.27a9.85,9.85,0,0,1-1.14.34v5.45a20.21,20.21,0,0,0,2.8-.35h0v-6.32A8.15,8.15,0,0,1,684.29,566.27Z"/><path d="M734.17,547.19v5.26h1c.63,0,1.24,0,1.84-.07v-5.48A16.26,16.26,0,0,1,734.17,547.19Z"/><path d="M736.34,513.44l.67-.17v-5.66a22.27,22.27,0,0,0-2.84.42v6.47A7.32,7.32,0,0,1,736.34,513.44Z"/><path d="M737,533.19v-7.8l-1.16-1a19,19,0,0,1-1.68-1.67v8.12l1.36,1.11Z"/><path d="M805,513.19v-5.51c-.93-.09-1.87-.16-2.84-.16v5.4A19.23,19.23,0,0,1,805,513.19Z"/><path d="M819.21,514.6v29.27a23.89,23.89,0,0,0,2.77-5.51c0-.07,0-.15.07-.22V519.7A18.52,18.52,0,0,0,819.21,514.6Z"/><path d="M786.87,531.09a26,26,0,0,1,1.16-7.8V511.73a17.89,17.89,0,0,0-2.83,2.52v32.33c.08.09.16.19.25.28a17.53,17.53,0,0,0,2.58,2.06V538.36A22,22,0,0,1,786.87,531.09Z"/><path d="M802.2,547.14v5.28c1,0,1.91-.12,2.84-.25v-5.45A16.62,16.62,0,0,1,802.2,547.14Z"/><path d="M837.27,495.9a7.43,7.43,0,0,0-1,2v53.55h.66l2.18,0V494.19A8.16,8.16,0,0,0,837.27,495.9Z"/><path d="M853.27,513.85c.11-2.29.24-4,.38-5.27h-.42v5.27Z"/><path d="M853.23,492.37v5a26.15,26.15,0,0,1,2.83.77v-5.25C855.08,492.69,854.14,492.52,853.23,492.37Z"/><path d="M904.25,545.86v5.59h2.84v-5.62Z"/><polygon points="888.66 545.84 889.67 520.45 890.08 512.45 890.08 493.55 887.24 493.58 887.24 551.5 890.08 551.48 890.08 545.84 888.66 545.84"/><path d="M923.7,518.54a25.87,25.87,0,0,0-2.44,7.7v9.11a24.3,24.3,0,0,0,1.17,4.43,20.29,20.29,0,0,0,1.66,3.48V517.83C924,518.07,923.82,518.3,923.7,518.54Z"/><path d="M938.27,546.67v5.48a26.09,26.09,0,0,0,2.83.26v-5.27A15.77,15.77,0,0,1,938.27,546.67Z"/><path d="M955.28,510.15v8.57a13.55,13.55,0,0,1,1.34,3,23.43,23.43,0,0,1,1,7,28,28,0,0,1-1,7.62,18.34,18.34,0,0,1-1.34,3.45v9.35a17.42,17.42,0,0,0,2.83-2.24V512A18.06,18.06,0,0,0,955.28,510.15Z"/><path d="M941.1,513.08v-5.44a26.43,26.43,0,0,0-2.83.42v5.7A14.24,14.24,0,0,1,941.1,513.08Z"/><path d="M974.93,518.54a26.28,26.28,0,0,0-2.65,9.34v5.86a25.24,25.24,0,0,0,1.38,6,19.18,19.18,0,0,0,1.46,3.1V518.2C975.06,518.32,975,518.43,974.93,518.54Z"/><path d="M1006.3,510.05v8.36a13.9,13.9,0,0,1,1.56,3.34,23.76,23.76,0,0,1,1,7,28.43,28.43,0,0,1-1,7.62,17.58,17.58,0,0,1-1.56,3.8v9.12a17,17,0,0,0,2.83-2.16V511.86A17.68,17.68,0,0,0,1006.3,510.05Z"/><path d="M992.13,513.11v-5.45a24.32,24.32,0,0,0-2.84.44v5.73A15.16,15.16,0,0,1,992.13,513.11Z"/><path d="M989.29,546.61v5.51a26.51,26.51,0,0,0,2.84.28v-5.28A15.71,15.71,0,0,1,989.29,546.61Z"/><path d="M1041.13,527.55l2-2.09v-8.3l-1,1.09-1.83,2v15.86l1.92,2.33.92,1.12v-9.39C1042.39,529.17,1041.71,528.3,1041.13,527.55Z"/><path d="M1059.51,508.5l-2.19,0v2.24Z"/><path d="M1057.32,547.17v4.28c.79,0,1.74,0,2.84,0v-1Z"/><path d="M1025.44,540l-.72,11.51,1.42,0V522.61Z"/><path d="M1074.33,499.2l2.26,0c.11-3.14.2-5.15.25-6-.77,0-1.62.06-2.51.07Z"/><path d="M1074.47,551.53q0-4.75.24-13.34t.63-15.82q.39-7.25.87-13.87l-1.88,0v43Z"/><path d="M1108.35,507.78v5.68c.36,0,.74,0,1.12,0,.58,0,1.15,0,1.71.08v-5.95A27.2,27.2,0,0,0,1108.35,507.78Z"/><path d="M1127.63,515.84a9.78,9.78,0,0,0-2.28-3.84v39.47l1.84.06q0-3.71.13-6.25l.84-17.8,0-.6v-8.4A18.72,18.72,0,0,0,1127.63,515.84Z"/><path d="M1091.62,508.54h-.28v42.94l2,.06q.26-13.75.84-20.46V508.51Z"/><path d="M1159.37,566.77v5.35c.94,0,1.89-.08,2.83-.17v-5.61A19.67,19.67,0,0,1,1159.37,566.77Z"/><path d="M1176.38,508.45v56.64c.23-.35.47-.7.67-1.07a17.27,17.27,0,0,0,1.36-3.32,28.66,28.66,0,0,0,.76-4.92l0-1.47V508.89C1178.24,508.73,1177.3,508.58,1176.38,508.45Z"/><path d="M1142.36,564.36v5.93c1,.22,1.92.42,2.84.6v-5.75C1144.3,564.91,1143.35,564.65,1142.36,564.36Z"/><path d="M1159.37,547v5.06c.52-.08,1-.17,1.54-.29s.88-.22,1.29-.34v-5A14.78,14.78,0,0,1,1159.37,547Z"/><path d="M1142.54,547.75a15.76,15.76,0,0,0,2.66,2v-11.4a19,19,0,0,1-.81-5.63,22.56,22.56,0,0,1,.81-6V513.91a21.9,21.9,0,0,0-2.84,3v30.63Z"/><path d="M1162.2,513v-5.42c-1,.06-1.91.15-2.83.28v5.51A28.38,28.38,0,0,1,1162.2,513Z"/><path d="M1230.24,512v-4.46c-.94,0-1.88.1-2.84.19v4.46C1228.36,512.11,1229.3,512.05,1230.24,512Z"/><path d="M1245,510.49c-.19-.13-.41-.25-.61-.38v41.34c.8,0,1.74,0,2.83.08V512.74A8.43,8.43,0,0,0,1245,510.49Z"/><path d="M1230.11,547.8c-.93.12-1.83.18-2.71.21v4.39l1.52-.09,1.32-.13v-4.4Z"/><path d="M1227.4,531.72c.75-.23,1.69-.5,2.84-.82V526l-2.84.71Z"/><path d="M1211.76,534.45a11.7,11.7,0,0,0-1.37,2.51v8.14a12.47,12.47,0,0,0,.86,1.86,9.27,9.27,0,0,0,2,2.38V532.88A11.69,11.69,0,0,0,1211.76,534.45Z"/><path d="M1278.43,508.67v5.09h2.7c0-1,.07-2.08.13-3.17v-1.92Z"/><path d="M1263.18,500.55c-.14,3.83-.29,6.53-.43,8.12h-1.33v5.09h.92l-.92,16.88V547a7.06,7.06,0,0,0,.64,1.5,7.15,7.15,0,0,0,2.19,2.32V500.34Z"/><path d="M1279.52,551.44q.54-3.44,1-5.52l-2.11.53v5.24Z"/><path d="M1330.5,524.87l-1,.33V530c.78-.22,1.37-.39,1.76-.52s.73-.24,1.07-.37v-4.87C1331.74,524.43,1331.15,524.65,1330.5,524.87Z"/><path d="M1315.28,513.87V509c-.91.2-1.85.43-2.84.68v5.16C1313.48,514.48,1314.43,514.15,1315.28,513.87Z"/><path d="M1329.9,551.57a44.21,44.21,0,0,1,1.36-5.05l-1.81.53v4.6Z"/><path d="M1332.28,512.56v-4.82c-.92-.1-1.86-.16-2.83-.19v4.53A17.35,17.35,0,0,1,1332.28,512.56Z"/><path d="M1313.93,545a6.18,6.18,0,0,1-1.36-4,7.45,7.45,0,0,1,.55-2.85,6.88,6.88,0,0,1,1.61-2.21c.17-.16.36-.32.55-.48v-6.27l-1,.42a17.93,17.93,0,0,0-1.81.9v20.7a16.45,16.45,0,0,0,2.84.75v-5.68A7.16,7.16,0,0,1,1313.93,545Z"/><path d="M1380.47,493.56v5.74l2.84-.06v-5.67Z"/><polygon points="1397.48 493.58 1397.48 551.52 1397.66 551.53 1397.66 544.44 1398.55 517.95 1399.44 499.15 1400.32 499.15 1400.32 493.57 1397.48 493.58"/><path d="M1417.32,499.52v-6h-2.83v5.84Z"/><path d="M1414.49,565.3v2.59c.12,1,.23,2.11.33,3.31.86.2,1.69.36,2.5.5v-5.37A17.52,17.52,0,0,1,1414.49,565.3Z"/><path d="M1431.5,526.74v19.94l2.12,6q-1,2.64-2.12,4.81v11.65c.07-.07.16-.12.24-.19a15.8,15.8,0,0,0,2.38-2.5l.21-.31V535.33Z"/><polygon points="1448.5 520.23 1448.5 535.86 1451.34 529.55 1451.34 513.61 1448.5 520.23"/><path d="M1485.35,512.8v-5.28c-.94,0-1.89,0-2.83.08V513A27.35,27.35,0,0,1,1485.35,512.8Z"/><path d="M1499.53,511v12.65a22.75,22.75,0,0,1,.59,5.32,26,26,0,0,1-.59,5.59v13.94a17.56,17.56,0,0,0,2.73-2.84.78.78,0,0,0,.1-.15v-32A14.71,14.71,0,0,0,1499.53,511Z"/><path d="M1482.52,546.81v5a20.44,20.44,0,0,0,2.83.51v-5.08A13.56,13.56,0,0,1,1482.52,546.81Z"/><path d="M1466.06,510.07c0,6.3-.23,14.06-.55,23.22v37.38l2,0h.83V509.59Z"/><path d="M1551,544.77l-.42.14v2C1550.69,546.13,1550.83,545.41,1551,544.77Z"/><path d="M1533.54,547.09v5.22c.92.08,1.86.12,2.84.14v-5A21.16,21.16,0,0,1,1533.54,547.09Z"/><path d="M1536.38,512.15v-4.63c-1,0-1.92.06-2.84.14v4.77A16.47,16.47,0,0,1,1536.38,512.15Z"/><path d="M1550.55,512.92v15.16h2.84V517.73A15.82,15.82,0,0,0,1550.55,512.92Z"/><rect x="1533.54" y="524.55" width="2.83" height="3.53"/><path d="M1516.9,519.14c-.13.28-.25.58-.36.87v21.42a18.46,18.46,0,0,0,2.83,4.44V515A20.52,20.52,0,0,0,1516.9,519.14Z"/><path d="M1569.68,493.75a9.35,9.35,0,0,0-2.12,1.79v55.91c.72,0,1.68,0,2.83.07V493.35C1570.15,493.48,1569.91,493.61,1569.68,493.75Z"/><path d="M1586.65,498.34c-.23-1.89-.37-3.69-.42-5.39-.57-.13-1.12-.24-1.66-.34v5.09C1585.25,497.89,1585.94,498.1,1586.65,498.34Z"/><path d="M1620,510.49a12.34,12.34,0,0,0-1.42-.84v41.79c.77,0,1.72,0,2.84.06V511.74A9.19,9.19,0,0,0,1620,510.49Z"/><path d="M1604.41,512.05V507.6c-.94,0-1.88.12-2.84.22v4.49C1602.53,512.19,1603.48,512.1,1604.41,512.05Z"/><path d="M1601.57,548v4.39c.76,0,1.52,0,2.33-.12l.51,0v-4.4A28.13,28.13,0,0,1,1601.57,548Z"/><path d="M1601.57,526.94v5c.68-.22,1.63-.5,2.84-.85v-4.9Z"/><path d="M1586.74,534.45a11.27,11.27,0,0,0-1.56,2.93,10.54,10.54,0,0,0-.57,3.53,11.8,11.8,0,0,0,1.62,6.05,8.66,8.66,0,0,0,1.17,1.57V533.66C1587.16,533.93,1586.93,534.19,1586.74,534.45Z"/><path d="M1635.59,517.63v26.3a15.78,15.78,0,0,0,2.55,3.24l.29.26V513.52A18.33,18.33,0,0,0,1635.59,517.63Z"/><path d="M1655,547.07a18.86,18.86,0,0,1-2.4-.15v5.52l.79,0c.63,0,1.32,0,2-.05v-5.35Z"/><path d="M1655.43,512.92v-5.38l-.77,0c-.71,0-1.39,0-2.06.05v5.6A18.28,18.28,0,0,1,1655.43,512.92Z"/><path d="M1703.62,546.64v5.23c.88-.14,1.84-.33,2.84-.54v-5.41C1705.48,546.2,1704.54,546.43,1703.62,546.64Z"/><rect x="1686.61" y="524.55" width="2.83" height="3.53"/><path d="M1687.18,514.7a12.78,12.78,0,0,1,2.27-1.27v-5.27a20.41,20.41,0,0,0-2.84.84v6.13C1686.8,515,1687,514.84,1687.18,514.7Z"/><path d="M1705.34,517.31a12.1,12.1,0,0,1,1.11,3.08.17.17,0,0,0,0,.07V510.18a16.44,16.44,0,0,0-2.84-1.32V515A8.69,8.69,0,0,1,1705.34,517.31Z"/><rect x="1703.62" y="524.55" width="2.83" height="3.53"/><path d="M1688.35,545.56a12.82,12.82,0,0,1-1.74-1.1v6.76a27.39,27.39,0,0,0,2.84.66v-5.8C1689.07,545.92,1688.71,545.75,1688.35,545.56Z"/><path d="M209.76,485.13v4a11.63,11.63,0,0,1,1.23-.6,13.78,13.78,0,0,1,1.61-.54v-2.82Z"/><path d="M243.78,545.63v1.48h2.83V546A16.39,16.39,0,0,1,243.78,545.63Z"/><path d="M263.42,485.13h-2.63v9.51a26.7,26.7,0,0,1,2.4,7.33l.43,0V489.25Z"/><path d="M246.61,486.9v-1.77h-2.83v1.56C244.8,486.74,245.74,486.81,246.61,486.9Z"/><path d="M226.77,485.13v1.42l.78,0v46.32a33.57,33.57,0,0,1-.52,6.9,7.8,7.8,0,0,1-.26.86v6.5h2.84v-62Z"/><path d="M295.83,545.39a9.06,9.06,0,0,1-1,.33v1.39h2.84v-3.23A4.81,4.81,0,0,1,295.83,545.39Z"/><path d="M296.94,512.14a7.78,7.78,0,0,1,.7,1v-4.78a20.34,20.34,0,0,0-2.84-.44v2.53A7.12,7.12,0,0,1,296.94,512.14Z"/><path d="M279.86,541.92a20.32,20.32,0,0,1-.36-4.52l-.05-3.35v-7.26a32.63,32.63,0,0,1,1.18-9.46V513c-.38.42-.77.87-1.18,1.38v-31.1l-1.65.21v63.59h2.83v-3.54A4.91,4.91,0,0,1,279.86,541.92Z"/><path d="M311.81,547.11h.65v-1l-.65-.14Z"/><path d="M314.6,546.16v1h0v-1Z"/><path d="M330,544.3a4.68,4.68,0,0,1-1.17-1.67v4.48h2.83v-1.8A5.41,5.41,0,0,1,330,544.3Z"/><path d="M362.83,507.86v6a3.46,3.46,0,0,0,2.45,1.05,2.58,2.58,0,0,0,.39,0v-6.48A7.81,7.81,0,0,0,362.83,507.86Z"/><polygon points="345.83 508.32 345.83 547.11 348.66 547.11 348.66 507.93 345.83 508.32"/><path d="M381.21,536.67V510.24h1.47v-1.73h-1.47v-11.8h-1.37v50.74a15.47,15.47,0,0,0,2.84.42v-4.63C381.71,541.85,381.21,539.67,381.21,536.67Z"/><path d="M416.69,509.43V508a18.77,18.77,0,0,0-2.14-.13c-.24,0-.46,0-.69,0v1A7.87,7.87,0,0,1,416.69,509.43Z"/><path d="M413.86,544.24v3.63c.48,0,.95.06,1.46.06s.92,0,1.37,0v-3A13.89,13.89,0,0,1,413.86,544.24Z"/><path d="M396.85,519.18V537a18.07,18.07,0,0,0,2.12,3.67c.23.31.47.6.72.89V514.69A18,18,0,0,0,396.85,519.18Z"/><rect x="413.86" y="520.64" width="2.83" height="1.77"/><path d="M465.22,544.25l-.34.11v2.28a13.09,13.09,0,0,0,2.68-1.41l.16-.12v-2.18A10.59,10.59,0,0,1,465.22,544.25Z"/><path d="M449.22,539.62a16.9,16.9,0,0,1-1.35-2v8.67a18.88,18.88,0,0,0,2.84.92v-6A13.77,13.77,0,0,1,449.22,539.62Z"/><rect x="447.87" y="520.64" width="2.83" height="1.77"/><path d="M448.84,512.19a11.05,11.05,0,0,1,1.87-1.72v-1.79a18.66,18.66,0,0,0-2.84,1.13v3.65A13.31,13.31,0,0,1,448.84,512.19Z"/><path d="M464.91,520.64h0v1.77h2.84V512.17a13.79,13.79,0,0,0-2.84-2.19v10.38Z"/><path d="M498.9,508.61V510a12,12,0,0,1,2.49-.26l.34,0V508A18.69,18.69,0,0,0,498.9,508.61Z"/><path d="M481.89,508.94v2.8a5.52,5.52,0,0,1,1,1.21,7.08,7.08,0,0,1,1,3,64.1,64.1,0,0,1,.22,6.53v11.16c0,2.65-.06,4.67-.2,6.07a9.91,9.91,0,0,1-.7,3.14,5.21,5.21,0,0,1-1.32,1.83v2.38h2.83V508.57Z"/><path d="M517.58,541.92a20.38,20.38,0,0,1-.36-4.52V518.17a9.9,9.9,0,0,0-1.31-5.19v34.13h2.83V544A4.78,4.78,0,0,1,517.58,541.92Z"/><polygon points="583.94 532.22 583.94 537.3 586.77 528.94 586.77 523.66 583.94 532.22"/><path d="M585.83,485.13v1c.33,0,.64,0,.94,0v-1.07Z"/><path d="M569.26,499.39l-1.18-2.82a21.64,21.64,0,0,1-1.15-3.26V519.1l2.83,6.82v-25.3Z"/><path d="M567.4,488.53a4.45,4.45,0,0,1,2-1.77l.37-.13v-1.5h-2.83v4.4A4.79,4.79,0,0,1,567.4,488.53Z"/><path d="M549.92,485.13v1.56a7.48,7.48,0,0,1,2.31,1l.53.38v-3Z"/><path d="M635,485.13v13.76c1-2.37,2-4.35,2.84-5.91v-7.85Z"/><polygon points="600.95 485.13 600.95 510.54 603.78 519.02 603.78 485.13 600.95 485.13"/><polygon points="618.3 534.44 617.95 533.32 617.95 540.03 620.79 533.16 620.79 528.34 618.3 534.44"/><path d="M653.86,530.47a11,11,0,0,0-1.89,1.15v14.43a10.32,10.32,0,0,0,2.83,1.3V530.06C654.46,530.2,654.14,530.33,653.86,530.47Z"/><path d="M669,508.73V512q1.54,2.46,1.54,7.13A11.28,11.28,0,0,1,670,523a5.05,5.05,0,0,1-1,1.56v1.52c.56-.41,1.11-.83,1.63-1.27v7.59c0,3.84-.46,6.78-1.4,8.81-.07.16-.16.3-.23.46v2.48c.51-.43,1.06-.9,1.67-1.44a20.18,20.18,0,0,0,1.16,1.77V509.67A21.82,21.82,0,0,0,669,508.73Z"/><path d="M686.42,543.16l-.44-.25v1.27A9.49,9.49,0,0,0,686.42,543.16Z"/><path d="M653.31,517.19a3.84,3.84,0,0,0,1.49-.28V509a16.17,16.17,0,0,0-1.84.69,10,10,0,0,0-1,.55V517A3.89,3.89,0,0,0,653.31,517.19Z"/><path d="M703,527.16v18.23a10.15,10.15,0,0,1,.59,2.81,8,8,0,0,1-.59,2.55v3.42c.11-.24.21-.48.32-.75l2.52-6.11V534.42Z"/><path d="M686,508.51v1.17a5.21,5.21,0,0,1,1.84.87,4.82,4.82,0,0,1,1,1.17v-3.21Z"/><path d="M720,508.51v5.13a12.27,12.27,0,0,1,.66-1.13,6.28,6.28,0,0,1,1.79-1.86l.38-.22v-1.92Z"/><path d="M688.78,558.49a2.28,2.28,0,0,0-.86,1.88,2.6,2.6,0,0,0,.9,2v-3.9Z"/><path d="M737,520.92v7.92c.67.39,1.37.78,2.15,1.2l.68.36v-7.95A20.47,20.47,0,0,1,737,520.92Z"/><path d="M737,546.11v1.26a16.65,16.65,0,0,0,2.83.5v-1A7.85,7.85,0,0,1,737,546.11Z"/><path d="M739.48,508.83l.36,0v-1a13.49,13.49,0,0,0-2.83.3v1.22A5.94,5.94,0,0,1,739.48,508.83Z"/><path d="M805,546.9v1a23.64,23.64,0,0,0,2.83-.24v-1.38A8.79,8.79,0,0,1,805,546.9Z"/><path d="M822.05,517.22v21.62a18.56,18.56,0,0,0,2.83-5.86v-9.9A18.77,18.77,0,0,0,822.05,517.22Z"/><path d="M788.45,514.82c-.15.16-.27.33-.42.49v25.45l.15.18a23,23,0,0,0,2.69,2.47v-30.8A27.62,27.62,0,0,0,788.45,514.82Z"/><path d="M807.87,509.63v-1.49a21.71,21.71,0,0,0-2.83-.27v1A10.08,10.08,0,0,1,807.87,509.63Z"/><path d="M856.06,483.3v6.31a5.65,5.65,0,0,0,.65.58,3.5,3.5,0,0,0,2.13.66h.06V484A10.1,10.1,0,0,0,856.06,483.3Z"/><path d="M841,486.85a13.56,13.56,0,0,0-2,1.76v58.5h2.83V486.29C841.6,486.47,841.3,486.65,841,486.85Z"/><path d="M908.88,486.17v-1h-1.79v1.22C907.64,486.27,908.23,486.21,908.88,486.17Z"/><rect x="890.08" y="485.13" width="2.83" height="61.98"/><path d="M924.09,543.78v3.33h2.84V542A13.74,13.74,0,0,1,924.09,543.78Z"/><path d="M907.09,544.77v2.34h2.83v-1.68A16.81,16.81,0,0,1,907.09,544.77Z"/><path d="M942.58,514.82c-.54.57-1,1.15-1.48,1.74V539.5q.57.74,1.2,1.44c.53.57,1.08,1.11,1.64,1.62v-29C943.48,513.93,943,514.36,942.58,514.82Z"/><path d="M975.12,515.86V540.2a20.4,20.4,0,0,0,2.83-4.4V520.26A20.4,20.4,0,0,0,975.12,515.86Z"/><path d="M958.7,546.93c-.2,0-.39,0-.59,0v1l.31,0c.87,0,1.7,0,2.52-.13v-1.17A9,9,0,0,1,958.7,546.93Z"/><path d="M960.94,509.26V508a23.05,23.05,0,0,0-2.52-.15l-.31,0v1A9.79,9.79,0,0,1,960.94,509.26Z"/><path d="M1011.6,545.57a9.93,9.93,0,0,1-2.47,1v1.18a21.57,21.57,0,0,0,2.84-.49v-2Z"/><path d="M993.53,527.43a25.12,25.12,0,0,1,1.43-8.7v-7.46a22.14,22.14,0,0,0-2.83,2.19V542.6a21.08,21.08,0,0,0,2.83,2.12v-8.23A27.16,27.16,0,0,1,993.53,527.43Z"/><path d="M1012,510.65v-2.13a20.34,20.34,0,0,0-2.84-.53v1.29A10.2,10.2,0,0,1,1012,510.65Z"/><path d="M1026.14,520.37v15.31a18.21,18.21,0,0,0,1.67-7.69A18,18,0,0,0,1026.14,520.37Z"/><path d="M1078.58,546.11c-.5-.05-1-.12-1.41-.2v1.2h1.14v-1Z"/><path d="M1045.84,541.92a20,20,0,0,1-.37-4.5l0-3.45v-3.3l.55-.61v-1.9l-.55.61V483.31l-2.28.29v63.51H1046v-4.74C1045.93,542.22,1045.88,542.08,1045.84,541.92Z"/><path d="M1063,511.94v-3.43h-2.83v6.11A32.83,32.83,0,0,1,1063,511.94Z"/><path d="M1060.16,531v9.89a4.19,4.19,0,0,1,1.28,2.71,2.11,2.11,0,0,1-1.09,1.89l-.19.08v1.5H1063V534.23Z"/><path d="M1078.58,546.11l.36,0v1H1080v-1.25C1079.57,546,1079.1,546,1078.58,546.11Z"/><path d="M1094.17,544.68v2.43H1097v-1.26A8.76,8.76,0,0,1,1094.17,544.68Z"/><path d="M1078.81,509.47v.95c.43,0,.82.08,1.19.14v-1.24Z"/><path d="M1078.58,546.11l-.27,0v1h.63v-1Z"/><path d="M1130.94,545.14a9.58,9.58,0,0,1-2.75.84v1.13H1131v-2Z"/><path d="M1145.2,547.11h1.9v-1a18.31,18.31,0,0,1-1.9-.46Z"/><path d="M1129.13,510.62a7.71,7.71,0,0,1,1.89,1.23v-3.77a20.88,20.88,0,0,0-2.83-.24v2.42C1128.51,510.37,1128.82,510.48,1129.13,510.62Z"/><path d="M1113.77,507.83l-2.59.34v38.94H1114V509C1113.94,508.61,1113.86,508.22,1113.77,507.83Z"/><path d="M1180.56,542.8a12.32,12.32,0,0,0-1.35-.85v18.83c.24-.15.49-.29.72-.45a12.38,12.38,0,0,0,2.12-1.94V544.14A10.14,10.14,0,0,0,1180.56,542.8Z"/><path d="M1162.2,562.38v1.18c.9.08,1.85.13,2.84.15v-1.16A23.44,23.44,0,0,1,1162.2,562.38Z"/><path d="M1179.34,521.09a11.88,11.88,0,0,0-.13-1.68v3.4A12.1,12.1,0,0,0,1179.34,521.09Z"/><path d="M1181.62,511.24l.43.56v-4a9.77,9.77,0,0,0-2.84.49v1.82A2.93,2.93,0,0,1,1181.62,511.24Z"/><rect x="1162.2" y="539.89" width="2.83" height="6.31"/><path d="M1162.59,533.26c.93-.06,1.74-.11,2.45-.17v-1.31a5.77,5.77,0,0,1-2.84-1.3v2.82Z"/><path d="M1165,508.93v-1.06a13.83,13.83,0,0,0-2.84.48v2A5.5,5.5,0,0,1,1165,508.93Z"/><path d="M1230.24,544.91h0v1.27a23.67,23.67,0,0,0,2.83-2.11v-2.6A8.52,8.52,0,0,1,1230.24,544.91Z"/><path d="M1249.64,542.71a7.77,7.77,0,0,1-1.89,2,2.42,2.42,0,0,1-.51.25v2a6.28,6.28,0,0,0,2.84-3v-1Z"/><path d="M1213.67,513.6a3.5,3.5,0,0,0,2.39,3.38v-6.8C1214.48,511.14,1213.67,512.28,1213.67,513.6Z"/><path d="M1214.72,532.72a8.53,8.53,0,0,0-1.49,2.13V543a7.8,7.8,0,0,0,2,2.48,9.56,9.56,0,0,0,.82.6V531.55A10.5,10.5,0,0,0,1214.72,532.72Z"/><path d="M1232.52,511.33a6,6,0,0,1,.55.81v-3.38l-.75-.2c-.7-.17-1.4-.3-2.08-.41v1.39A6.56,6.56,0,0,1,1232.52,511.33Z"/><path d="M1232,525.45a10.27,10.27,0,0,1-1.73,1v1.36a32.64,32.64,0,0,0,2.83-1.83v-1.56A6.28,6.28,0,0,1,1232,525.45Z"/><rect x="1264.25" y="508.51" width="2.83" height="1.73"/><path d="M1266.11,545.25a6,6,0,0,1-1.86-1.3v3.95c.33,0,.66,0,1,0,.64,0,1.24,0,1.83-.08V545.6A8.14,8.14,0,0,1,1266.11,545.25Z"/><path d="M1315.87,527.09l-.59.2v1.65l1-.54c.63-.33,1.24-.68,1.84-1v-1.3A14.6,14.6,0,0,1,1315.87,527.09Z"/><path d="M1300.72,513.6a3.62,3.62,0,0,0,.38,1.63v-3.1A3.18,3.18,0,0,0,1300.72,513.6Z"/><path d="M1317.29,544.91a7.66,7.66,0,0,1-2,1v1.16a12.92,12.92,0,0,0,1.82-.81,10.91,10.91,0,0,0,1-.65v-1.4A8.86,8.86,0,0,1,1317.29,544.91Z"/><path d="M1334.81,544.7a4.09,4.09,0,0,1-2.21.5l-.32,0v2.51a7.18,7.18,0,0,0,2.84-1.22v-2A2.74,2.74,0,0,1,1334.81,544.7Z"/><path d="M1299.36,539a8.21,8.21,0,0,0,1.74,5.29v-10.8A9,9,0,0,0,1299.36,539Z"/><path d="M1317.23,509.51a6.32,6.32,0,0,1,.88.51v-1.73a26.22,26.22,0,0,0-2.83-.38v1A7,7,0,0,1,1317.23,509.51Z"/><path d="M1401.51,545.34a7,7,0,0,1-1.2-.58v2.35h2.84v-1.34A9.51,9.51,0,0,1,1401.51,545.34Z"/><path d="M1417.32,485.13v6.43c.27.28.53.56.77.86a15.45,15.45,0,0,1,2.07,3.56V485.13Z"/><path d="M1386.14,486.54v-1.41h-2.83v1.45C1384.28,486.55,1385.23,486.54,1386.14,486.54Z"/><path d="M1403.15,486.72v-1.59h-2.84v1.47C1401.31,486.63,1402.26,486.67,1403.15,486.72Z"/><path d="M1385.76,539.75a7.75,7.75,0,0,1-1.93,3.68c-.17.18-.35.33-.52.49v3.19h2.83V537A19.32,19.32,0,0,1,1385.76,539.75Z"/><path d="M1366.3,485.13v5.55a11.41,11.41,0,0,1,2.83-1.92v-3.63Z"/><path d="M1453.8,511a2.92,2.92,0,0,1,.37.48v-3h-2.83v1.16A4.8,4.8,0,0,1,1453.8,511Z"/><path d="M1434.84,559.28a4.12,4.12,0,0,1-.51,0v4a7.75,7.75,0,0,0,2.84-1.85v-3A3.6,3.6,0,0,1,1434.84,559.28Z"/><path d="M1437.17,535.52V516.8a12.38,12.38,0,0,1-.76-3.48,3.35,3.35,0,0,1,.76-2.21v-2.6h-2.84v20.2Z"/><path d="M1452.49,522.89l-1.15,2.83v3.7l2.83-6.88v-4.38C1453.77,519.51,1453.21,521.07,1452.49,522.89Z"/><path d="M1468.35,508.37v3.39a4.52,4.52,0,0,1,.55.61c1.08,1.45,1.61,3.89,1.61,7.31V551c0,2.63-.06,4.65-.2,6.08a10.06,10.06,0,0,1-.7,3.17,5.24,5.24,0,0,1-1.26,1.76v2.42h2.83V508Z"/><path d="M1487.77,509.15l.42,0V507.9a20,20,0,0,0-2.84.42v1.15A9.35,9.35,0,0,1,1487.77,509.15Z"/><path d="M1487.37,546.61a8.65,8.65,0,0,1-2-.24v1.21a17.73,17.73,0,0,0,2.84.32v-1.34A7.37,7.37,0,0,1,1487.37,546.61Z"/><path d="M1502.36,512.58v29.9a17.72,17.72,0,0,0,2.84-3.67V516.1A17.33,17.33,0,0,0,1502.36,512.58Z"/><path d="M1521.65,525.63c0-.66.06-1.74.18-3.22h.37v-1.77h-.1c0-.27.07-.52.1-.77v-8.66c-.38.27-.77.55-1.15.84q-.88.72-1.68,1.5v29.18a16.91,16.91,0,0,0,2.83,2.26V531A26.61,26.61,0,0,1,1521.65,525.63Z"/><path d="M1536.7,510.13a9.09,9.09,0,0,1,2.51,2.36v-3.61a15.75,15.75,0,0,0-2.83-.77V510Z"/><rect x="1536.38" y="520.64" width="2.83" height="1.77"/><path d="M1537.3,545.07c-.31,0-.61,0-.92-.05v2.79a20.2,20.2,0,0,0,2.83-.44v-2.44A14.79,14.79,0,0,1,1537.3,545.07Z"/><path d="M1570.39,544.94v2.17h2.84V546A11.25,11.25,0,0,1,1570.39,544.94Z"/><rect x="1554.25" y="508.51" width="1.97" height="1.73"/><path d="M1571.82,485.33a8.09,8.09,0,0,1,1.41-.48V483.7c-.64.13-1.27.27-1.88.45-.33.09-.64.21-1,.31v1.73A7.63,7.63,0,0,1,1571.82,485.33Z"/><path d="M1554.11,546.16v1h2.11v-1.34A19.72,19.72,0,0,1,1554.11,546.16Z"/><rect x="1570.39" y="508.51" width="2.83" height="1.73"/><path d="M1606.78,510.42a16.35,16.35,0,0,0-2.37-1.06v34a10.9,10.9,0,0,0,2.51,3c.1.08.22.13.32.2V510.71C1607.09,510.61,1606.94,510.51,1606.78,510.42Z"/><path d="M1589.58,539.39a9.63,9.63,0,0,1,.66-3.59v-6.44a24.44,24.44,0,0,0-2.84,1v16.7a12.3,12.3,0,0,0,2.84.69v-5.1A8.15,8.15,0,0,1,1589.58,539.39Z"/><path d="M1589.94,515.05l.3-.68v-5.91a22.88,22.88,0,0,0-2.84.79v7.87A3.19,3.19,0,0,0,1589.94,515.05Z"/><path d="M1641.26,508.85v-1a25.85,25.85,0,0,0-2.83.27v1.29A9,9,0,0,1,1641.26,508.85Z"/><path d="M1622.77,521.05a23.07,23.07,0,0,0-1.35,6.74v2.44a19.07,19.07,0,0,0,2.83,9.43V517.79A22.58,22.58,0,0,0,1622.77,521.05Z"/><path d="M1638.43,544.76v3.06c.78.07,1.58.11,2.42.11h.41v-2.16A11.35,11.35,0,0,1,1638.43,544.76Z"/><path d="M1691.9,542a9.34,9.34,0,0,1-2.45,1.74v2.21a12.84,12.84,0,0,0,1.14-.7,11.17,11.17,0,0,0,1.69-1.44v-2.22C1692.16,541.71,1692,541.85,1691.9,542Z"/><rect x="1672.44" y="520.64" width="2.83" height="1.77"/><path d="M1675.28,509.56v-1.28a18.24,18.24,0,0,0-2.84.85v2.45A9.58,9.58,0,0,1,1675.28,509.56Z"/><path d="M1692.28,522.41V514a11.13,11.13,0,0,0-.85-1.1,14.42,14.42,0,0,0-2-1.85v11.39Z"/><path d="M1672.44,539.83v7a20.33,20.33,0,0,0,2.84.7v-5.1A14.2,14.2,0,0,1,1672.44,539.83Z"/><rect x="246.61" y="489.59" width="2.83" height="9.17"/><rect x="229.61" y="489.59" width="2.83" height="9.17"/><path d="M297.64,505.05v43.86h2.83V507.55A10.25,10.25,0,0,0,297.64,505.05Z"/><path d="M280.63,506.91v7.43a9.23,9.23,0,0,1,2.83-1.89v-7.68A11.86,11.86,0,0,0,280.63,506.91Z"/><rect x="315.38" y="489.59" width="2.1" height="10.3"/><rect x="315.38" y="505.02" width="2.1" height="43.89"/><path d="M351.41,506.54a13.42,13.42,0,0,0-2.75,3.27V521.2c.27-.65.56-1.31.9-2a7.84,7.84,0,0,1,1.94-2.43V506.47Z"/><rect x="365.67" y="505.02" width="2.83" height="7.69"/><rect x="382.68" y="505.02" width="2.83" height="7.69"/><path d="M382.68,540.83v9a26.93,26.93,0,0,0,2.83-.31v-8.29A12.06,12.06,0,0,1,382.68,540.83Z"/><path d="M419.53,513.27v-8.46a19.55,19.55,0,0,0-2.84-.53v7.33A9,9,0,0,1,419.53,513.27Z"/><path d="M399.69,509.58v35.15a18.47,18.47,0,0,0,2.83,2.19V507.26A17.82,17.82,0,0,0,399.69,509.58Z"/><path d="M416.69,541.72v7.89a22.65,22.65,0,0,0,2.84-.56v-8.48A9.52,9.52,0,0,1,416.69,541.72Z"/><rect x="416.69" y="521.79" width="2.83" height="6.39"/><path d="M450.9,535.35c-.07-.23-.13-.51-.19-.76v13.18a18,18,0,0,0,2.83,1.15v-9.53A9.43,9.43,0,0,1,450.9,535.35Z"/><path d="M453.27,513.86l.27-.26v-8.44a18.21,18.21,0,0,0-2.83,1.2v12A10.72,10.72,0,0,1,453.27,513.86Z"/><path d="M469.87,521.79h-2.15v6.39h2.83V506.57a16.93,16.93,0,0,0-2.83-1.3v9.61A11.29,11.29,0,0,1,469.87,521.79Z"/><rect x="450.71" y="521.79" width="2.83" height="6.39"/><path d="M470.48,534.91a11.62,11.62,0,0,1-2.76,4.49v9.19a18.11,18.11,0,0,0,2.83-1.28V534.92Z"/><path d="M501.73,509.21v7.38c.12-.15.22-.31.34-.45a10.67,10.67,0,0,1,2.5-2.17v-7.54A14.87,14.87,0,0,0,501.73,509.21Z"/><path d="M521.48,507.75a15.17,15.17,0,0,0-2.74-1.91v43.07h2.83v-41Z"/><polygon points="588.16 489.59 586.77 495.21 586.77 528.94 589.61 517.42 589.61 489.59 588.16 489.59"/><polygon points="603.78 507.14 603.78 546.57 604.41 548.91 606.61 548.91 606.61 517.51 603.78 507.14"/><polygon points="622.06 489.59 620.79 494.47 620.79 529.6 623.62 519 623.62 489.59 622.06 489.59"/><polygon points="554.65 489.59 555.59 493.01 555.59 489.59 554.65 489.59"/><polygon points="569.76 503.78 569.76 544.88 570.87 548.91 572.6 548.91 572.6 514.47 569.76 503.78"/><path d="M654.8,541.85v6.58a13.53,13.53,0,0,0,2.84-1.7v-6.22A9.29,9.29,0,0,1,654.8,541.85Z"/><path d="M672.08,540V520.23a42.73,42.73,0,0,0-.27-5.26v33.94h1.57A32.18,32.18,0,0,1,672.08,540Z"/><path d="M637.8,526.25v20.39a12.78,12.78,0,0,0,2.83,1.79V524.49A16.37,16.37,0,0,0,637.8,526.25Z"/><path d="M640.63,517.59V507.3c-.18.12-.37.22-.54.34a16.61,16.61,0,0,0-2.29,2v7.53Z"/><path d="M654.8,521.33V527c.9-.12,1.84-.23,2.84-.3v-5.52C656.66,521.24,655.72,521.28,654.8,521.33Z"/><path d="M657.64,511.65V504.2c-.89-.05-1.84-.09-2.84-.09v7.06A14.22,14.22,0,0,1,657.64,511.65Z"/><polygon points="707.28 505.02 705.83 509.59 705.83 532.4 708.66 524.11 708.66 505.02 707.28 505.02"/><polygon points="691.65 544.85 691.65 516.41 688.82 508.71 688.82 537.1 691.65 544.85"/><path d="M689.83,555.58a5,5,0,0,1-1,.49v8.39a10.89,10.89,0,0,0,2.83-.86V553.28A5.71,5.71,0,0,1,689.83,555.58Z"/><path d="M739.84,541.88v7.55a25.51,25.51,0,0,0,2.84-.62v-8.26A7.28,7.28,0,0,1,739.84,541.88Z"/><path d="M722.83,537.59v9.34c.11.05.2.12.31.17a22.13,22.13,0,0,0,2.53,1.13V537.05Z"/><path d="M725.67,529.28V505.93a12.37,12.37,0,0,0-2.84,1.87v19.82A16.19,16.19,0,0,0,725.67,529.28Z"/><path d="M739.84,532.66a7.78,7.78,0,0,1,2.84,1.3V522.7l-2.84-.59Z"/><path d="M742.68,514.9v-9.77a22.76,22.76,0,0,0-2.84-.66v7.6A6,6,0,0,1,742.68,514.9Z"/><path d="M792.1,526.92a22.29,22.29,0,0,1,1.6-8.95V505.79a17.15,17.15,0,0,0-2.83,1.6v39.45a16.65,16.65,0,0,0,2.83,1.51V536A22.24,22.24,0,0,1,792.1,526.92Z"/><path d="M807.87,539.67v9.27a18.46,18.46,0,0,0,2.84-1.13V535.28A10.1,10.1,0,0,1,807.87,539.67Z"/><path d="M809.53,516.12a13.52,13.52,0,0,1,1.18,2.51V505.9a18.14,18.14,0,0,0-2.84-1v9.31A8.12,8.12,0,0,1,809.53,516.12Z"/><path d="M842.56,505a32.12,32.12,0,0,1,.28-5.41,3.76,3.76,0,0,1,1.76-2.31l.12-.07v-8.42a22.15,22.15,0,0,0-2.83.49v59.61h.67v-36.2h2.16V505Z"/><rect x="826.48" y="505.02" width="1.24" height="7.69"/><polygon points="893.66 539.22 893.66 489.59 892.91 489.59 892.91 548.91 895.75 548.91 895.75 539.22 893.66 539.22"/><rect x="909.92" y="539.22" width="2.83" height="9.69"/><path d="M944,512.23a10.15,10.15,0,0,1,2.78.38v-8.32a22.23,22.23,0,0,0-2.74-.19h-.09v8.12Z"/><path d="M929.06,510.58a22,22,0,0,0-2.13,2.9v26.88a25.09,25.09,0,0,0,1.59,2.46,16.9,16.9,0,0,0,1.24,1.51V509.85C929.53,510.1,929.28,510.32,929.06,510.58Z"/><path d="M960.94,513.7V540a22.67,22.67,0,0,0,2.84-8V521.68A22.78,22.78,0,0,0,960.94,513.7Z"/><path d="M943.94,541.64v8.16a25.9,25.9,0,0,0,2.83-.24v-8.34A10.5,10.5,0,0,1,943.94,541.64Z"/><path d="M995,540.8v8.58a19.3,19.3,0,0,0,2.84-.82v-10A7.85,7.85,0,0,1,995,540.8Z"/><path d="M978,508.77v36.66a16.26,16.26,0,0,0,2.84,2.05V506.7A17.17,17.17,0,0,0,978,508.77Z"/><path d="M997.8,515.26V505.18a19.07,19.07,0,0,0-2.84-.73V513A7.77,7.77,0,0,1,997.8,515.26Z"/><polygon points="1046.63 519.53 1048.82 517.13 1048.82 505.43 1045.98 508.51 1045.98 539.32 1048.82 545.01 1048.82 523.94 1046.63 519.53"/><path d="M1029.81,526.4V489.59H1029v59.32h.83V537.3l2-2.23V523.92C1031.32,524.47,1030.65,525.3,1029.81,526.4Z"/><path d="M1114,504.26v10.82c1.25,1.47,1.88,3.6,1.88,6.41v27.42h.95v-44A14.57,14.57,0,0,0,1114,504.26Z"/><path d="M1098.52,515.18V505H1097v43.89h2.38V526.35a23.49,23.49,0,0,1,.45-4.81v-9.09Q1099.15,513.72,1098.52,515.18Z"/><path d="M1167.87,527.4V498.17a8.89,8.89,0,0,0-2.83,2.89V529A16.2,16.2,0,0,0,1167.87,527.4Z"/><path d="M1165,548.08a8.54,8.54,0,0,1,1.49.63,4,4,0,0,1,1.34,1.16v-11.2a18.91,18.91,0,0,0-2.83-.4Z"/><path d="M1149.3,512.45a6.5,6.5,0,0,1,1.57-1.12v-7a25.74,25.74,0,0,0-2.84.5v9.26A7,7,0,0,1,1149.3,512.45Z"/><path d="M1148,556.65v7.61c.9.1,1.85.18,2.84.25v-7.14A18.08,18.08,0,0,1,1148,556.65Z"/><path d="M1165,556.68v6.88a24.09,24.09,0,0,0,2.83-.89v-8.22A5.73,5.73,0,0,1,1165,556.68Z"/><path d="M1150.87,524a6.5,6.5,0,0,1-1.59-1.09,6.74,6.74,0,0,1-1.25-1.59v8.44c1,.23,1.93.41,2.84.56Z"/><path d="M1133.68,552.78a11.24,11.24,0,0,0,.18,2V551A9.36,9.36,0,0,0,1133.68,552.78Z"/><path d="M1150.41,538.22a9.45,9.45,0,0,1-2.38-.29v9.38a23.34,23.34,0,0,0,2.84.27v-9.36Z"/><path d="M1233.07,505v39.22a32,32,0,0,0,1.08,4.7h1.76V506.1A14,14,0,0,0,1233.07,505Z"/><path d="M1216.06,541v8.75c.56,0,1.12.07,1.71.07.38,0,.76,0,1.13,0v-7.65A7.13,7.13,0,0,1,1216.06,541Z"/><path d="M1218.9,511.64v-7.13a25.5,25.5,0,0,0-2.84.56v7.87A9.06,9.06,0,0,1,1218.9,511.64Z"/><path d="M1218.9,522c-1,.17-1.94.37-2.84.59v7.61a11.32,11.32,0,0,1,2.84-1.63Z"/><path d="M1267.09,540.32v9.52l.52,0a18.82,18.82,0,0,0,2.31-.16v-8.56A7.42,7.42,0,0,1,1267.09,540.32Z"/><rect x="1267.09" y="505.02" width="2.83" height="7.69"/><rect x="1250.08" y="505.02" width="2.83" height="7.69"/><path d="M1302.29,536.3a13.27,13.27,0,0,0,1.65,6.66V529.71A12.85,12.85,0,0,0,1302.29,536.3Z"/><path d="M1337.4,507.82a11.61,11.61,0,0,0-2.28-1.62v42.71H1338V508.37C1337.77,508.19,1337.6,508,1337.4,507.82Z"/><path d="M1320.94,511.15v-7c-1,.06-1.93.16-2.83.29v7.11A15.69,15.69,0,0,1,1320.94,511.15Z"/><path d="M1320.24,542.35a12.73,12.73,0,0,1-2.13-.18v7.61a17.91,17.91,0,0,0,2.83-.37v-7.09C1320.71,542.33,1320.48,542.35,1320.24,542.35Z"/><path d="M1318.11,522v6.52a20.5,20.5,0,0,1,2.83-.9v-6C1320,521.7,1319,521.83,1318.11,522Z"/><path d="M1303.68,516.66l.26,0v-1.43A12.63,12.63,0,0,0,1303.68,516.66Z"/><rect x="1369.47" y="489.59" width="2.49" height="9.17"/><rect x="1403.15" y="489.59" width="2.83" height="9.17"/><rect x="1386.14" y="489.59" width="2.83" height="59.32"/><polygon points="1438.31 505.02 1437.16 508.63 1437.16 531.51 1440 523.22 1440 505.02 1438.31 505.02"/><polygon points="1422.99 545.68 1422.99 517.24 1420.16 509.54 1420.16 537.93 1422.99 545.68"/><path d="M1420.86,555.58a4.19,4.19,0,0,1-.7.37v8.46a10.49,10.49,0,0,0,2.83-1V552.56A6.31,6.31,0,0,1,1420.86,555.58Z"/><path d="M1472,542a8.08,8.08,0,0,1-.85,0v7.42a15.81,15.81,0,0,0,2.84.39v-8A9.05,9.05,0,0,1,1472,542Z"/><rect x="1454.17" y="505.02" width="2.83" height="58.71"/><path d="M1472.34,512.23a7.65,7.65,0,0,1,1.68.19v-8.23a15.19,15.19,0,0,0-2.84.55v7.58A7.36,7.36,0,0,1,1472.34,512.23Z"/><path d="M1488.19,511.83v29.88a28.48,28.48,0,0,0,2.83-8.08V519.57A25,25,0,0,0,1488.19,511.83Z"/><rect x="1522.2" y="521.79" width="2.83" height="6.39"/><path d="M1522.2,541.55v8a20.66,20.66,0,0,0,2.84-.63V540.1A8.87,8.87,0,0,1,1522.2,541.55Z"/><path d="M1505.2,508.9v36.47a18.35,18.35,0,0,0,2.83,2V506.8A17.88,17.88,0,0,0,1505.2,508.9Z"/><path d="M1525,513.94v-9a20.67,20.67,0,0,0-2.84-.61v7.53A9.1,9.1,0,0,1,1525,513.94Z"/><path d="M1558.47,505a32.12,32.12,0,0,1,.28-5.41,2.83,2.83,0,0,1,.31-.79V489a17.27,17.27,0,0,0-2.84.73v59.14h2.25v-36.2h.59V505Z"/><path d="M1590.24,521.72v6.19a27,27,0,0,1,2.83-.65v-5.84C1592.09,521.5,1591.15,521.6,1590.24,521.72Z"/><path d="M1592.8,511.1h.27v-7c-1,0-1.93.07-2.83.15v7A20.32,20.32,0,0,1,1592.8,511.1Z"/><path d="M1590.67,542.35l-.43,0v7.28a16.7,16.7,0,0,0,2.83-.65v-6.81A14,14,0,0,1,1590.67,542.35Z"/><path d="M1607.84,507.82c-.19-.17-.4-.32-.6-.48v41.57h2.84V510.53A11.86,11.86,0,0,0,1607.84,507.82Z"/><path d="M1574.11,516.66l2,.29V511.4A12.32,12.32,0,0,0,1574.11,516.66Z"/><path d="M1573.23,532.48v7.69a12.43,12.43,0,0,0,2.83,5.13V527.52A11.47,11.47,0,0,0,1573.23,532.48Z"/><path d="M1644.09,512.78V504.4a22.83,22.83,0,0,0-2.83-.27v8.11A8.58,8.58,0,0,1,1644.09,512.78Z"/><path d="M1641.26,541.12v8.64a17.23,17.23,0,0,0,2.83-.44v-9.05A7.54,7.54,0,0,1,1641.26,541.12Z"/><path d="M1626.13,510.58a22.85,22.85,0,0,0-1.88,2.7V541a22.36,22.36,0,0,0,1.43,2.2,16.36,16.36,0,0,0,1.41,1.67V509.54C1626.76,509.88,1626.44,510.21,1626.13,510.58Z"/><path d="M1676.76,540a10.61,10.61,0,0,1-1.48-1.43v10a19.62,19.62,0,0,0,2.83.78v-8.51A8,8,0,0,1,1676.76,540Z"/><path d="M1675.76,513.86a9.15,9.15,0,0,1,2.35-1.76v-7.49a18.19,18.19,0,0,0-2.83.83v9A6.3,6.3,0,0,1,1675.76,513.86Z"/><path d="M1693,534.91a15.71,15.71,0,0,1-.69,1.6v11.22a17.25,17.25,0,0,0,2.84-1.76V535.21Z"/><path d="M1692.36,521.79h-.08v6.39h2.84V508.05a15.66,15.66,0,0,0-2.84-1.87v14.27A11.76,11.76,0,0,1,1692.36,521.79Z"/><rect x="1675.28" y="521.79" width="2.83" height="6.39"/><path d="M234.29,496c.34,0,.67,0,1,0v-3.81h-2.84v3.83C232.9,496.05,233.51,496,234.29,496Z"/><path d="M215.44,492.25v4.4a17.07,17.07,0,0,1,2.84-.49v-3.91Z"/><path d="M216.93,542.82v3.24h1.35V542.8Z"/><polygon points="249.46 497.79 249.46 507.33 252.3 506.32 252.3 505.7 249.46 497.79"/><path d="M233.46,542.57a3.73,3.73,0,0,1-1-.39v3.88h2.84v-3.3A13.3,13.3,0,0,1,233.46,542.57Z"/><path d="M300.49,546.06H302v-3.24l-1.5,0Z"/><path d="M268.2,541.4a7.11,7.11,0,0,1-.39-2.9V519.18c.5-.43,1-.82,1.5-1.2v-4.21q-.75.57-1.5,1.2v-25.5h-1.34v56.59h2.84V542.4A2.23,2.23,0,0,1,268.2,541.4Z"/><path d="M286.21,514.28l.1.09v-6.2a15.44,15.44,0,0,0-2.78-.26h0v5.21A6.64,6.64,0,0,1,286.21,514.28Z"/><path d="M283.51,542.82h0v3.24h2.83v-3.42A16.77,16.77,0,0,1,283.51,542.82Z"/><path d="M320.08,541.28a5,5,0,0,1-.46-2.43V507.91H317.5v38.15h2.83V541.6A3.92,3.92,0,0,1,320.08,541.28Z"/><path d="M319.42,498.12a4.36,4.36,0,0,0,.91-1.31v-3.7a4.2,4.2,0,0,0-.91-1.3,4.31,4.31,0,0,0-1.92-1.11v8.54A4.33,4.33,0,0,0,319.42,498.12Z"/><path d="M351.52,509v4.72a5.36,5.36,0,0,1,.88-.09,4.87,4.87,0,0,1,2,.51v-6A14.54,14.54,0,0,0,351.52,509Z"/><path d="M335.42,510.22l-.91.26v3.87h2.58v22.76a9.7,9.7,0,0,1-.48,3.69,3.6,3.6,0,0,1-1.49,1.6,2.68,2.68,0,0,1-.61.21v3.45h2.83V509.47A18.38,18.38,0,0,1,335.42,510.22Z"/><path d="M370.15,507.18a10.42,10.42,0,0,1-1.63,1v4.52h2.84v-6.64A11.63,11.63,0,0,1,370.15,507.18Z"/><rect x="385.53" y="508.84" width="2.83" height="3.86"/><path d="M385.53,542.78v3.56a19,19,0,0,0,2.84-1.09v-3.58A13.52,13.52,0,0,1,385.53,542.78Z"/><rect x="419.55" y="520.53" width="2.83" height="3.59"/><path d="M421.41,541.61a14.76,14.76,0,0,1-1.86.75v4l.71-.2a13.88,13.88,0,0,0,2.13-.94v-4.2C422.05,541.26,421.72,541.45,421.41,541.61Z"/><path d="M421.66,515.28a8,8,0,0,1,.73,1.52v-7.19c-.28-.14-.54-.29-.82-.41a14.47,14.47,0,0,0-2-.66v4.57A7.26,7.26,0,0,1,421.66,515.28Z"/><path d="M404.75,535.61a21.09,21.09,0,0,1-1.7-8.67c0-.62,0-1.56.12-2.83h2.21v-3.58h-1.63a18.85,18.85,0,0,1,1.63-3.93V510c-.26.13-.52.26-.77.41a18.9,18.9,0,0,0-2.07,1.42v31.09a20.64,20.64,0,0,0,2.56,1.76,2.49,2.49,0,0,0,.28.15v-8C405.16,536.47,405,536.06,404.75,535.61Z"/><rect x="453.57" y="520.53" width="2.83" height="3.59"/><path d="M470.58,537.13v2.37c.4-.44.8-.9,1.21-1.38Z"/><path d="M439.12,517.21a21.46,21.46,0,0,0-2.35,10.41,20.12,20.12,0,0,0,2.43,10.11l.19.32V516.74Z"/><path d="M455.36,511.58c.36,0,.7,0,1,.05V508c-.31,0-.61,0-.93,0-.65,0-1.28,0-1.9.09v3.74A10.54,10.54,0,0,1,455.36,511.58Z"/><path d="M471.52,524.11a21.67,21.67,0,0,0-.62-5.08c-.09-.32-.21-.64-.32-.95v6Z"/><path d="M453.57,542.62v4.26c.73.07,1.47.11,2.25.11l.58,0v-4A12.39,12.39,0,0,1,453.57,542.62Z"/><path d="M490.23,515.24v-7.33h-2.64v38.15h2.83v-31Z"/><path d="M505.93,542.82h-1.08v3.24h2.58v-3.29C507,542.8,506.49,542.82,505.93,542.82Z"/><path d="M521.6,542.73v3.33h2.84v-3.24C523.29,542.82,522.34,542.79,521.6,542.73Z"/><path d="M506.22,507.91c-.55,0-1.09,0-1.63.09v4.84a8.7,8.7,0,0,1,2.84.53V508C507,507.94,506.63,507.91,506.22,507.91Z"/><polygon points="606.65 529.38 606.65 543.28 609.48 534.61 609.48 520.21 606.65 529.38"/><polygon points="572.63 518.99 572.63 542.42 573.8 546.06 575.46 546.06 575.46 528.2 572.63 518.99"/><polygon points="589.64 492.25 589.64 514.26 589.8 513.77 592.47 522.12 592.47 492.25 589.64 492.25"/><path d="M623.66,492.25v3.68l0,0a7.45,7.45,0,0,1,2.79-.4v-3.25Z"/><path d="M555.62,492.25v3.56a4.72,4.72,0,0,1,1,.42,6,6,0,0,1,1.83,2.4v-6.38Z"/><path d="M643.5,530v-4c-1,.24-2,.5-2.84.76v4.71c.2-.15.4-.3.63-.44A11.25,11.25,0,0,1,643.5,530Z"/><path d="M641.25,541.47a5.66,5.66,0,0,1-.59-.34v5.45a17,17,0,0,0,2.17.14l.67,0v-4.5A7.3,7.3,0,0,1,641.25,541.47Z"/><path d="M641.4,515.59a5.7,5.7,0,0,1,1.45-2.06,5.34,5.34,0,0,1,.65-.5v-4.3a19.1,19.1,0,0,0-2.39.78l-.45.2v8.43C641.05,516.69,641.29,515.83,641.4,515.59Z"/><path d="M658.72,509.44a10.82,10.82,0,0,0-1.05-.38v6.49a9.57,9.57,0,0,1,.74,4v4.21l-.74.08v3.38l.72-.11v9.34l-.72.49V541l1.09-.83a7.6,7.6,0,0,0,1.54,3.53l.21.23V510.38A11.63,11.63,0,0,0,658.72,509.44Z"/><path d="M691.69,527.16v15.51l1.54,3.44-1.54,3.65v7.74a49,49,0,0,0,2.83-5.24V533.8Z"/><path d="M708.7,508.84v10.42l.57-1.33a30.71,30.71,0,0,1,2.08-4.29c.06-.09.12-.16.18-.24v-4.56Z"/><path d="M677,555.24a4.09,4.09,0,0,0-1.74-.38,3.31,3.31,0,0,0-.55,0v7.35a8.78,8.78,0,0,0,2.84,1.22v-7.9A3.79,3.79,0,0,0,677,555.24Z"/><rect x="691.69" y="508.84" width="0.23" height="3.24"/><path d="M676.35,512.23a3.21,3.21,0,0,1,1.17.63v-4h-2.84v3.26A8.57,8.57,0,0,1,676.35,512.23Z"/><path d="M728.54,526.71v-8a4,4,0,0,1-.73-2.34,3.71,3.71,0,0,1,.73-2.21v-5.26a12.69,12.69,0,0,0-2.83,1.54v14.66A22.71,22.71,0,0,0,728.54,526.71Z"/><path d="M745.12,541.41a7.32,7.32,0,0,1-2.4,1.33v4a16.75,16.75,0,0,0,2.83-.72v-5A4,4,0,0,1,745.12,541.41Z"/><path d="M725.71,535.24v10.82h1.91l.81-2.78.11.09v-4.84A29,29,0,0,1,725.71,535.24Z"/><path d="M745.55,517.71v-8.87h-.31l-1,2.32c-.49-.38-1-.71-1.48-1v4.69A16.84,16.84,0,0,1,745.55,517.71Z"/><path d="M742.72,532.08a12.2,12.2,0,0,1,2.83,1.66v-7.48c-.86-.39-1.81-.76-2.83-1.13Z"/><path d="M793.74,532.72v11.41a15.32,15.32,0,0,0,2.84,1.49v-5.87A15.5,15.5,0,0,1,793.74,532.72Z"/><path d="M810.75,541.62v4.56a18.44,18.44,0,0,0,2.84-1v-6.72A10.77,10.77,0,0,1,810.75,541.62Z"/><path d="M796.58,515.91V509.6c-.53.23-1.05.48-1.56.76s-.86.52-1.28.8V522.9A16,16,0,0,1,796.58,515.91Z"/><path d="M813.59,516.49v-6.83a17.72,17.72,0,0,0-2.84-1v4.88A10.32,10.32,0,0,1,813.59,516.49Z"/><rect x="829.49" y="542.82" width="1.11" height="3.24"/><path d="M844.78,494.47a3.67,3.67,0,0,1,2.3-.79,4.91,4.91,0,0,1,.53,0v-4a15.72,15.72,0,0,0-2.84.69v4.11Z"/><rect x="829.49" y="508.84" width="1.11" height="3.93"/><path d="M844.77,542.64v3.42h2.84v-3.24A16.25,16.25,0,0,1,844.77,542.64Z"/><rect x="844.77" y="508.84" width="2.83" height="3.93"/><path d="M896.8,495.92a5.6,5.6,0,0,1,1.83-.37v-3.3H895.8v4.42A2.83,2.83,0,0,1,896.8,495.92Z"/><rect x="881.02" y="542.82" width="0.6" height="3.24"/><rect x="881.02" y="492.25" width="0.6" height="3.24"/><path d="M912.81,539.59v6.47h2.83v-8.35A17.38,17.38,0,0,1,912.81,539.59Z"/><path d="M896.22,541.7a1.69,1.69,0,0,1-.42-.23v4.59h2.83v-4.13A8.42,8.42,0,0,1,896.22,541.7Z"/><path d="M963.83,517.82v19.12a21.42,21.42,0,0,0,2.06-9.51A21.83,21.83,0,0,0,963.83,517.82Z"/><path d="M946.87,543.52h0V547a26,26,0,0,0,2.84-.16v-3.67A11.05,11.05,0,0,1,946.87,543.52Z"/><path d="M946.83,511.65a11.37,11.37,0,0,1,2.83.37v-4c-.82-.08-1.65-.13-2.52-.13h-.32v3.74Z"/><path d="M930.4,517.27c-.21.38-.4.77-.59,1.17v18.1a21.07,21.07,0,0,0,2.84,4.61V514A17.87,17.87,0,0,0,930.4,517.27Z"/><path d="M983.63,515.13l0,0v-5.77a18.14,18.14,0,0,0-2.23,1.05l-.61.37v9.42A13.91,13.91,0,0,1,983.63,515.13Z"/><path d="M1000.68,517.71V510a16.53,16.53,0,0,0-2.83-1.18V514A10.57,10.57,0,0,1,1000.68,517.71Z"/><path d="M983.05,539.81a13.8,13.8,0,0,1-2.21-4.33v9.08a16.33,16.33,0,0,0,2.84,1.3v-5.35A8.47,8.47,0,0,1,983.05,539.81Z"/><path d="M997.85,541.08V546a16.59,16.59,0,0,0,2.83-1.2v-7.6A12.06,12.06,0,0,1,997.85,541.08Z"/><path d="M1051,515.4l.68-.49v-6.07h-2.83v8.22Z"/><polygon points="1048.88 533.8 1048.88 546.06 1051.71 546.06 1051.71 536.89 1048.88 533.8"/><path d="M1015.57,492.71v3.21h2.12v-3.49A19.56,19.56,0,0,1,1015.57,492.71Z"/><polygon points="1034.7 527.74 1034.7 523.23 1031.87 525.47 1031.87 529.88 1034.7 527.74"/><path d="M1015.57,542.82v3.24h2.12v-3.29Z"/><path d="M1034,542.82a17.52,17.52,0,0,1-2.1-.11v3.35h2.83v-3.24Z"/><rect x="1082.89" y="542.82" width="1.69" height="3.24"/><path d="M1066.41,542.82h-.53v3.24h2.84v-3.38A16,16,0,0,1,1066.41,542.82Z"/><path d="M1068.72,514.35v-3.86c-.86.2-1.8.37-2.84.52v3.34Z"/><path d="M1102.46,540.93a11.59,11.59,0,0,1-.44-4V519.14c.23-.23.48-.42.72-.63v-4.15l-1.07.88v-7.33h-1.77v38.15h2.84v-4.63A3.05,3.05,0,0,1,1102.46,540.93Z"/><path d="M1119.75,513.8v-5.74a15.69,15.69,0,0,0-2.09-.15c-.25,0-.5,0-.75,0v4.95A7.3,7.3,0,0,1,1119.75,513.8Z"/><path d="M1117.37,542.82h-.46v3.24h2.84v-3.37A17.59,17.59,0,0,1,1117.37,542.82Z"/><path d="M1133.92,546.06h2.2v-3.24c-.84,0-1.57,0-2.2,0Z"/><path d="M1152.67,514.23a10.71,10.71,0,0,1,1.09-1v-4.65a17,17,0,0,0-2.83,1v7.12A9.39,9.39,0,0,1,1152.67,514.23Z"/><path d="M1168.29,521a11.12,11.12,0,0,1-.35,2.74V532a15,15,0,0,0,2.62-1.82l.21-.2V511.84a20.86,20.86,0,0,0-2.83-1.95v8.22A11.64,11.64,0,0,1,1168.29,521Z"/><path d="M1168.57,559l-.63.16V563c1-.2,1.94-.41,2.83-.68v-4.1A18.58,18.58,0,0,1,1168.57,559Z"/><path d="M1153.76,533.19v-4.45a8.67,8.67,0,0,1-2.52-2.86c-.12-.22-.21-.44-.31-.67v7.72l.7-.5C1152.34,532.73,1153.05,533,1153.76,533.19Z"/><path d="M1152.17,559.26c-.45-.14-.85-.3-1.24-.46v4.41c.88.17,1.82.31,2.83.42v-4C1153.2,559.55,1152.67,559.41,1152.17,559.26Z"/><path d="M1153.76,545.11v-5.8a24.75,24.75,0,0,1-2.83-.68v8.16c.6-.57,1.26-1.17,2-1.81Z"/><path d="M1167.94,541.5v6q1.21.28,2.52.69l.31.1v-6.08C1169.83,541.92,1168.88,541.69,1167.94,541.5Z"/><path d="M1221.8,530v-4c-1,.24-2,.49-2.84.75v4.69c.19-.14.38-.28.59-.41A12.29,12.29,0,0,1,1221.8,530Z"/><path d="M1219.67,515.59a5.58,5.58,0,0,1,1.45-2.06,4.52,4.52,0,0,1,.68-.52v-4.29a21.43,21.43,0,0,0-2.42.79l-.42.19V518C1219.33,516.64,1219.56,515.83,1219.67,515.59Z"/><path d="M1237,509.44c-.32-.14-.68-.25-1-.37v6.55a9.64,9.64,0,0,1,.71,3.9v4.21l-.7.08v3.38l.68-.11v9.34l-.68.47V541l1.06-.81a7.5,7.5,0,0,0,1.54,3.53c.07.09.16.17.24.26V510.4A12,12,0,0,0,1237,509.44Z"/><path d="M1219.52,541.47c-.2-.1-.38-.21-.56-.32v5.43a16.37,16.37,0,0,0,2.14.14c.23,0,.46,0,.7,0V542.2A7.15,7.15,0,0,1,1219.52,541.47Z"/><rect x="1269.99" y="508.84" width="2.83" height="3.86"/><path d="M1272.75,543.09a5.07,5.07,0,0,1-2.76-.78V547c.21,0,.4,0,.61,0a16.61,16.61,0,0,0,2.23-.17v-3.73Z"/><path d="M1254.42,509.46v3.24h1.4v-3.62C1255.37,509.22,1254.91,509.35,1254.42,509.46Z"/><path d="M1338.09,509.44l-.06,0v30.83l.1-.08a7.6,7.6,0,0,0,1.54,3.53,6.87,6.87,0,0,0,1.19,1.16V511.07A12.26,12.26,0,0,0,1338.09,509.44Z"/><path d="M1321,541.65v5c.38,0,.77,0,1.18,0s1.1,0,1.65-.08v-4.36A7.25,7.25,0,0,1,1321,541.65Z"/><path d="M1322.22,513.53a6.18,6.18,0,0,1,1.63-1v-4a18.64,18.64,0,0,0-2.83.82v5.74A5.84,5.84,0,0,1,1322.22,513.53Z"/><path d="M1323,526c-.69.16-1.34.32-2,.5v4.34a15.6,15.6,0,0,1,2.83-1.16v-3.87Z"/><path d="M1389.05,492.25v5.13c.17-.09.34-.19.52-.27a11.58,11.58,0,0,1,2.32-.67v-4.19Z"/><path d="M1407.45,541.86a3.21,3.21,0,0,1-.83-1.43,14.49,14.49,0,0,1-.29-3.59V499.5a11.65,11.65,0,0,1,.17-2.7,1.06,1.06,0,0,1,.6-.59,7.07,7.07,0,0,1,1.8-.17v-3.79h-2.84v53.81h2.84v-3.5A3,3,0,0,1,1407.45,541.86Z"/><path d="M1423.07,492.59v11.76c.5,1,1,2,1.43,3.14l1.4-.5V500.5Z"/><path d="M1425.89,558.18c0,.11,0,.22,0,.33v-.57C1425.9,558,1425.89,558.09,1425.89,558.18Z"/><path d="M1442.7,555.21a8.76,8.76,0,0,1-2.62,3h0v4.19l.5-.25a12.51,12.51,0,0,0,2.33-1.76v-5.62C1442.84,554.94,1442.78,555.07,1442.7,555.21Z"/><path d="M1442.91,537.29V521.52l-1.69-4a10.9,10.9,0,0,1-1-3.51,2,2,0,0,1,.35-1.22,1.66,1.66,0,0,1,.85-.64,9,9,0,0,1,1.53-.1v-3.25h-2.83v22.1Z"/><path d="M1459.29,512.48a1.33,1.33,0,0,1,.63,1v-4.68h-2.83v3.26A5.28,5.28,0,0,1,1459.29,512.48Z"/><path d="M1458.48,518.48l-1.39,3.38v9.63l2.83-6.62V514.12A20.71,20.71,0,0,1,1458.48,518.48Z"/><path d="M1508.11,510.45v13.7a27.07,27.07,0,0,1,.21,3.47,25.3,25.3,0,0,1-.21,3.35v12.8a17.3,17.3,0,0,0,2.37-2.18c.17-.19.31-.39.47-.58v-28.1A16.64,16.64,0,0,0,1508.11,510.45Z"/><path d="M1491.16,541.74l-.06,0v3.9a17.72,17.72,0,0,0,2.84.91v-3.86A10.94,10.94,0,0,1,1491.16,541.74Z"/><path d="M1492.22,514.05a18,18,0,0,1,1.72-.68v-4.31l-.47.16a20.18,20.18,0,0,0-2.37,1.19v4.19C1491.48,514.41,1491.86,514.21,1492.22,514.05Z"/><path d="M1476.93,514.35v-3.77a15.17,15.17,0,0,1-2.83.49v3.28Z"/><path d="M1492.23,563.27V560h-1.13v3.25Z"/><path d="M1474.1,560h0v3.24h2.83v-3.45A14.07,14.07,0,0,1,1474.1,560Z"/><rect x="1542.13" y="520.53" width="2.83" height="3.59"/><path d="M1545,512.49v-4.21a20.89,20.89,0,0,0-2.84-.32v3.71A9,9,0,0,1,1545,512.49Z"/><path d="M1542.13,543v4a19,19,0,0,0,2.84-.31v-4A12.32,12.32,0,0,1,1542.13,543Z"/><path d="M1525.12,516.25v22.27a17.57,17.57,0,0,0,2.84,3.42V512.79A17.65,17.65,0,0,0,1525.12,516.25Z"/><rect x="1576.15" y="508.84" width="2.83" height="3.93"/><path d="M1577.29,542.48a2.25,2.25,0,0,1-1.14-1.19v4.77H1579v-3.29A5.77,5.77,0,0,1,1577.29,542.48Z"/><path d="M1576.31,496.78a5,5,0,0,1,1.58-2.31,3.9,3.9,0,0,1,1.09-.6V490a14,14,0,0,0-2.83,1.1v6.22C1576.2,497.15,1576.25,497,1576.31,496.78Z"/><path d="M1613,513.09v-4.63a20.43,20.43,0,0,0-2.83-.44v3.92A9,9,0,0,1,1613,513.09Z"/><path d="M1595.38,536.34a5.5,5.5,0,0,1,.61-2.51v-6.36a15.9,15.9,0,0,0-2.74,1.35l-.09.06v16a11.6,11.6,0,0,0,2.83,1.23v-7.38A5.27,5.27,0,0,1,1595.38,536.34Z"/><path d="M1610.17,540v4.2a32.89,32.89,0,0,0,2.83-1.69v-4.17C1612,539,1611,539.51,1610.17,540Z"/><path d="M1610.17,524.4v3.54l2.83-.43v-3.46Z"/><path d="M1627.18,543.23v3.38a23.3,23.3,0,0,0,2.83-.51v-3.32A12.39,12.39,0,0,1,1627.18,543.23Z"/><path d="M1594.34,522.34a3.19,3.19,0,0,0,1.65-.43V510.8a11.87,11.87,0,0,0-2.83,2.33v9A3.69,3.69,0,0,0,1594.34,522.34Z"/><path d="M1663.12,540.05a18.47,18.47,0,0,1-1.93,1.18v4a20.62,20.62,0,0,0,2.84-1.61v-4.3C1663.68,539.62,1663.38,539.87,1663.12,540.05Z"/><path d="M1662.46,517.83a11.28,11.28,0,0,0,1.12,2.16,6,6,0,0,0,.45.43v-10a16.34,16.34,0,0,0-2.84-1.32v6.3A26.8,26.8,0,0,1,1662.46,517.83Z"/><path d="M1645.88,539.16a13.75,13.75,0,0,1-1.7-2.31v7.95A17.36,17.36,0,0,0,1647,546v-5.75A13.21,13.21,0,0,1,1645.88,539.16Z"/><path d="M1647,514v-5a19.82,19.82,0,0,0-2.84,1.2v7.11A12,12,0,0,1,1647,514Z"/><path d="M1678.2,516.55v21.69a18.24,18.24,0,0,0,2.84,3.54V513A17.49,17.49,0,0,0,1678.2,516.55Z"/><rect x="1695.21" y="520.53" width="2.83" height="3.59"/><path d="M1698.05,512.41v-4.17a21,21,0,0,0-2.84-.28v3.68A9.18,9.18,0,0,1,1698.05,512.41Z"/><path d="M1695.37,543h-.16v4a19.07,19.07,0,0,0,2.84-.29v-4A12.18,12.18,0,0,1,1695.37,543Z"/><rect x="235.28" y="489.08" width="2.83" height="8.38"/><rect x="218.27" y="489.08" width="2.83" height="8.38"/><path d="M270.81,511a13.27,13.27,0,0,0-1.52.91v6.81a9.72,9.72,0,0,1,1.38-.79,11,11,0,0,1,1.46-.56v-6.95A12,12,0,0,0,270.81,511Z"/><path d="M287.19,510.52c-.28-.13-.59-.22-.89-.33v39.65h2.83V511.65A11.87,11.87,0,0,0,287.19,510.52Z"/><path d="M305.18,493.48a5.43,5.43,0,0,0,1,3.15v-6.24A5.24,5.24,0,0,0,305.18,493.48Z"/><path d="M354.33,510.88v.2l.07-.17Z"/><path d="M337.32,516.61v13.3c.18-4.25.81-7.39,1.89-9.39a7.84,7.84,0,0,1,1-1.34v-7.32A14,14,0,0,0,337.32,516.61Z"/><rect x="354.78" y="510.5" width="2.39" height="7.89"/><rect x="371.34" y="510.5" width="2.83" height="7.89"/><path d="M405.35,543v8.33a25.56,25.56,0,0,0,2.84-.39v-8.64A13,13,0,0,1,405.35,543Z"/><path d="M408.19,517.58v-8a24.93,24.93,0,0,0-2.84-.39v7.68A12.05,12.05,0,0,1,408.19,517.58Z"/><path d="M388.35,515v31a17.69,17.69,0,0,0,2.83,2.3V512.58A19.2,19.2,0,0,0,388.35,515Z"/><path d="M422.8,539.72l-.44-.25v1C422.51,540.21,422.66,540,422.8,539.72Z"/><rect x="405.35" y="525.44" width="2.83" height="6.06"/><path d="M422.36,531.5h.86v-1.7a28,28,0,0,0-.86-7.1Z"/><path d="M442.2,531.5v-6.06h-2.59a12.84,12.84,0,0,1,2.59-5.37v-9.49a18.31,18.31,0,0,0-2.83,1.43V531.5Z"/><path d="M457.42,541.38a11.45,11.45,0,0,1-1,.56v8.83a20.32,20.32,0,0,0,2.83-.91V540A11.81,11.81,0,0,1,457.42,541.38Z"/><path d="M439.37,534.16v14.66a18.67,18.67,0,0,0,2.83,1.31V540A11.88,11.88,0,0,1,439.37,534.16Z"/><path d="M457.91,519a7.91,7.91,0,0,1,1.3,1.35v-9.68a20.3,20.3,0,0,0-2.83-.87V518A7.91,7.91,0,0,1,457.91,519Z"/><rect x="456.38" y="525.44" width="2.83" height="6.06"/><path d="M507.4,509.44v10.81c.9,1.89,1.36,5,1.36,9.38v20.21h1.48V510.21A15.93,15.93,0,0,0,507.4,509.44Z"/><path d="M490.39,514.3v7.34c.09-.14.17-.3.27-.43a9,9,0,0,1,2.57-2.54v-6.81A16.56,16.56,0,0,0,490.39,514.3Z"/><polygon points="626.46 489.08 626.46 496.77 629.29 489.17 629.29 489.08 626.46 489.08"/><polygon points="609.45 516.28 609.45 542.4 612.28 534.8 612.28 508.6 609.45 516.28"/><path d="M576.82,519.13l-.29.79c-.37,1.09-.73,2.2-1.1,3.31v21.46l2.84-7.18V515.29Z"/><polygon points="558.77 489.08 558.42 489.08 558.42 514.42 561.26 522.05 561.26 495.73 558.77 489.08"/><polygon points="592.44 495.46 592.44 518.83 595.27 525.92 595.27 502.75 592.44 495.46"/><path d="M643.46,542.63v8.72c.72.07,1.46.11,2.22.11.21,0,.41,0,.62,0v-8.09A10.66,10.66,0,0,1,643.46,542.63Z"/><path d="M646.3,517.28v-8.13l-.87,0a18.17,18.17,0,0,0-2,.1v8.84A10.35,10.35,0,0,1,646.3,517.28Z"/><rect x="660.47" y="510.5" width="2.83" height="39.35"/><path d="M627.75,530.13a28.9,28.9,0,0,0,1.54,9.83v-19.2A26.8,26.8,0,0,0,627.75,530.13Z"/><polygon points="677.48 510.5 677.48 519.2 680.32 526.26 680.32 510.5 677.48 510.5"/><polygon points="711.5 510.5 711.5 518.21 714.33 512.43 714.33 510.5 711.5 510.5"/><polygon points="677.63 568.36 680.32 568.36 680.32 562.91 677.63 568.36"/><path d="M695.81,531.5l-.2.5c-.43.94-.8,1.79-1.12,2.57v18.3l2.83-5.78V528.24Z"/><path d="M731.34,533.64v-8.7a14.47,14.47,0,0,1-2.84-1.68v9.23l.6.25C729.66,533,730.41,533.29,731.34,533.64Z"/><path d="M745.51,532.85v12.54a11.67,11.67,0,0,0,1.77-6.5A10.21,10.21,0,0,0,745.51,532.85Z"/><path d="M728.5,544.18v7.15a26.38,26.38,0,0,0,2.72.13h.12v-6.84A11.34,11.34,0,0,1,728.5,544.18Z"/><path d="M731.34,515.92v-6.83a22.72,22.72,0,0,0-2.84.35V517A6.06,6.06,0,0,1,731.34,515.92Z"/><path d="M780.75,522.06a20.1,20.1,0,0,0-1.22,3.93v8.46a19.47,19.47,0,0,0,2.83,6.94V519.06A20.06,20.06,0,0,0,780.75,522.06Z"/><path d="M799.37,517.31v-8.12a23.78,23.78,0,0,0-2.83.32V518A11.06,11.06,0,0,1,799.37,517.31Z"/><path d="M796.54,542.59v8.48a22.08,22.08,0,0,0,2.83.33v-8.11A11.5,11.5,0,0,1,796.54,542.59Z"/><path d="M816.09,515.35a21.32,21.32,0,0,0-2.55-2.13v34.1a23.19,23.19,0,0,0,2.64-2.17c.07-.06.13-.14.2-.21V515.66Z"/><path d="M833.23,500V510.5h-2.68v7.88h2.68v31.46h.16v-53A29.88,29.88,0,0,0,833.23,500Z"/><rect x="847.56" y="510.5" width="2.83" height="7.89"/><path d="M848.3,492.4a7.86,7.86,0,0,1,2.09.29V485l-.8-.14c-.69-.09-1.37-.14-2-.17v7.75C847.8,492.41,848,492.4,848.3,492.4Z"/><rect x="898.58" y="541" width="2.83" height="8.84"/><rect x="884.41" y="489.08" height="60.76"/><rect x="915.59" y="541" width="0.77" height="8.84"/><path d="M933.78,539.57a13.56,13.56,0,0,1-1.18-1.47v11.08c.49.24,1,.48,1.49.69s.89.32,1.34.47v-9.28A13.46,13.46,0,0,1,933.78,539.57Z"/><path d="M951,521a12.85,12.85,0,0,1,1.42,1.83V511.52c-.58-.29-1.16-.57-1.77-.81-.35-.14-.71-.25-1.06-.37v9.38A13.16,13.16,0,0,1,951,521Z"/><path d="M951,539.57a12.77,12.77,0,0,1-1.39,1.28v9.37c.33-.12.67-.22,1-.35.62-.26,1.23-.54,1.83-.86V537.73A13.08,13.08,0,0,1,951,539.57Z"/><path d="M933.78,521a13.46,13.46,0,0,1,1.65-1.49v-9.3c-.46.15-.93.29-1.38.48s-1,.43-1.45.66v11.12A13.56,13.56,0,0,1,933.78,521Z"/><path d="M983.75,539.57a1.79,1.79,0,0,0-.13-.14v10.23l.44.21a23.21,23.21,0,0,0,2.4.79v-8.88A12.4,12.4,0,0,1,983.75,539.57Z"/><path d="M983.75,521a12.4,12.4,0,0,1,2.71-2.21v-8.9a21.08,21.08,0,0,0-2.44.8c-.14.05-.26.12-.4.18v10.28Z"/><path d="M1001,539.57l-.34.34v9.93a21.44,21.44,0,0,0,2.83-1.43V535.74A12.87,12.87,0,0,1,1001,539.57Z"/><path d="M1001,521a12.76,12.76,0,0,1,2.47,3.82V512.13a19.58,19.58,0,0,0-2.82-1.42h0v10Z"/><polygon points="1051.65 538.34 1051.65 549.84 1054.49 549.84 1054.49 541.53 1051.65 538.34"/><polygon points="1034.65 524.76 1034.65 531.92 1037.48 535.18 1037.48 521.96 1034.65 524.76"/><polygon points="1054.49 516.03 1054.49 510.5 1051.65 510.5 1051.65 518.78 1054.49 516.03"/><path d="M1071.5,499.09V488a5.46,5.46,0,0,0-2.84,1.31v8.49A5.42,5.42,0,0,0,1071.5,499.09Z"/><rect x="1068.66" y="510.5" width="2.83" height="39.35"/><path d="M1120.92,510.52a12,12,0,0,0-1.23-.46v39.78h2.83V511.4A12.89,12.89,0,0,0,1120.92,510.52Z"/><path d="M1104.54,511a15,15,0,0,0-1.86,1.14V519a9.48,9.48,0,0,1,1.72-1c.36-.17.73-.31,1.11-.45v-6.93C1105.18,510.69,1104.86,510.84,1104.54,511Z"/><path d="M1138.66,555.82a11.07,11.07,0,0,0,.87,4.24v-4.24Z"/><path d="M1153.7,543v8.39c.34,0,.67,0,1,0a18,18,0,0,0,1.82-.09v-7.94A12,12,0,0,1,1153.7,543Z"/><path d="M1136.79,530.13a26.31,26.31,0,0,0,2.74,12.57V518.08A24.86,24.86,0,0,0,1136.79,530.13Z"/><path d="M1153.7,560.7v7.52c.91.08,1.85.13,2.84.13V561A16.17,16.17,0,0,1,1153.7,560.7Z"/><path d="M1170.71,510.5v54.35a10.86,10.86,0,0,0,1.4-1.21,11.43,11.43,0,0,0,1.43-1.84V510.5Z"/><path d="M1156.54,517.17v-7.94c-.67-.06-1.35-.1-2.07-.1-.26,0-.51,0-.77,0v8.45A11.64,11.64,0,0,1,1156.54,517.17Z"/><path d="M1240.24,520.54a10,10,0,0,1,1.33,2.07v-8a11.43,11.43,0,0,0-2.83-2.89v7.38A9.19,9.19,0,0,1,1240.24,520.54Z"/><path d="M1224.16,540.05a12,12,0,0,1-2.43-5.38v15a15.86,15.86,0,0,0,2.84,1.08V540.49C1224.43,540.34,1224.29,540.21,1224.16,540.05Z"/><path d="M1240,539.76a10.67,10.67,0,0,1-1.29,1.31v7.81a15.64,15.64,0,0,0,2.83-2.54v-9A11.76,11.76,0,0,1,1240,539.76Z"/><path d="M1224.26,520.65c.1-.12.21-.22.31-.33v-10.5a15.32,15.32,0,0,0-2.84,1.14v15.22A12.45,12.45,0,0,1,1224.26,520.65Z"/><polygon points="1275.42 510.5 1275.42 495.6 1272.76 495.6 1272.76 549.84 1275.42 549.84 1275.42 518.38 1275.59 518.38 1275.59 510.5 1275.42 510.5"/><path d="M1341.14,520.54a12,12,0,0,1,2.48,5.56v-9.41a12.08,12.08,0,0,0-2.83-4v7.5C1340.9,520.29,1341,520.41,1341.14,520.54Z"/><path d="M1325.16,520.65a9.71,9.71,0,0,1,1.45-1.42v-9.71a16.36,16.36,0,0,0-2.83.89v12.37A10.67,10.67,0,0,1,1325.16,520.65Z"/><path d="M1325.05,540.05a10.22,10.22,0,0,1-1.27-2v12.14a17.18,17.18,0,0,0,2.83.84v-9.52A9.94,9.94,0,0,1,1325.05,540.05Z"/><path d="M1340.93,539.76l-.14.15V548a17.22,17.22,0,0,0,2.83-3.09v-11A13,13,0,0,1,1340.93,539.76Z"/><rect x="1391.81" y="489.08" width="2.83" height="8.38"/><polygon points="1408.82 489.08 1408.82 549.84 1411.22 549.84 1411.22 497.47 1411.65 497.47 1411.65 489.08 1408.82 489.08"/><rect x="1425.83" y="489.08" width="1.45" height="8.38"/><polygon points="1442.83 528.02 1442.83 546.89 1445.67 541.11 1445.67 521.89 1442.83 528.02"/><polygon points="1425.83 562.71 1425.83 568.36 1428.66 568.36 1428.66 556.95 1425.83 562.71"/><polygon points="1459.84 510.5 1459.84 512.23 1460.69 510.5 1459.84 510.5"/><polygon points="1428.66 533.56 1428.66 510.5 1425.83 510.5 1425.83 526.51 1428.66 533.56"/><path d="M1477.17,520.54a9.35,9.35,0,0,1,2.52-2.1v-7.3l0,0a12.31,12.31,0,0,0-2.79,2.24V521C1477,520.82,1477.05,520.68,1477.17,520.54Z"/><path d="M1477.35,539.8a8.33,8.33,0,0,1-.5-.67v8.22a14.34,14.34,0,0,0,2.84,2.13v-7.61A10.12,10.12,0,0,1,1477.35,539.8Z"/><path d="M1493.86,510.13v11.45a15.62,15.62,0,0,1,2.23,8.8c0,3.73-.75,6.69-2.23,8.9v11.19a15.1,15.1,0,0,0,2.83-1.28V511.48A14.7,14.7,0,0,0,1493.86,510.13Z"/><path d="M1527.87,542.28V551a23.41,23.41,0,0,0,2.84.38v-8.32A10.71,10.71,0,0,1,1527.87,542.28Z"/><path d="M1547.72,531.5V514.65l-.08-.08a16.67,16.67,0,0,0-2.76-2.27v19.2Z"/><rect x="1527.87" y="525.44" width="2.83" height="6.06"/><path d="M1530.71,516.93v-7.71a23.38,23.38,0,0,0-2.84.42v8.08A11.17,11.17,0,0,1,1530.71,516.93Z"/><path d="M1544.94,535.48l-.06.11V548.2a20.38,20.38,0,0,0,2.84-2.2v-9Z"/><path d="M1512.15,530.3a24.9,24.9,0,0,0,1.55,9V521.64A23.5,23.5,0,0,0,1512.15,530.3Z"/><rect x="1578.9" y="510.5" width="2.83" height="7.89"/><path d="M1563.58,500V510.5h-1.69v7.88h1.69v31.46h1.14v-57.7A23.66,23.66,0,0,0,1563.58,500Z"/><path d="M1580.86,492.71c.29.09.58.2.87.31v-7.84c-.6-.13-1.2-.25-1.8-.33-.35-.05-.69-.08-1-.11v7.68A8.22,8.22,0,0,1,1580.86,492.71Z"/><path d="M1613.78,520.54a11.28,11.28,0,0,1,2,3.62v-8.5a11.45,11.45,0,0,0-2.84-3.44v7.43A9.16,9.16,0,0,1,1613.78,520.54Z"/><path d="M1597.8,520.65a8.74,8.74,0,0,1,.94-1v-10a15.45,15.45,0,0,0-2.83,1V524A11.13,11.13,0,0,1,1597.8,520.65Z"/><path d="M1597.69,540.05a11,11,0,0,1-1.78-3.16V550a16.13,16.13,0,0,0,2.83.91v-9.83A10.52,10.52,0,0,1,1597.69,540.05Z"/><path d="M1613.57,539.76q-.32.38-.66.72v7.9a16.3,16.3,0,0,0,2.84-2.85v-9.75A12.49,12.49,0,0,1,1613.57,539.76Z"/><path d="M1647.58,520.58a10.88,10.88,0,0,1,2.18-1.79V510a20.65,20.65,0,0,0-2.83,1v10.34C1647.14,521.1,1647.35,520.83,1647.58,520.58Z"/><path d="M1663.94,541.29v8.84a20.49,20.49,0,0,0,2.83-1.26v-10.1A12.85,12.85,0,0,1,1663.94,541.29Z"/><path d="M1666.77,521.27v-9.92a17.59,17.59,0,0,0-2.83-1.18V519A13.75,13.75,0,0,1,1666.77,521.27Z"/><path d="M1647.6,539.7a10,10,0,0,1-.67-.79v10.85a20.47,20.47,0,0,0,2.83,1v-9.3A10.48,10.48,0,0,1,1647.6,539.7Z"/><path d="M1682.86,531.5h.92v-6.06h-.34c.1-.41.22-.8.34-1.18v-12.6a19,19,0,0,0-2.84,1.93v33.72a18.45,18.45,0,0,0,2.84,1.85V536.21A16.9,16.9,0,0,1,1682.86,531.5Z"/><path d="M1698,542.75v8.45a23,23,0,0,0,2.84-.59v-9A11.51,11.51,0,0,1,1698,542.75Z"/><path d="M1700.79,518.32v-8.41a24.64,24.64,0,0,0-2.84-.53v7.79A9.89,9.89,0,0,1,1700.79,518.32Z"/><rect x="1697.95" y="525.44" width="2.83" height="6.06"/></g></g></svg>