<?xml version="1.0" encoding="UTF-8"?>
<svg version="1.1" xmlns="http://www.w3.org/2000/svg" width="7688" height="4321">
<path d="M0 0 C19.14 0 38.28 0 58 0 C58 1425.93 58 2851.86 58 4321 C38.86 4321 19.72 4321 0 4321 C0 2895.07 0 1469.14 0 0 Z " fill="#000000" transform="translate(6961,0)"/>
<path d="M0 0 C19.14 0 38.28 0 58 0 C58 1425.93 58 2851.86 58 4321 C38.86 4321 19.72 4321 0 4321 C0 2895.07 0 1469.14 0 0 Z " fill="#000000" transform="translate(6893,0)"/>
<path d="M0 0 C19.14 0 38.28 0 58 0 C58 1425.93 58 2851.86 58 4321 C38.86 4321 19.72 4321 0 4321 C0 2895.07 0 1469.14 0 0 Z " fill="#000000" transform="translate(6825,0)"/>
<path d="M0 0 C19.14 0 38.28 0 58 0 C58 1425.93 58 2851.86 58 4321 C38.86 4321 19.72 4321 0 4321 C0 2895.07 0 1469.14 0 0 Z " fill="#000000" transform="translate(6757,0)"/>
<path d="M0 0 C19.14 0 38.28 0 58 0 C58 1425.93 58 2851.86 58 4321 C38.86 4321 19.72 4321 0 4321 C0 2895.07 0 1469.14 0 0 Z " fill="#000000" transform="translate(6689,0)"/>
<path d="M0 0 C19.14 0 38.28 0 58 0 C58 1425.93 58 2851.86 58 4321 C38.86 4321 19.72 4321 0 4321 C0 2895.07 0 1469.14 0 0 Z " fill="#000000" transform="translate(6621,0)"/>
<path d="M0 0 C19.14 0 38.28 0 58 0 C58 1425.93 58 2851.86 58 4321 C38.86 4321 19.72 4321 0 4321 C0 2895.07 0 1469.14 0 0 Z " fill="#000000" transform="translate(6553,0)"/>
<path d="M0 0 C19.14 0 38.28 0 58 0 C58 1425.93 58 2851.86 58 4321 C38.86 4321 19.72 4321 0 4321 C0 2895.07 0 1469.14 0 0 Z " fill="#000000" transform="translate(6485,0)"/>
<path d="M0 0 C19.14 0 38.28 0 58 0 C58 1425.93 58 2851.86 58 4321 C38.86 4321 19.72 4321 0 4321 C0 2895.07 0 1469.14 0 0 Z " fill="#000000" transform="translate(6417,0)"/>
<path d="M0 0 C19.14 0 38.28 0 58 0 C58 1425.93 58 2851.86 58 4321 C38.86 4321 19.72 4321 0 4321 C0 2895.07 0 1469.14 0 0 Z " fill="#000000" transform="translate(6349,0)"/>
<path d="M0 0 C19.14 0 38.28 0 58 0 C58 1425.93 58 2851.86 58 4321 C38.86 4321 19.72 4321 0 4321 C0 2895.07 0 1469.14 0 0 Z " fill="#000000" transform="translate(6281,0)"/>
<path d="M0 0 C19.14 0 38.28 0 58 0 C58 1425.93 58 2851.86 58 4321 C38.86 4321 19.72 4321 0 4321 C0 2895.07 0 1469.14 0 0 Z " fill="#000000" transform="translate(6213,0)"/>
<path d="M0 0 C19.14 0 38.28 0 58 0 C58 1425.93 58 2851.86 58 4321 C38.86 4321 19.72 4321 0 4321 C0 2895.07 0 1469.14 0 0 Z " fill="#000000" transform="translate(6145,0)"/>
<path d="M0 0 C19.14 0 38.28 0 58 0 C58 1425.93 58 2851.86 58 4321 C38.86 4321 19.72 4321 0 4321 C0 2895.07 0 1469.14 0 0 Z " fill="#000000" transform="translate(6077,0)"/>
<path d="M0 0 C19.14 0 38.28 0 58 0 C58 1425.93 58 2851.86 58 4321 C38.86 4321 19.72 4321 0 4321 C0 2895.07 0 1469.14 0 0 Z " fill="#000000" transform="translate(6009,0)"/>
<path d="M0 0 C19.14 0 38.28 0 58 0 C58 1425.93 58 2851.86 58 4321 C38.86 4321 19.72 4321 0 4321 C0 2895.07 0 1469.14 0 0 Z " fill="#000000" transform="translate(5941,0)"/>
<path d="M0 0 C19.14 0 38.28 0 58 0 C58 1425.93 58 2851.86 58 4321 C38.86 4321 19.72 4321 0 4321 C0 2895.07 0 1469.14 0 0 Z " fill="#000000" transform="translate(5873,0)"/>
<path d="M0 0 C19.14 0 38.28 0 58 0 C58 1425.93 58 2851.86 58 4321 C38.86 4321 19.72 4321 0 4321 C0 2895.07 0 1469.14 0 0 Z " fill="#000000" transform="translate(5805,0)"/>
<path d="M0 0 C19.14 0 38.28 0 58 0 C58 1425.93 58 2851.86 58 4321 C38.86 4321 19.72 4321 0 4321 C0 2895.07 0 1469.14 0 0 Z " fill="#000000" transform="translate(5737,0)"/>
<path d="M0 0 C19.14 0 38.28 0 58 0 C58 1425.93 58 2851.86 58 4321 C38.86 4321 19.72 4321 0 4321 C0 2895.07 0 1469.14 0 0 Z " fill="#000000" transform="translate(5669,0)"/>
<path d="M0 0 C19.14 0 38.28 0 58 0 C58 1425.93 58 2851.86 58 4321 C38.86 4321 19.72 4321 0 4321 C0 2895.07 0 1469.14 0 0 Z " fill="#000000" transform="translate(5601,0)"/>
<path d="M0 0 C19.14 0 38.28 0 58 0 C58 1425.93 58 2851.86 58 4321 C38.86 4321 19.72 4321 0 4321 C0 2895.07 0 1469.14 0 0 Z " fill="#000000" transform="translate(5533,0)"/>
<path d="M0 0 C19.14 0 38.28 0 58 0 C58 1425.93 58 2851.86 58 4321 C38.86 4321 19.72 4321 0 4321 C0 2895.07 0 1469.14 0 0 Z " fill="#000000" transform="translate(4784,0)"/>
<path d="M0 0 C19.14 0 38.28 0 58 0 C58 1425.93 58 2851.86 58 4321 C38.86 4321 19.72 4321 0 4321 C0 2895.07 0 1469.14 0 0 Z " fill="#000000" transform="translate(4716,0)"/>
<path d="M0 0 C19.14 0 38.28 0 58 0 C58 1425.93 58 2851.86 58 4321 C38.86 4321 19.72 4321 0 4321 C0 2895.07 0 1469.14 0 0 Z " fill="#000000" transform="translate(4648,0)"/>
<path d="M0 0 C19.14 0 38.28 0 58 0 C58 1425.93 58 2851.86 58 4321 C38.86 4321 19.72 4321 0 4321 C0 2895.07 0 1469.14 0 0 Z " fill="#000000" transform="translate(4580,0)"/>
<path d="M0 0 C19.14 0 38.28 0 58 0 C58 1425.93 58 2851.86 58 4321 C38.86 4321 19.72 4321 0 4321 C0 2895.07 0 1469.14 0 0 Z " fill="#000000" transform="translate(4512,0)"/>
<path d="M0 0 C19.14 0 38.28 0 58 0 C58 1425.93 58 2851.86 58 4321 C38.86 4321 19.72 4321 0 4321 C0 2895.07 0 1469.14 0 0 Z " fill="#000000" transform="translate(4444,0)"/>
<path d="M0 0 C19.14 0 38.28 0 58 0 C58 1425.93 58 2851.86 58 4321 C38.86 4321 19.72 4321 0 4321 C0 2895.07 0 1469.14 0 0 Z " fill="#000000" transform="translate(4376,0)"/>
<path d="M0 0 C19.14 0 38.28 0 58 0 C58 1425.93 58 2851.86 58 4321 C38.86 4321 19.72 4321 0 4321 C0 2895.07 0 1469.14 0 0 Z " fill="#000000" transform="translate(4308,0)"/>
<path d="M0 0 C19.14 0 38.28 0 58 0 C58 1425.93 58 2851.86 58 4321 C38.86 4321 19.72 4321 0 4321 C0 2895.07 0 1469.14 0 0 Z " fill="#000000" transform="translate(4240,0)"/>
<path d="M0 0 C19.14 0 38.28 0 58 0 C58 1425.93 58 2851.86 58 4321 C38.86 4321 19.72 4321 0 4321 C0 2895.07 0 1469.14 0 0 Z " fill="#000000" transform="translate(4172,0)"/>
<path d="M0 0 C19.14 0 38.28 0 58 0 C58 1425.93 58 2851.86 58 4321 C38.86 4321 19.72 4321 0 4321 C0 2895.07 0 1469.14 0 0 Z " fill="#000000" transform="translate(4104,0)"/>
<path d="M0 0 C19.14 0 38.28 0 58 0 C58 1425.93 58 2851.86 58 4321 C38.86 4321 19.72 4321 0 4321 C0 2895.07 0 1469.14 0 0 Z " fill="#000000" transform="translate(4036,0)"/>
<path d="M0 0 C19.14 0 38.28 0 58 0 C58 1425.93 58 2851.86 58 4321 C38.86 4321 19.72 4321 0 4321 C0 2895.07 0 1469.14 0 0 Z " fill="#000000" transform="translate(3968,0)"/>
<path d="M0 0 C19.14 0 38.28 0 58 0 C58 1425.93 58 2851.86 58 4321 C38.86 4321 19.72 4321 0 4321 C0 2895.07 0 1469.14 0 0 Z " fill="#000000" transform="translate(3900,0)"/>
<path d="M0 0 C19.14 0 38.28 0 58 0 C58 1425.93 58 2851.86 58 4321 C38.86 4321 19.72 4321 0 4321 C0 2895.07 0 1469.14 0 0 Z " fill="#000000" transform="translate(3832,0)"/>
<path d="M0 0 C19.14 0 38.28 0 58 0 C58 1425.93 58 2851.86 58 4321 C38.86 4321 19.72 4321 0 4321 C0 2895.07 0 1469.14 0 0 Z " fill="#000000" transform="translate(3764,0)"/>
<path d="M0 0 C19.14 0 38.28 0 58 0 C58 1425.93 58 2851.86 58 4321 C38.86 4321 19.72 4321 0 4321 C0 2895.07 0 1469.14 0 0 Z " fill="#000000" transform="translate(3696,0)"/>
<path d="M0 0 C19.14 0 38.28 0 58 0 C58 1425.93 58 2851.86 58 4321 C38.86 4321 19.72 4321 0 4321 C0 2895.07 0 1469.14 0 0 Z " fill="#000000" transform="translate(3628,0)"/>
<path d="M0 0 C19.14 0 38.28 0 58 0 C58 1425.93 58 2851.86 58 4321 C38.86 4321 19.72 4321 0 4321 C0 2895.07 0 1469.14 0 0 Z " fill="#000000" transform="translate(3560,0)"/>
<path d="M0 0 C19.14 0 38.28 0 58 0 C58 1425.93 58 2851.86 58 4321 C38.86 4321 19.72 4321 0 4321 C0 2895.07 0 1469.14 0 0 Z " fill="#000000" transform="translate(3492,0)"/>
<path d="M0 0 C19.14 0 38.28 0 58 0 C58 1425.93 58 2851.86 58 4321 C38.86 4321 19.72 4321 0 4321 C0 2895.07 0 1469.14 0 0 Z " fill="#000000" transform="translate(3424,0)"/>
<path d="M0 0 C19.14 0 38.28 0 58 0 C58 1425.93 58 2851.86 58 4321 C38.86 4321 19.72 4321 0 4321 C0 2895.07 0 1469.14 0 0 Z " fill="#000000" transform="translate(3356,0)"/>
<path d="M0 0 C19.14 0 38.28 0 58 0 C58 1425.93 58 2851.86 58 4321 C38.86 4321 19.72 4321 0 4321 C0 2895.07 0 1469.14 0 0 Z " fill="#000000" transform="translate(2675,0)"/>
<path d="M0 0 C19.14 0 38.28 0 58 0 C58 1425.93 58 2851.86 58 4321 C38.86 4321 19.72 4321 0 4321 C0 2895.07 0 1469.14 0 0 Z " fill="#000000" transform="translate(2607,0)"/>
<path d="M0 0 C19.14 0 38.28 0 58 0 C58 1425.93 58 2851.86 58 4321 C38.86 4321 19.72 4321 0 4321 C0 2895.07 0 1469.14 0 0 Z " fill="#000000" transform="translate(2539,0)"/>
<path d="M0 0 C19.14 0 38.28 0 58 0 C58 1425.93 58 2851.86 58 4321 C38.86 4321 19.72 4321 0 4321 C0 2895.07 0 1469.14 0 0 Z " fill="#000000" transform="translate(2471,0)"/>
<path d="M0 0 C19.14 0 38.28 0 58 0 C58 1425.93 58 2851.86 58 4321 C38.86 4321 19.72 4321 0 4321 C0 2895.07 0 1469.14 0 0 Z " fill="#000000" transform="translate(2403,0)"/>
<path d="M0 0 C19.14 0 38.28 0 58 0 C58 1425.93 58 2851.86 58 4321 C38.86 4321 19.72 4321 0 4321 C0 2895.07 0 1469.14 0 0 Z " fill="#000000" transform="translate(2335,0)"/>
<path d="M0 0 C19.14 0 38.28 0 58 0 C58 1425.93 58 2851.86 58 4321 C38.86 4321 19.72 4321 0 4321 C0 2895.07 0 1469.14 0 0 Z " fill="#000000" transform="translate(2267,0)"/>
<path d="M0 0 C19.14 0 38.28 0 58 0 C58 1425.93 58 2851.86 58 4321 C38.86 4321 19.72 4321 0 4321 C0 2895.07 0 1469.14 0 0 Z " fill="#000000" transform="translate(2199,0)"/>
<path d="M0 0 C19.14 0 38.28 0 58 0 C58 1425.93 58 2851.86 58 4321 C38.86 4321 19.72 4321 0 4321 C0 2895.07 0 1469.14 0 0 Z " fill="#000000" transform="translate(2131,0)"/>
<path d="M0 0 C19.14 0 38.28 0 58 0 C58 1425.93 58 2851.86 58 4321 C38.86 4321 19.72 4321 0 4321 C0 2895.07 0 1469.14 0 0 Z " fill="#000000" transform="translate(2063,0)"/>
<path d="M0 0 C19.14 0 38.28 0 58 0 C58 1425.93 58 2851.86 58 4321 C38.86 4321 19.72 4321 0 4321 C0 2895.07 0 1469.14 0 0 Z " fill="#000000" transform="translate(1995,0)"/>
<path d="M0 0 C19.14 0 38.28 0 58 0 C58 1425.93 58 2851.86 58 4321 C38.86 4321 19.72 4321 0 4321 C0 2895.07 0 1469.14 0 0 Z " fill="#000000" transform="translate(1927,0)"/>
<path d="M0 0 C19.14 0 38.28 0 58 0 C58 1425.93 58 2851.86 58 4321 C38.86 4321 19.72 4321 0 4321 C0 2895.07 0 1469.14 0 0 Z " fill="#000000" transform="translate(1859,0)"/>
<path d="M0 0 C19.14 0 38.28 0 58 0 C58 1425.93 58 2851.86 58 4321 C38.86 4321 19.72 4321 0 4321 C0 2895.07 0 1469.14 0 0 Z " fill="#000000" transform="translate(1791,0)"/>
<path d="M0 0 C19.14 0 38.28 0 58 0 C58 1425.93 58 2851.86 58 4321 C38.86 4321 19.72 4321 0 4321 C0 2895.07 0 1469.14 0 0 Z " fill="#000000" transform="translate(1723,0)"/>
<path d="M0 0 C19.14 0 38.28 0 58 0 C58 1425.93 58 2851.86 58 4321 C38.86 4321 19.72 4321 0 4321 C0 2895.07 0 1469.14 0 0 Z " fill="#000000" transform="translate(1655,0)"/>
<path d="M0 0 C19.14 0 38.28 0 58 0 C58 1425.93 58 2851.86 58 4321 C38.86 4321 19.72 4321 0 4321 C0 2895.07 0 1469.14 0 0 Z " fill="#000000" transform="translate(1587,0)"/>
<path d="M0 0 C19.14 0 38.28 0 58 0 C58 1425.93 58 2851.86 58 4321 C38.86 4321 19.72 4321 0 4321 C0 2895.07 0 1469.14 0 0 Z " fill="#000000" transform="translate(1519,0)"/>
<path d="M0 0 C19.14 0 38.28 0 58 0 C58 1425.93 58 2851.86 58 4321 C38.86 4321 19.72 4321 0 4321 C0 2895.07 0 1469.14 0 0 Z " fill="#000000" transform="translate(1451,0)"/>
<path d="M0 0 C19.14 0 38.28 0 58 0 C58 1425.93 58 2851.86 58 4321 C38.86 4321 19.72 4321 0 4321 C0 2895.07 0 1469.14 0 0 Z " fill="#000000" transform="translate(1383,0)"/>
<path d="M0 0 C19.14 0 38.28 0 58 0 C58 1425.93 58 2851.86 58 4321 C38.86 4321 19.72 4321 0 4321 C0 2895.07 0 1469.14 0 0 Z " fill="#000000" transform="translate(1315,0)"/>
<path d="M0 0 C19.14 0 38.28 0 58 0 C58 1425.93 58 2851.86 58 4321 C38.86 4321 19.72 4321 0 4321 C0 2895.07 0 1469.14 0 0 Z " fill="#000000" transform="translate(1247,0)"/>
<path d="M0 0 C19.14 0 38.28 0 58 0 C58 1425.93 58 2851.86 58 4321 C38.86 4321 19.72 4321 0 4321 C0 2895.07 0 1469.14 0 0 Z " fill="#000000" transform="translate(498,0)"/>
<path d="M0 0 C19.14 0 38.28 0 58 0 C58 1425.93 58 2851.86 58 4321 C38.86 4321 19.72 4321 0 4321 C0 2895.07 0 1469.14 0 0 Z " fill="#000000" transform="translate(430,0)"/>
<path d="M0 0 C19.14 0 38.28 0 58 0 C58 1425.93 58 2851.86 58 4321 C38.86 4321 19.72 4321 0 4321 C0 2895.07 0 1469.14 0 0 Z " fill="#000000" transform="translate(362,0)"/>
<path d="M0 0 C19.14 0 38.28 0 58 0 C58 1425.93 58 2851.86 58 4321 C38.86 4321 19.72 4321 0 4321 C0 2895.07 0 1469.14 0 0 Z " fill="#000000" transform="translate(294,0)"/>
<path d="M0 0 C19.14 0 38.28 0 58 0 C58 1425.93 58 2851.86 58 4321 C38.86 4321 19.72 4321 0 4321 C0 2895.07 0 1469.14 0 0 Z " fill="#000000" transform="translate(226,0)"/>
<path d="M0 0 C19.14 0 38.28 0 58 0 C58 1425.93 58 2851.86 58 4321 C38.86 4321 19.72 4321 0 4321 C0 2895.07 0 1469.14 0 0 Z " fill="#000000" transform="translate(158,0)"/>
<path d="M0 0 C19.14 0 38.28 0 58 0 C58 1425.93 58 2851.86 58 4321 C38.86 4321 19.72 4321 0 4321 C0 2895.07 0 1469.14 0 0 Z " fill="#000000" transform="translate(90,0)"/>
<path d="M0 0 C19.14 0 38.28 0 58 0 C58 1425.93 58 2851.86 58 4321 C38.86 4321 19.72 4321 0 4321 C0 2895.07 0 1469.14 0 0 Z " fill="#000000" transform="translate(22,0)"/>
<path d="M0 0 C18.81 0 37.62 0 57 0 C57 1425.93 57 2851.86 57 4321 C38.19 4321 19.38 4321 0 4321 C0 2895.07 0 1469.14 0 0 Z " fill="#000000" transform="translate(7574,0)"/>
<path d="M0 0 C18.81 0 37.62 0 57 0 C57 1425.93 57 2851.86 57 4321 C38.19 4321 19.38 4321 0 4321 C0 2895.07 0 1469.14 0 0 Z " fill="#000000" transform="translate(7506,0)"/>
<path d="M0 0 C18.81 0 37.62 0 57 0 C57 1425.93 57 2851.86 57 4321 C38.19 4321 19.38 4321 0 4321 C0 2895.07 0 1469.14 0 0 Z " fill="#000000" transform="translate(7438,0)"/>
<path d="M0 0 C18.81 0 37.62 0 57 0 C57 1425.93 57 2851.86 57 4321 C38.19 4321 19.38 4321 0 4321 C0 2895.07 0 1469.14 0 0 Z " fill="#000000" transform="translate(7370,0)"/>
<path d="M0 0 C18.81 0 37.62 0 57 0 C57 1425.93 57 2851.86 57 4321 C38.19 4321 19.38 4321 0 4321 C0 2895.07 0 1469.14 0 0 Z " fill="#000000" transform="translate(7302,0)"/>
<path d="M0 0 C18.81 0 37.62 0 57 0 C57 1425.93 57 2851.86 57 4321 C38.19 4321 19.38 4321 0 4321 C0 2895.07 0 1469.14 0 0 Z " fill="#000000" transform="translate(7234,0)"/>
<path d="M0 0 C18.81 0 37.62 0 57 0 C57 1425.93 57 2851.86 57 4321 C38.19 4321 19.38 4321 0 4321 C0 2895.07 0 1469.14 0 0 Z " fill="#000000" transform="translate(7166,0)"/>
<path d="M0 0 C18.81 0 37.62 0 57 0 C57 1425.93 57 2851.86 57 4321 C38.19 4321 19.38 4321 0 4321 C0 2895.07 0 1469.14 0 0 Z " fill="#000000" transform="translate(7098,0)"/>
<path d="M0 0 C18.81 0 37.62 0 57 0 C57 1425.93 57 2851.86 57 4321 C38.19 4321 19.38 4321 0 4321 C0 2895.07 0 1469.14 0 0 Z " fill="#000000" transform="translate(7030,0)"/>
<path d="M0 0 C18.81 0 37.62 0 57 0 C57 1425.93 57 2851.86 57 4321 C38.19 4321 19.38 4321 0 4321 C0 2895.07 0 1469.14 0 0 Z " fill="#000000" transform="translate(5465,0)"/>
<path d="M0 0 C18.81 0 37.62 0 57 0 C57 1425.93 57 2851.86 57 4321 C38.19 4321 19.38 4321 0 4321 C0 2895.07 0 1469.14 0 0 Z " fill="#000000" transform="translate(5397,0)"/>
<path d="M0 0 C18.81 0 37.62 0 57 0 C57 1425.93 57 2851.86 57 4321 C38.19 4321 19.38 4321 0 4321 C0 2895.07 0 1469.14 0 0 Z " fill="#000000" transform="translate(5329,0)"/>
<path d="M0 0 C18.81 0 37.62 0 57 0 C57 1425.93 57 2851.86 57 4321 C38.19 4321 19.38 4321 0 4321 C0 2895.07 0 1469.14 0 0 Z " fill="#000000" transform="translate(5261,0)"/>
<path d="M0 0 C18.81 0 37.62 0 57 0 C57 1425.93 57 2851.86 57 4321 C38.19 4321 19.38 4321 0 4321 C0 2895.07 0 1469.14 0 0 Z " fill="#000000" transform="translate(5193,0)"/>
<path d="M0 0 C18.81 0 37.62 0 57 0 C57 1425.93 57 2851.86 57 4321 C38.19 4321 19.38 4321 0 4321 C0 2895.07 0 1469.14 0 0 Z " fill="#000000" transform="translate(5125,0)"/>
<path d="M0 0 C18.81 0 37.62 0 57 0 C57 1425.93 57 2851.86 57 4321 C38.19 4321 19.38 4321 0 4321 C0 2895.07 0 1469.14 0 0 Z " fill="#000000" transform="translate(5057,0)"/>
<path d="M0 0 C18.81 0 37.62 0 57 0 C57 1425.93 57 2851.86 57 4321 C38.19 4321 19.38 4321 0 4321 C0 2895.07 0 1469.14 0 0 Z " fill="#000000" transform="translate(4989,0)"/>
<path d="M0 0 C18.81 0 37.62 0 57 0 C57 1425.93 57 2851.86 57 4321 C38.19 4321 19.38 4321 0 4321 C0 2895.07 0 1469.14 0 0 Z " fill="#000000" transform="translate(4921,0)"/>
<path d="M0 0 C18.81 0 37.62 0 57 0 C57 1425.93 57 2851.86 57 4321 C38.19 4321 19.38 4321 0 4321 C0 2895.07 0 1469.14 0 0 Z " fill="#000000" transform="translate(4853,0)"/>
<path d="M0 0 C18.81 0 37.62 0 57 0 C57 1425.93 57 2851.86 57 4321 C38.19 4321 19.38 4321 0 4321 C0 2895.07 0 1469.14 0 0 Z " fill="#000000" transform="translate(3288,0)"/>
<path d="M0 0 C18.81 0 37.62 0 57 0 C57 1425.93 57 2851.86 57 4321 C38.19 4321 19.38 4321 0 4321 C0 2895.07 0 1469.14 0 0 Z " fill="#000000" transform="translate(3220,0)"/>
<path d="M0 0 C18.81 0 37.62 0 57 0 C57 1425.93 57 2851.86 57 4321 C38.19 4321 19.38 4321 0 4321 C0 2895.07 0 1469.14 0 0 Z " fill="#000000" transform="translate(3152,0)"/>
<path d="M0 0 C18.81 0 37.62 0 57 0 C57 1425.93 57 2851.86 57 4321 C38.19 4321 19.38 4321 0 4321 C0 2895.07 0 1469.14 0 0 Z " fill="#000000" transform="translate(3084,0)"/>
<path d="M0 0 C18.81 0 37.62 0 57 0 C57 1425.93 57 2851.86 57 4321 C38.19 4321 19.38 4321 0 4321 C0 2895.07 0 1469.14 0 0 Z " fill="#000000" transform="translate(3016,0)"/>
<path d="M0 0 C18.81 0 37.62 0 57 0 C57 1425.93 57 2851.86 57 4321 C38.19 4321 19.38 4321 0 4321 C0 2895.07 0 1469.14 0 0 Z " fill="#000000" transform="translate(2948,0)"/>
<path d="M0 0 C18.81 0 37.62 0 57 0 C57 1425.93 57 2851.86 57 4321 C38.19 4321 19.38 4321 0 4321 C0 2895.07 0 1469.14 0 0 Z " fill="#000000" transform="translate(2880,0)"/>
<path d="M0 0 C18.81 0 37.62 0 57 0 C57 1425.93 57 2851.86 57 4321 C38.19 4321 19.38 4321 0 4321 C0 2895.07 0 1469.14 0 0 Z " fill="#000000" transform="translate(2812,0)"/>
<path d="M0 0 C18.81 0 37.62 0 57 0 C57 1425.93 57 2851.86 57 4321 C38.19 4321 19.38 4321 0 4321 C0 2895.07 0 1469.14 0 0 Z " fill="#000000" transform="translate(2744,0)"/>
<path d="M0 0 C18.81 0 37.62 0 57 0 C57 1425.93 57 2851.86 57 4321 C38.19 4321 19.38 4321 0 4321 C0 2895.07 0 1469.14 0 0 Z " fill="#000000" transform="translate(1179,0)"/>
<path d="M0 0 C18.81 0 37.62 0 57 0 C57 1425.93 57 2851.86 57 4321 C38.19 4321 19.38 4321 0 4321 C0 2895.07 0 1469.14 0 0 Z " fill="#000000" transform="translate(1111,0)"/>
<path d="M0 0 C18.81 0 37.62 0 57 0 C57 1425.93 57 2851.86 57 4321 C38.19 4321 19.38 4321 0 4321 C0 2895.07 0 1469.14 0 0 Z " fill="#000000" transform="translate(1043,0)"/>
<path d="M0 0 C18.81 0 37.62 0 57 0 C57 1425.93 57 2851.86 57 4321 C38.19 4321 19.38 4321 0 4321 C0 2895.07 0 1469.14 0 0 Z " fill="#000000" transform="translate(975,0)"/>
<path d="M0 0 C18.81 0 37.62 0 57 0 C57 1425.93 57 2851.86 57 4321 C38.19 4321 19.38 4321 0 4321 C0 2895.07 0 1469.14 0 0 Z " fill="#000000" transform="translate(907,0)"/>
<path d="M0 0 C18.81 0 37.62 0 57 0 C57 1425.93 57 2851.86 57 4321 C38.19 4321 19.38 4321 0 4321 C0 2895.07 0 1469.14 0 0 Z " fill="#000000" transform="translate(839,0)"/>
<path d="M0 0 C18.81 0 37.62 0 57 0 C57 1425.93 57 2851.86 57 4321 C38.19 4321 19.38 4321 0 4321 C0 2895.07 0 1469.14 0 0 Z " fill="#000000" transform="translate(771,0)"/>
<path d="M0 0 C18.81 0 37.62 0 57 0 C57 1425.93 57 2851.86 57 4321 C38.19 4321 19.38 4321 0 4321 C0 2895.07 0 1469.14 0 0 Z " fill="#000000" transform="translate(703,0)"/>
<path d="M0 0 C18.81 0 37.62 0 57 0 C57 1425.93 57 2851.86 57 4321 C38.19 4321 19.38 4321 0 4321 C0 2895.07 0 1469.14 0 0 Z " fill="#000000" transform="translate(635,0)"/>
<path d="M0 0 C18.81 0 37.62 0 57 0 C57 1425.93 57 2851.86 57 4321 C38.19 4321 19.38 4321 0 4321 C0 2895.07 0 1469.14 0 0 Z " fill="#000000" transform="translate(567,0)"/>
<path d="M0 0 C15.18 0 30.36 0 46 0 C46 1425.93 46 2851.86 46 4321 C30.82 4321 15.64 4321 0 4321 C0 2895.07 0 1469.14 0 0 Z " fill="#000000" transform="translate(7642,0)"/>
<path d="M0 0 C3.96 0 7.92 0 12 0 C12 1425.93 12 2851.86 12 4321 C8.04 4321 4.08 4321 0 4321 C0 2895.07 0 1469.14 0 0 Z " fill="#000000" transform="translate(0,0)"/>
</svg>
