<?xml version="1.0" encoding="UTF-8"?>
<svg xmlns="http://www.w3.org/2000/svg" xmlns:xlink="http://www.w3.org/1999/xlink" width="px" height="px" viewBox="0 0 3844 2161" version="1.1">
<g id="surface1">
<path style=" stroke:none;fill-rule:nonzero;fill:rgb(0%,0%,0%);fill-opacity:1;" d="M 3480.5 0 C 3490.070312 0 3499.640625 0 3509.5 0 C 3509.5 713.128906 3509.5 1426.261719 3509.5 2161 C 3499.929688 2161 3490.359375 2161 3480.5 2161 C 3480.5 1447.871094 3480.5 734.738281 3480.5 0 Z M 3480.5 0 "/>
<path style=" stroke:none;fill-rule:nonzero;fill:rgb(0%,0%,0%);fill-opacity:1;" d="M 3446.5 0 C 3456.070312 0 3465.640625 0 3475.5 0 C 3475.5 713.128906 3475.5 1426.261719 3475.5 2161 C 3465.929688 2161 3456.359375 2161 3446.5 2161 C 3446.5 1447.871094 3446.5 734.738281 3446.5 0 Z M 3446.5 0 "/>
<path style=" stroke:none;fill-rule:nonzero;fill:rgb(0%,0%,0%);fill-opacity:1;" d="M 3412.5 0 C 3422.070312 0 3431.640625 0 3441.5 0 C 3441.5 713.128906 3441.5 1426.261719 3441.5 2161 C 3431.929688 2161 3422.359375 2161 3412.5 2161 C 3412.5 1447.871094 3412.5 734.738281 3412.5 0 Z M 3412.5 0 "/>
<path style=" stroke:none;fill-rule:nonzero;fill:rgb(0%,0%,0%);fill-opacity:1;" d="M 3378.5 0 C 3388.070312 0 3397.640625 0 3407.5 0 C 3407.5 713.128906 3407.5 1426.261719 3407.5 2161 C 3397.929688 2161 3388.359375 2161 3378.5 2161 C 3378.5 1447.871094 3378.5 734.738281 3378.5 0 Z M 3378.5 0 "/>
<path style=" stroke:none;fill-rule:nonzero;fill:rgb(0%,0%,0%);fill-opacity:1;" d="M 3344.5 0 C 3354.070312 0 3363.640625 0 3373.5 0 C 3373.5 713.128906 3373.5 1426.261719 3373.5 2161 C 3363.929688 2161 3354.359375 2161 3344.5 2161 C 3344.5 1447.871094 3344.5 734.738281 3344.5 0 Z M 3344.5 0 "/>
<path style=" stroke:none;fill-rule:nonzero;fill:rgb(0%,0%,0%);fill-opacity:1;" d="M 3310.5 0 C 3320.070312 0 3329.640625 0 3339.5 0 C 3339.5 713.128906 3339.5 1426.261719 3339.5 2161 C 3329.929688 2161 3320.359375 2161 3310.5 2161 C 3310.5 1447.871094 3310.5 734.738281 3310.5 0 Z M 3310.5 0 "/>
<path style=" stroke:none;fill-rule:nonzero;fill:rgb(0%,0%,0%);fill-opacity:1;" d="M 3276.5 0 C 3286.070312 0 3295.640625 0 3305.5 0 C 3305.5 713.128906 3305.5 1426.261719 3305.5 2161 C 3295.929688 2161 3286.359375 2161 3276.5 2161 C 3276.5 1447.871094 3276.5 734.738281 3276.5 0 Z M 3276.5 0 "/>
<path style=" stroke:none;fill-rule:nonzero;fill:rgb(0%,0%,0%);fill-opacity:1;" d="M 3242.5 0 C 3252.070312 0 3261.640625 0 3271.5 0 C 3271.5 713.128906 3271.5 1426.261719 3271.5 2161 C 3261.929688 2161 3252.359375 2161 3242.5 2161 C 3242.5 1447.871094 3242.5 734.738281 3242.5 0 Z M 3242.5 0 "/>
<path style=" stroke:none;fill-rule:nonzero;fill:rgb(0%,0%,0%);fill-opacity:1;" d="M 3208.5 0 C 3218.070312 0 3227.640625 0 3237.5 0 C 3237.5 713.128906 3237.5 1426.261719 3237.5 2161 C 3227.929688 2161 3218.359375 2161 3208.5 2161 C 3208.5 1447.871094 3208.5 734.738281 3208.5 0 Z M 3208.5 0 "/>
<path style=" stroke:none;fill-rule:nonzero;fill:rgb(0%,0%,0%);fill-opacity:1;" d="M 3174.5 0 C 3184.070312 0 3193.640625 0 3203.5 0 C 3203.5 713.128906 3203.5 1426.261719 3203.5 2161 C 3193.929688 2161 3184.359375 2161 3174.5 2161 C 3174.5 1447.871094 3174.5 734.738281 3174.5 0 Z M 3174.5 0 "/>
<path style=" stroke:none;fill-rule:nonzero;fill:rgb(0%,0%,0%);fill-opacity:1;" d="M 3140.5 0 C 3150.070312 0 3159.640625 0 3169.5 0 C 3169.5 713.128906 3169.5 1426.261719 3169.5 2161 C 3159.929688 2161 3150.359375 2161 3140.5 2161 C 3140.5 1447.871094 3140.5 734.738281 3140.5 0 Z M 3140.5 0 "/>
<path style=" stroke:none;fill-rule:nonzero;fill:rgb(0%,0%,0%);fill-opacity:1;" d="M 3106.5 0 C 3116.070312 0 3125.640625 0 3135.5 0 C 3135.5 713.128906 3135.5 1426.261719 3135.5 2161 C 3125.929688 2161 3116.359375 2161 3106.5 2161 C 3106.5 1447.871094 3106.5 734.738281 3106.5 0 Z M 3106.5 0 "/>
<path style=" stroke:none;fill-rule:nonzero;fill:rgb(0%,0%,0%);fill-opacity:1;" d="M 3072.5 0 C 3082.070312 0 3091.640625 0 3101.5 0 C 3101.5 713.128906 3101.5 1426.261719 3101.5 2161 C 3091.929688 2161 3082.359375 2161 3072.5 2161 C 3072.5 1447.871094 3072.5 734.738281 3072.5 0 Z M 3072.5 0 "/>
<path style=" stroke:none;fill-rule:nonzero;fill:rgb(0%,0%,0%);fill-opacity:1;" d="M 3038.5 0 C 3048.070312 0 3057.640625 0 3067.5 0 C 3067.5 713.128906 3067.5 1426.261719 3067.5 2161 C 3057.929688 2161 3048.359375 2161 3038.5 2161 C 3038.5 1447.871094 3038.5 734.738281 3038.5 0 Z M 3038.5 0 "/>
<path style=" stroke:none;fill-rule:nonzero;fill:rgb(0%,0%,0%);fill-opacity:1;" d="M 3004.5 0 C 3014.070312 0 3023.640625 0 3033.5 0 C 3033.5 713.128906 3033.5 1426.261719 3033.5 2161 C 3023.929688 2161 3014.359375 2161 3004.5 2161 C 3004.5 1447.871094 3004.5 734.738281 3004.5 0 Z M 3004.5 0 "/>
<path style=" stroke:none;fill-rule:nonzero;fill:rgb(0%,0%,0%);fill-opacity:1;" d="M 2970.5 0 C 2980.070312 0 2989.640625 0 2999.5 0 C 2999.5 713.128906 2999.5 1426.261719 2999.5 2161 C 2989.929688 2161 2980.359375 2161 2970.5 2161 C 2970.5 1447.871094 2970.5 734.738281 2970.5 0 Z M 2970.5 0 "/>
<path style=" stroke:none;fill-rule:nonzero;fill:rgb(0%,0%,0%);fill-opacity:1;" d="M 2936.5 0 C 2946.070312 0 2955.640625 0 2965.5 0 C 2965.5 713.128906 2965.5 1426.261719 2965.5 2161 C 2955.929688 2161 2946.359375 2161 2936.5 2161 C 2936.5 1447.871094 2936.5 734.738281 2936.5 0 Z M 2936.5 0 "/>
<path style=" stroke:none;fill-rule:nonzero;fill:rgb(0%,0%,0%);fill-opacity:1;" d="M 2902.5 0 C 2912.070312 0 2921.640625 0 2931.5 0 C 2931.5 713.128906 2931.5 1426.261719 2931.5 2161 C 2921.929688 2161 2912.359375 2161 2902.5 2161 C 2902.5 1447.871094 2902.5 734.738281 2902.5 0 Z M 2902.5 0 "/>
<path style=" stroke:none;fill-rule:nonzero;fill:rgb(0%,0%,0%);fill-opacity:1;" d="M 2868.5 0 C 2878.070312 0 2887.640625 0 2897.5 0 C 2897.5 713.128906 2897.5 1426.261719 2897.5 2161 C 2887.929688 2161 2878.359375 2161 2868.5 2161 C 2868.5 1447.871094 2868.5 734.738281 2868.5 0 Z M 2868.5 0 "/>
<path style=" stroke:none;fill-rule:nonzero;fill:rgb(0%,0%,0%);fill-opacity:1;" d="M 2834.5 0 C 2844.070312 0 2853.640625 0 2863.5 0 C 2863.5 713.128906 2863.5 1426.261719 2863.5 2161 C 2853.929688 2161 2844.359375 2161 2834.5 2161 C 2834.5 1447.871094 2834.5 734.738281 2834.5 0 Z M 2834.5 0 "/>
<path style=" stroke:none;fill-rule:nonzero;fill:rgb(0%,0%,0%);fill-opacity:1;" d="M 2800.5 0 C 2810.070312 0 2819.640625 0 2829.5 0 C 2829.5 713.128906 2829.5 1426.261719 2829.5 2161 C 2819.929688 2161 2810.359375 2161 2800.5 2161 C 2800.5 1447.871094 2800.5 734.738281 2800.5 0 Z M 2800.5 0 "/>
<path style=" stroke:none;fill-rule:nonzero;fill:rgb(0%,0%,0%);fill-opacity:1;" d="M 2766.5 0 C 2776.070312 0 2785.640625 0 2795.5 0 C 2795.5 713.128906 2795.5 1426.261719 2795.5 2161 C 2785.929688 2161 2776.359375 2161 2766.5 2161 C 2766.5 1447.871094 2766.5 734.738281 2766.5 0 Z M 2766.5 0 "/>
<path style=" stroke:none;fill-rule:nonzero;fill:rgb(0%,0%,0%);fill-opacity:1;" d="M 2392 0 C 2401.570312 0 2411.140625 0 2421 0 C 2421 713.128906 2421 1426.261719 2421 2161 C 2411.429688 2161 2401.859375 2161 2392 2161 C 2392 1447.871094 2392 734.738281 2392 0 Z M 2392 0 "/>
<path style=" stroke:none;fill-rule:nonzero;fill:rgb(0%,0%,0%);fill-opacity:1;" d="M 2358 0 C 2367.570312 0 2377.140625 0 2387 0 C 2387 713.128906 2387 1426.261719 2387 2161 C 2377.429688 2161 2367.859375 2161 2358 2161 C 2358 1447.871094 2358 734.738281 2358 0 Z M 2358 0 "/>
<path style=" stroke:none;fill-rule:nonzero;fill:rgb(0%,0%,0%);fill-opacity:1;" d="M 2324 0 C 2333.570312 0 2343.140625 0 2353 0 C 2353 713.128906 2353 1426.261719 2353 2161 C 2343.429688 2161 2333.859375 2161 2324 2161 C 2324 1447.871094 2324 734.738281 2324 0 Z M 2324 0 "/>
<path style=" stroke:none;fill-rule:nonzero;fill:rgb(0%,0%,0%);fill-opacity:1;" d="M 2290 0 C 2299.570312 0 2309.140625 0 2319 0 C 2319 713.128906 2319 1426.261719 2319 2161 C 2309.429688 2161 2299.859375 2161 2290 2161 C 2290 1447.871094 2290 734.738281 2290 0 Z M 2290 0 "/>
<path style=" stroke:none;fill-rule:nonzero;fill:rgb(0%,0%,0%);fill-opacity:1;" d="M 2256 0 C 2265.570312 0 2275.140625 0 2285 0 C 2285 713.128906 2285 1426.261719 2285 2161 C 2275.429688 2161 2265.859375 2161 2256 2161 C 2256 1447.871094 2256 734.738281 2256 0 Z M 2256 0 "/>
<path style=" stroke:none;fill-rule:nonzero;fill:rgb(0%,0%,0%);fill-opacity:1;" d="M 2222 0 C 2231.570312 0 2241.140625 0 2251 0 C 2251 713.128906 2251 1426.261719 2251 2161 C 2241.429688 2161 2231.859375 2161 2222 2161 C 2222 1447.871094 2222 734.738281 2222 0 Z M 2222 0 "/>
<path style=" stroke:none;fill-rule:nonzero;fill:rgb(0%,0%,0%);fill-opacity:1;" d="M 2188 0 C 2197.570312 0 2207.140625 0 2217 0 C 2217 713.128906 2217 1426.261719 2217 2161 C 2207.429688 2161 2197.859375 2161 2188 2161 C 2188 1447.871094 2188 734.738281 2188 0 Z M 2188 0 "/>
<path style=" stroke:none;fill-rule:nonzero;fill:rgb(0%,0%,0%);fill-opacity:1;" d="M 2154 0 C 2163.570312 0 2173.140625 0 2183 0 C 2183 713.128906 2183 1426.261719 2183 2161 C 2173.429688 2161 2163.859375 2161 2154 2161 C 2154 1447.871094 2154 734.738281 2154 0 Z M 2154 0 "/>
<path style=" stroke:none;fill-rule:nonzero;fill:rgb(0%,0%,0%);fill-opacity:1;" d="M 2120 0 C 2129.570312 0 2139.140625 0 2149 0 C 2149 713.128906 2149 1426.261719 2149 2161 C 2139.429688 2161 2129.859375 2161 2120 2161 C 2120 1447.871094 2120 734.738281 2120 0 Z M 2120 0 "/>
<path style=" stroke:none;fill-rule:nonzero;fill:rgb(0%,0%,0%);fill-opacity:1;" d="M 2086 0 C 2095.570312 0 2105.140625 0 2115 0 C 2115 713.128906 2115 1426.261719 2115 2161 C 2105.429688 2161 2095.859375 2161 2086 2161 C 2086 1447.871094 2086 734.738281 2086 0 Z M 2086 0 "/>
<path style=" stroke:none;fill-rule:nonzero;fill:rgb(0%,0%,0%);fill-opacity:1;" d="M 2052 0 C 2061.570312 0 2071.140625 0 2081 0 C 2081 713.128906 2081 1426.261719 2081 2161 C 2071.429688 2161 2061.859375 2161 2052 2161 C 2052 1447.871094 2052 734.738281 2052 0 Z M 2052 0 "/>
<path style=" stroke:none;fill-rule:nonzero;fill:rgb(0%,0%,0%);fill-opacity:1;" d="M 2018 0 C 2027.570312 0 2037.140625 0 2047 0 C 2047 713.128906 2047 1426.261719 2047 2161 C 2037.429688 2161 2027.859375 2161 2018 2161 C 2018 1447.871094 2018 734.738281 2018 0 Z M 2018 0 "/>
<path style=" stroke:none;fill-rule:nonzero;fill:rgb(0%,0%,0%);fill-opacity:1;" d="M 1984 0 C 1993.570312 0 2003.140625 0 2013 0 C 2013 713.128906 2013 1426.261719 2013 2161 C 2003.429688 2161 1993.859375 2161 1984 2161 C 1984 1447.871094 1984 734.738281 1984 0 Z M 1984 0 "/>
<path style=" stroke:none;fill-rule:nonzero;fill:rgb(0%,0%,0%);fill-opacity:1;" d="M 1950 0 C 1959.570312 0 1969.140625 0 1979 0 C 1979 713.128906 1979 1426.261719 1979 2161 C 1969.429688 2161 1959.859375 2161 1950 2161 C 1950 1447.871094 1950 734.738281 1950 0 Z M 1950 0 "/>
<path style=" stroke:none;fill-rule:nonzero;fill:rgb(0%,0%,0%);fill-opacity:1;" d="M 1916 0 C 1925.570312 0 1935.140625 0 1945 0 C 1945 713.128906 1945 1426.261719 1945 2161 C 1935.429688 2161 1925.859375 2161 1916 2161 C 1916 1447.871094 1916 734.738281 1916 0 Z M 1916 0 "/>
<path style=" stroke:none;fill-rule:nonzero;fill:rgb(0%,0%,0%);fill-opacity:1;" d="M 1882 0 C 1891.570312 0 1901.140625 0 1911 0 C 1911 713.128906 1911 1426.261719 1911 2161 C 1901.429688 2161 1891.859375 2161 1882 2161 C 1882 1447.871094 1882 734.738281 1882 0 Z M 1882 0 "/>
<path style=" stroke:none;fill-rule:nonzero;fill:rgb(0%,0%,0%);fill-opacity:1;" d="M 1848 0 C 1857.570312 0 1867.140625 0 1877 0 C 1877 713.128906 1877 1426.261719 1877 2161 C 1867.429688 2161 1857.859375 2161 1848 2161 C 1848 1447.871094 1848 734.738281 1848 0 Z M 1848 0 "/>
<path style=" stroke:none;fill-rule:nonzero;fill:rgb(0%,0%,0%);fill-opacity:1;" d="M 1814 0 C 1823.570312 0 1833.140625 0 1843 0 C 1843 713.128906 1843 1426.261719 1843 2161 C 1833.429688 2161 1823.859375 2161 1814 2161 C 1814 1447.871094 1814 734.738281 1814 0 Z M 1814 0 "/>
<path style=" stroke:none;fill-rule:nonzero;fill:rgb(0%,0%,0%);fill-opacity:1;" d="M 1780 0 C 1789.570312 0 1799.140625 0 1809 0 C 1809 713.128906 1809 1426.261719 1809 2161 C 1799.429688 2161 1789.859375 2161 1780 2161 C 1780 1447.871094 1780 734.738281 1780 0 Z M 1780 0 "/>
<path style=" stroke:none;fill-rule:nonzero;fill:rgb(0%,0%,0%);fill-opacity:1;" d="M 1746 0 C 1755.570312 0 1765.140625 0 1775 0 C 1775 713.128906 1775 1426.261719 1775 2161 C 1765.429688 2161 1755.859375 2161 1746 2161 C 1746 1447.871094 1746 734.738281 1746 0 Z M 1746 0 "/>
<path style=" stroke:none;fill-rule:nonzero;fill:rgb(0%,0%,0%);fill-opacity:1;" d="M 1712 0 C 1721.570312 0 1731.140625 0 1741 0 C 1741 713.128906 1741 1426.261719 1741 2161 C 1731.429688 2161 1721.859375 2161 1712 2161 C 1712 1447.871094 1712 734.738281 1712 0 Z M 1712 0 "/>
<path style=" stroke:none;fill-rule:nonzero;fill:rgb(0%,0%,0%);fill-opacity:1;" d="M 1678 0 C 1687.570312 0 1697.140625 0 1707 0 C 1707 713.128906 1707 1426.261719 1707 2161 C 1697.429688 2161 1687.859375 2161 1678 2161 C 1678 1447.871094 1678 734.738281 1678 0 Z M 1678 0 "/>
<path style=" stroke:none;fill-rule:nonzero;fill:rgb(0%,0%,0%);fill-opacity:1;" d="M 1337.5 0 C 1347.070312 0 1356.640625 0 1366.5 0 C 1366.5 713.128906 1366.5 1426.261719 1366.5 2161 C 1356.929688 2161 1347.359375 2161 1337.5 2161 C 1337.5 1447.871094 1337.5 734.738281 1337.5 0 Z M 1337.5 0 "/>
<path style=" stroke:none;fill-rule:nonzero;fill:rgb(0%,0%,0%);fill-opacity:1;" d="M 1303.5 0 C 1313.070312 0 1322.640625 0 1332.5 0 C 1332.5 713.128906 1332.5 1426.261719 1332.5 2161 C 1322.929688 2161 1313.359375 2161 1303.5 2161 C 1303.5 1447.871094 1303.5 734.738281 1303.5 0 Z M 1303.5 0 "/>
<path style=" stroke:none;fill-rule:nonzero;fill:rgb(0%,0%,0%);fill-opacity:1;" d="M 1269.5 0 C 1279.070312 0 1288.640625 0 1298.5 0 C 1298.5 713.128906 1298.5 1426.261719 1298.5 2161 C 1288.929688 2161 1279.359375 2161 1269.5 2161 C 1269.5 1447.871094 1269.5 734.738281 1269.5 0 Z M 1269.5 0 "/>
<path style=" stroke:none;fill-rule:nonzero;fill:rgb(0%,0%,0%);fill-opacity:1;" d="M 1235.5 0 C 1245.070312 0 1254.640625 0 1264.5 0 C 1264.5 713.128906 1264.5 1426.261719 1264.5 2161 C 1254.929688 2161 1245.359375 2161 1235.5 2161 C 1235.5 1447.871094 1235.5 734.738281 1235.5 0 Z M 1235.5 0 "/>
<path style=" stroke:none;fill-rule:nonzero;fill:rgb(0%,0%,0%);fill-opacity:1;" d="M 1201.5 0 C 1211.070312 0 1220.640625 0 1230.5 0 C 1230.5 713.128906 1230.5 1426.261719 1230.5 2161 C 1220.929688 2161 1211.359375 2161 1201.5 2161 C 1201.5 1447.871094 1201.5 734.738281 1201.5 0 Z M 1201.5 0 "/>
<path style=" stroke:none;fill-rule:nonzero;fill:rgb(0%,0%,0%);fill-opacity:1;" d="M 1167.5 0 C 1177.070312 0 1186.640625 0 1196.5 0 C 1196.5 713.128906 1196.5 1426.261719 1196.5 2161 C 1186.929688 2161 1177.359375 2161 1167.5 2161 C 1167.5 1447.871094 1167.5 734.738281 1167.5 0 Z M 1167.5 0 "/>
<path style=" stroke:none;fill-rule:nonzero;fill:rgb(0%,0%,0%);fill-opacity:1;" d="M 1133.5 0 C 1143.070312 0 1152.640625 0 1162.5 0 C 1162.5 713.128906 1162.5 1426.261719 1162.5 2161 C 1152.929688 2161 1143.359375 2161 1133.5 2161 C 1133.5 1447.871094 1133.5 734.738281 1133.5 0 Z M 1133.5 0 "/>
<path style=" stroke:none;fill-rule:nonzero;fill:rgb(0%,0%,0%);fill-opacity:1;" d="M 1099.5 0 C 1109.070312 0 1118.640625 0 1128.5 0 C 1128.5 713.128906 1128.5 1426.261719 1128.5 2161 C 1118.929688 2161 1109.359375 2161 1099.5 2161 C 1099.5 1447.871094 1099.5 734.738281 1099.5 0 Z M 1099.5 0 "/>
<path style=" stroke:none;fill-rule:nonzero;fill:rgb(0%,0%,0%);fill-opacity:1;" d="M 1065.5 0 C 1075.070312 0 1084.640625 0 1094.5 0 C 1094.5 713.128906 1094.5 1426.261719 1094.5 2161 C 1084.929688 2161 1075.359375 2161 1065.5 2161 C 1065.5 1447.871094 1065.5 734.738281 1065.5 0 Z M 1065.5 0 "/>
<path style=" stroke:none;fill-rule:nonzero;fill:rgb(0%,0%,0%);fill-opacity:1;" d="M 1031.5 0 C 1041.070312 0 1050.640625 0 1060.5 0 C 1060.5 713.128906 1060.5 1426.261719 1060.5 2161 C 1050.929688 2161 1041.359375 2161 1031.5 2161 C 1031.5 1447.871094 1031.5 734.738281 1031.5 0 Z M 1031.5 0 "/>
<path style=" stroke:none;fill-rule:nonzero;fill:rgb(0%,0%,0%);fill-opacity:1;" d="M 997.5 0 C 1007.070312 0 1016.640625 0 1026.5 0 C 1026.5 713.128906 1026.5 1426.261719 1026.5 2161 C 1016.929688 2161 1007.359375 2161 997.5 2161 C 997.5 1447.871094 997.5 734.738281 997.5 0 Z M 997.5 0 "/>
<path style=" stroke:none;fill-rule:nonzero;fill:rgb(0%,0%,0%);fill-opacity:1;" d="M 963.5 0 C 973.070312 0 982.640625 0 992.5 0 C 992.5 713.128906 992.5 1426.261719 992.5 2161 C 982.929688 2161 973.359375 2161 963.5 2161 C 963.5 1447.871094 963.5 734.738281 963.5 0 Z M 963.5 0 "/>
<path style=" stroke:none;fill-rule:nonzero;fill:rgb(0%,0%,0%);fill-opacity:1;" d="M 929.5 0 C 939.070312 0 948.640625 0 958.5 0 C 958.5 713.128906 958.5 1426.261719 958.5 2161 C 948.929688 2161 939.359375 2161 929.5 2161 C 929.5 1447.871094 929.5 734.738281 929.5 0 Z M 929.5 0 "/>
<path style=" stroke:none;fill-rule:nonzero;fill:rgb(0%,0%,0%);fill-opacity:1;" d="M 895.5 0 C 905.070312 0 914.640625 0 924.5 0 C 924.5 713.128906 924.5 1426.261719 924.5 2161 C 914.929688 2161 905.359375 2161 895.5 2161 C 895.5 1447.871094 895.5 734.738281 895.5 0 Z M 895.5 0 "/>
<path style=" stroke:none;fill-rule:nonzero;fill:rgb(0%,0%,0%);fill-opacity:1;" d="M 861.5 0 C 871.070312 0 880.640625 0 890.5 0 C 890.5 713.128906 890.5 1426.261719 890.5 2161 C 880.929688 2161 871.359375 2161 861.5 2161 C 861.5 1447.871094 861.5 734.738281 861.5 0 Z M 861.5 0 "/>
<path style=" stroke:none;fill-rule:nonzero;fill:rgb(0%,0%,0%);fill-opacity:1;" d="M 827.5 0 C 837.070312 0 846.640625 0 856.5 0 C 856.5 713.128906 856.5 1426.261719 856.5 2161 C 846.929688 2161 837.359375 2161 827.5 2161 C 827.5 1447.871094 827.5 734.738281 827.5 0 Z M 827.5 0 "/>
<path style=" stroke:none;fill-rule:nonzero;fill:rgb(0%,0%,0%);fill-opacity:1;" d="M 793.5 0 C 803.070312 0 812.640625 0 822.5 0 C 822.5 713.128906 822.5 1426.261719 822.5 2161 C 812.929688 2161 803.359375 2161 793.5 2161 C 793.5 1447.871094 793.5 734.738281 793.5 0 Z M 793.5 0 "/>
<path style=" stroke:none;fill-rule:nonzero;fill:rgb(0%,0%,0%);fill-opacity:1;" d="M 759.5 0 C 769.070312 0 778.640625 0 788.5 0 C 788.5 713.128906 788.5 1426.261719 788.5 2161 C 778.929688 2161 769.359375 2161 759.5 2161 C 759.5 1447.871094 759.5 734.738281 759.5 0 Z M 759.5 0 "/>
<path style=" stroke:none;fill-rule:nonzero;fill:rgb(0%,0%,0%);fill-opacity:1;" d="M 725.5 0 C 735.070312 0 744.640625 0 754.5 0 C 754.5 713.128906 754.5 1426.261719 754.5 2161 C 744.929688 2161 735.359375 2161 725.5 2161 C 725.5 1447.871094 725.5 734.738281 725.5 0 Z M 725.5 0 "/>
<path style=" stroke:none;fill-rule:nonzero;fill:rgb(0%,0%,0%);fill-opacity:1;" d="M 691.5 0 C 701.070312 0 710.640625 0 720.5 0 C 720.5 713.128906 720.5 1426.261719 720.5 2161 C 710.929688 2161 701.359375 2161 691.5 2161 C 691.5 1447.871094 691.5 734.738281 691.5 0 Z M 691.5 0 "/>
<path style=" stroke:none;fill-rule:nonzero;fill:rgb(0%,0%,0%);fill-opacity:1;" d="M 657.5 0 C 667.070312 0 676.640625 0 686.5 0 C 686.5 713.128906 686.5 1426.261719 686.5 2161 C 676.929688 2161 667.359375 2161 657.5 2161 C 657.5 1447.871094 657.5 734.738281 657.5 0 Z M 657.5 0 "/>
<path style=" stroke:none;fill-rule:nonzero;fill:rgb(0%,0%,0%);fill-opacity:1;" d="M 623.5 0 C 633.070312 0 642.640625 0 652.5 0 C 652.5 713.128906 652.5 1426.261719 652.5 2161 C 642.929688 2161 633.359375 2161 623.5 2161 C 623.5 1447.871094 623.5 734.738281 623.5 0 Z M 623.5 0 "/>
<path style=" stroke:none;fill-rule:nonzero;fill:rgb(0%,0%,0%);fill-opacity:1;" d="M 249 0 C 258.570312 0 268.140625 0 278 0 C 278 713.128906 278 1426.261719 278 2161 C 268.429688 2161 258.859375 2161 249 2161 C 249 1447.871094 249 734.738281 249 0 Z M 249 0 "/>
<path style=" stroke:none;fill-rule:nonzero;fill:rgb(0%,0%,0%);fill-opacity:1;" d="M 215 0 C 224.570312 0 234.140625 0 244 0 C 244 713.128906 244 1426.261719 244 2161 C 234.429688 2161 224.859375 2161 215 2161 C 215 1447.871094 215 734.738281 215 0 Z M 215 0 "/>
<path style=" stroke:none;fill-rule:nonzero;fill:rgb(0%,0%,0%);fill-opacity:1;" d="M 181 0 C 190.570312 0 200.140625 0 210 0 C 210 713.128906 210 1426.261719 210 2161 C 200.429688 2161 190.859375 2161 181 2161 C 181 1447.871094 181 734.738281 181 0 Z M 181 0 "/>
<path style=" stroke:none;fill-rule:nonzero;fill:rgb(0%,0%,0%);fill-opacity:1;" d="M 147 0 C 156.570312 0 166.140625 0 176 0 C 176 713.128906 176 1426.261719 176 2161 C 166.429688 2161 156.859375 2161 147 2161 C 147 1447.871094 147 734.738281 147 0 Z M 147 0 "/>
<path style=" stroke:none;fill-rule:nonzero;fill:rgb(0%,0%,0%);fill-opacity:1;" d="M 113 0 C 122.570312 0 132.140625 0 142 0 C 142 713.128906 142 1426.261719 142 2161 C 132.429688 2161 122.859375 2161 113 2161 C 113 1447.871094 113 734.738281 113 0 Z M 113 0 "/>
<path style=" stroke:none;fill-rule:nonzero;fill:rgb(0%,0%,0%);fill-opacity:1;" d="M 79 0 C 88.570312 0 98.140625 0 108 0 C 108 713.128906 108 1426.261719 108 2161 C 98.429688 2161 88.859375 2161 79 2161 C 79 1447.871094 79 734.738281 79 0 Z M 79 0 "/>
<path style=" stroke:none;fill-rule:nonzero;fill:rgb(0%,0%,0%);fill-opacity:1;" d="M 45 0 C 54.570312 0 64.140625 0 74 0 C 74 713.128906 74 1426.261719 74 2161 C 64.429688 2161 54.859375 2161 45 2161 C 45 1447.871094 45 734.738281 45 0 Z M 45 0 "/>
<path style=" stroke:none;fill-rule:nonzero;fill:rgb(0%,0%,0%);fill-opacity:1;" d="M 11 0 C 20.570312 0 30.140625 0 40 0 C 40 713.128906 40 1426.261719 40 2161 C 30.429688 2161 20.859375 2161 11 2161 C 11 1447.871094 11 734.738281 11 0 Z M 11 0 "/>
<path style=" stroke:none;fill-rule:nonzero;fill:rgb(0%,0%,0%);fill-opacity:1;" d="M 3787 0 C 3796.40625 0 3805.808594 0 3815.5 0 C 3815.5 713.128906 3815.5 1426.261719 3815.5 2161 C 3806.09375 2161 3796.691406 2161 3787 2161 C 3787 1447.871094 3787 734.738281 3787 0 Z M 3787 0 "/>
<path style=" stroke:none;fill-rule:nonzero;fill:rgb(0%,0%,0%);fill-opacity:1;" d="M 3753 0 C 3762.40625 0 3771.808594 0 3781.5 0 C 3781.5 713.128906 3781.5 1426.261719 3781.5 2161 C 3772.09375 2161 3762.691406 2161 3753 2161 C 3753 1447.871094 3753 734.738281 3753 0 Z M 3753 0 "/>
<path style=" stroke:none;fill-rule:nonzero;fill:rgb(0%,0%,0%);fill-opacity:1;" d="M 3719 0 C 3728.40625 0 3737.808594 0 3747.5 0 C 3747.5 713.128906 3747.5 1426.261719 3747.5 2161 C 3738.09375 2161 3728.691406 2161 3719 2161 C 3719 1447.871094 3719 734.738281 3719 0 Z M 3719 0 "/>
<path style=" stroke:none;fill-rule:nonzero;fill:rgb(0%,0%,0%);fill-opacity:1;" d="M 3685 0 C 3694.40625 0 3703.808594 0 3713.5 0 C 3713.5 713.128906 3713.5 1426.261719 3713.5 2161 C 3704.09375 2161 3694.691406 2161 3685 2161 C 3685 1447.871094 3685 734.738281 3685 0 Z M 3685 0 "/>
<path style=" stroke:none;fill-rule:nonzero;fill:rgb(0%,0%,0%);fill-opacity:1;" d="M 3651 0 C 3660.40625 0 3669.808594 0 3679.5 0 C 3679.5 713.128906 3679.5 1426.261719 3679.5 2161 C 3670.09375 2161 3660.691406 2161 3651 2161 C 3651 1447.871094 3651 734.738281 3651 0 Z M 3651 0 "/>
<path style=" stroke:none;fill-rule:nonzero;fill:rgb(0%,0%,0%);fill-opacity:1;" d="M 3617 0 C 3626.40625 0 3635.808594 0 3645.5 0 C 3645.5 713.128906 3645.5 1426.261719 3645.5 2161 C 3636.09375 2161 3626.691406 2161 3617 2161 C 3617 1447.871094 3617 734.738281 3617 0 Z M 3617 0 "/>
<path style=" stroke:none;fill-rule:nonzero;fill:rgb(0%,0%,0%);fill-opacity:1;" d="M 3583 0 C 3592.40625 0 3601.808594 0 3611.5 0 C 3611.5 713.128906 3611.5 1426.261719 3611.5 2161 C 3602.09375 2161 3592.691406 2161 3583 2161 C 3583 1447.871094 3583 734.738281 3583 0 Z M 3583 0 "/>
<path style=" stroke:none;fill-rule:nonzero;fill:rgb(0%,0%,0%);fill-opacity:1;" d="M 3549 0 C 3558.40625 0 3567.808594 0 3577.5 0 C 3577.5 713.128906 3577.5 1426.261719 3577.5 2161 C 3568.09375 2161 3558.691406 2161 3549 2161 C 3549 1447.871094 3549 734.738281 3549 0 Z M 3549 0 "/>
<path style=" stroke:none;fill-rule:nonzero;fill:rgb(0%,0%,0%);fill-opacity:1;" d="M 3515 0 C 3524.40625 0 3533.808594 0 3543.5 0 C 3543.5 713.128906 3543.5 1426.261719 3543.5 2161 C 3534.09375 2161 3524.691406 2161 3515 2161 C 3515 1447.871094 3515 734.738281 3515 0 Z M 3515 0 "/>
<path style=" stroke:none;fill-rule:nonzero;fill:rgb(0%,0%,0%);fill-opacity:1;" d="M 2732.5 0 C 2741.90625 0 2751.308594 0 2761 0 C 2761 713.128906 2761 1426.261719 2761 2161 C 2751.59375 2161 2742.191406 2161 2732.5 2161 C 2732.5 1447.871094 2732.5 734.738281 2732.5 0 Z M 2732.5 0 "/>
<path style=" stroke:none;fill-rule:nonzero;fill:rgb(0%,0%,0%);fill-opacity:1;" d="M 2698.5 0 C 2707.90625 0 2717.308594 0 2727 0 C 2727 713.128906 2727 1426.261719 2727 2161 C 2717.59375 2161 2708.191406 2161 2698.5 2161 C 2698.5 1447.871094 2698.5 734.738281 2698.5 0 Z M 2698.5 0 "/>
<path style=" stroke:none;fill-rule:nonzero;fill:rgb(0%,0%,0%);fill-opacity:1;" d="M 2664.5 0 C 2673.90625 0 2683.308594 0 2693 0 C 2693 713.128906 2693 1426.261719 2693 2161 C 2683.59375 2161 2674.191406 2161 2664.5 2161 C 2664.5 1447.871094 2664.5 734.738281 2664.5 0 Z M 2664.5 0 "/>
<path style=" stroke:none;fill-rule:nonzero;fill:rgb(0%,0%,0%);fill-opacity:1;" d="M 2630.5 0 C 2639.90625 0 2649.308594 0 2659 0 C 2659 713.128906 2659 1426.261719 2659 2161 C 2649.59375 2161 2640.191406 2161 2630.5 2161 C 2630.5 1447.871094 2630.5 734.738281 2630.5 0 Z M 2630.5 0 "/>
<path style=" stroke:none;fill-rule:nonzero;fill:rgb(0%,0%,0%);fill-opacity:1;" d="M 2596.5 0 C 2605.90625 0 2615.308594 0 2625 0 C 2625 713.128906 2625 1426.261719 2625 2161 C 2615.59375 2161 2606.191406 2161 2596.5 2161 C 2596.5 1447.871094 2596.5 734.738281 2596.5 0 Z M 2596.5 0 "/>
<path style=" stroke:none;fill-rule:nonzero;fill:rgb(0%,0%,0%);fill-opacity:1;" d="M 2562.5 0 C 2571.90625 0 2581.308594 0 2591 0 C 2591 713.128906 2591 1426.261719 2591 2161 C 2581.59375 2161 2572.191406 2161 2562.5 2161 C 2562.5 1447.871094 2562.5 734.738281 2562.5 0 Z M 2562.5 0 "/>
<path style=" stroke:none;fill-rule:nonzero;fill:rgb(0%,0%,0%);fill-opacity:1;" d="M 2528.5 0 C 2537.90625 0 2547.308594 0 2557 0 C 2557 713.128906 2557 1426.261719 2557 2161 C 2547.59375 2161 2538.191406 2161 2528.5 2161 C 2528.5 1447.871094 2528.5 734.738281 2528.5 0 Z M 2528.5 0 "/>
<path style=" stroke:none;fill-rule:nonzero;fill:rgb(0%,0%,0%);fill-opacity:1;" d="M 2494.5 0 C 2503.90625 0 2513.308594 0 2523 0 C 2523 713.128906 2523 1426.261719 2523 2161 C 2513.59375 2161 2504.191406 2161 2494.5 2161 C 2494.5 1447.871094 2494.5 734.738281 2494.5 0 Z M 2494.5 0 "/>
<path style=" stroke:none;fill-rule:nonzero;fill:rgb(0%,0%,0%);fill-opacity:1;" d="M 2460.5 0 C 2469.90625 0 2479.308594 0 2489 0 C 2489 713.128906 2489 1426.261719 2489 2161 C 2479.59375 2161 2470.191406 2161 2460.5 2161 C 2460.5 1447.871094 2460.5 734.738281 2460.5 0 Z M 2460.5 0 "/>
<path style=" stroke:none;fill-rule:nonzero;fill:rgb(0%,0%,0%);fill-opacity:1;" d="M 2426.5 0 C 2435.90625 0 2445.308594 0 2455 0 C 2455 713.128906 2455 1426.261719 2455 2161 C 2445.59375 2161 2436.191406 2161 2426.5 2161 C 2426.5 1447.871094 2426.5 734.738281 2426.5 0 Z M 2426.5 0 "/>
<path style=" stroke:none;fill-rule:nonzero;fill:rgb(0%,0%,0%);fill-opacity:1;" d="M 1644 0 C 1653.40625 0 1662.808594 0 1672.5 0 C 1672.5 713.128906 1672.5 1426.261719 1672.5 2161 C 1663.09375 2161 1653.691406 2161 1644 2161 C 1644 1447.871094 1644 734.738281 1644 0 Z M 1644 0 "/>
<path style=" stroke:none;fill-rule:nonzero;fill:rgb(0%,0%,0%);fill-opacity:1;" d="M 1610 0 C 1619.40625 0 1628.808594 0 1638.5 0 C 1638.5 713.128906 1638.5 1426.261719 1638.5 2161 C 1629.09375 2161 1619.691406 2161 1610 2161 C 1610 1447.871094 1610 734.738281 1610 0 Z M 1610 0 "/>
<path style=" stroke:none;fill-rule:nonzero;fill:rgb(0%,0%,0%);fill-opacity:1;" d="M 1576 0 C 1585.40625 0 1594.808594 0 1604.5 0 C 1604.5 713.128906 1604.5 1426.261719 1604.5 2161 C 1595.09375 2161 1585.691406 2161 1576 2161 C 1576 1447.871094 1576 734.738281 1576 0 Z M 1576 0 "/>
<path style=" stroke:none;fill-rule:nonzero;fill:rgb(0%,0%,0%);fill-opacity:1;" d="M 1542 0 C 1551.40625 0 1560.808594 0 1570.5 0 C 1570.5 713.128906 1570.5 1426.261719 1570.5 2161 C 1561.09375 2161 1551.691406 2161 1542 2161 C 1542 1447.871094 1542 734.738281 1542 0 Z M 1542 0 "/>
<path style=" stroke:none;fill-rule:nonzero;fill:rgb(0%,0%,0%);fill-opacity:1;" d="M 1508 0 C 1517.40625 0 1526.808594 0 1536.5 0 C 1536.5 713.128906 1536.5 1426.261719 1536.5 2161 C 1527.09375 2161 1517.691406 2161 1508 2161 C 1508 1447.871094 1508 734.738281 1508 0 Z M 1508 0 "/>
<path style=" stroke:none;fill-rule:nonzero;fill:rgb(0%,0%,0%);fill-opacity:1;" d="M 1474 0 C 1483.40625 0 1492.808594 0 1502.5 0 C 1502.5 713.128906 1502.5 1426.261719 1502.5 2161 C 1493.09375 2161 1483.691406 2161 1474 2161 C 1474 1447.871094 1474 734.738281 1474 0 Z M 1474 0 "/>
<path style=" stroke:none;fill-rule:nonzero;fill:rgb(0%,0%,0%);fill-opacity:1;" d="M 1440 0 C 1449.40625 0 1458.808594 0 1468.5 0 C 1468.5 713.128906 1468.5 1426.261719 1468.5 2161 C 1459.09375 2161 1449.691406 2161 1440 2161 C 1440 1447.871094 1440 734.738281 1440 0 Z M 1440 0 "/>
<path style=" stroke:none;fill-rule:nonzero;fill:rgb(0%,0%,0%);fill-opacity:1;" d="M 1406 0 C 1415.40625 0 1424.808594 0 1434.5 0 C 1434.5 713.128906 1434.5 1426.261719 1434.5 2161 C 1425.09375 2161 1415.691406 2161 1406 2161 C 1406 1447.871094 1406 734.738281 1406 0 Z M 1406 0 "/>
<path style=" stroke:none;fill-rule:nonzero;fill:rgb(0%,0%,0%);fill-opacity:1;" d="M 1372 0 C 1381.40625 0 1390.808594 0 1400.5 0 C 1400.5 713.128906 1400.5 1426.261719 1400.5 2161 C 1391.09375 2161 1381.691406 2161 1372 2161 C 1372 1447.871094 1372 734.738281 1372 0 Z M 1372 0 "/>
<path style=" stroke:none;fill-rule:nonzero;fill:rgb(0%,0%,0%);fill-opacity:1;" d="M 589.5 0 C 598.90625 0 608.308594 0 618 0 C 618 713.128906 618 1426.261719 618 2161 C 608.59375 2161 599.191406 2161 589.5 2161 C 589.5 1447.871094 589.5 734.738281 589.5 0 Z M 589.5 0 "/>
<path style=" stroke:none;fill-rule:nonzero;fill:rgb(0%,0%,0%);fill-opacity:1;" d="M 555.5 0 C 564.90625 0 574.308594 0 584 0 C 584 713.128906 584 1426.261719 584 2161 C 574.59375 2161 565.191406 2161 555.5 2161 C 555.5 1447.871094 555.5 734.738281 555.5 0 Z M 555.5 0 "/>
<path style=" stroke:none;fill-rule:nonzero;fill:rgb(0%,0%,0%);fill-opacity:1;" d="M 521.5 0 C 530.90625 0 540.308594 0 550 0 C 550 713.128906 550 1426.261719 550 2161 C 540.59375 2161 531.191406 2161 521.5 2161 C 521.5 1447.871094 521.5 734.738281 521.5 0 Z M 521.5 0 "/>
<path style=" stroke:none;fill-rule:nonzero;fill:rgb(0%,0%,0%);fill-opacity:1;" d="M 487.5 0 C 496.90625 0 506.308594 0 516 0 C 516 713.128906 516 1426.261719 516 2161 C 506.59375 2161 497.191406 2161 487.5 2161 C 487.5 1447.871094 487.5 734.738281 487.5 0 Z M 487.5 0 "/>
<path style=" stroke:none;fill-rule:nonzero;fill:rgb(0%,0%,0%);fill-opacity:1;" d="M 453.5 0 C 462.90625 0 472.308594 0 482 0 C 482 713.128906 482 1426.261719 482 2161 C 472.59375 2161 463.191406 2161 453.5 2161 C 453.5 1447.871094 453.5 734.738281 453.5 0 Z M 453.5 0 "/>
<path style=" stroke:none;fill-rule:nonzero;fill:rgb(0%,0%,0%);fill-opacity:1;" d="M 419.5 0 C 428.90625 0 438.308594 0 448 0 C 448 713.128906 448 1426.261719 448 2161 C 438.59375 2161 429.191406 2161 419.5 2161 C 419.5 1447.871094 419.5 734.738281 419.5 0 Z M 419.5 0 "/>
<path style=" stroke:none;fill-rule:nonzero;fill:rgb(0%,0%,0%);fill-opacity:1;" d="M 385.5 0 C 394.90625 0 404.308594 0 414 0 C 414 713.128906 414 1426.261719 414 2161 C 404.59375 2161 395.191406 2161 385.5 2161 C 385.5 1447.871094 385.5 734.738281 385.5 0 Z M 385.5 0 "/>
<path style=" stroke:none;fill-rule:nonzero;fill:rgb(0%,0%,0%);fill-opacity:1;" d="M 351.5 0 C 360.90625 0 370.308594 0 380 0 C 380 713.128906 380 1426.261719 380 2161 C 370.59375 2161 361.191406 2161 351.5 2161 C 351.5 1447.871094 351.5 734.738281 351.5 0 Z M 351.5 0 "/>
<path style=" stroke:none;fill-rule:nonzero;fill:rgb(0%,0%,0%);fill-opacity:1;" d="M 317.5 0 C 326.90625 0 336.308594 0 346 0 C 346 713.128906 346 1426.261719 346 2161 C 336.59375 2161 327.191406 2161 317.5 2161 C 317.5 1447.871094 317.5 734.738281 317.5 0 Z M 317.5 0 "/>
<path style=" stroke:none;fill-rule:nonzero;fill:rgb(0%,0%,0%);fill-opacity:1;" d="M 283.5 0 C 292.90625 0 302.308594 0 312 0 C 312 713.128906 312 1426.261719 312 2161 C 302.59375 2161 293.191406 2161 283.5 2161 C 283.5 1447.871094 283.5 734.738281 283.5 0 Z M 283.5 0 "/>
<path style=" stroke:none;fill-rule:nonzero;fill:rgb(0%,0%,0%);fill-opacity:1;" d="M 3821 0 C 3828.589844 0 3836.179688 0 3844 0 C 3844 713.128906 3844 1426.261719 3844 2161 C 3836.410156 2161 3828.820312 2161 3821 2161 C 3821 1447.871094 3821 734.738281 3821 0 Z M 3821 0 "/>
<path style=" stroke:none;fill-rule:nonzero;fill:rgb(0%,0%,0%);fill-opacity:1;" d="M 0 0 C 1.980469 0 3.960938 0 6 0 C 6 713.128906 6 1426.261719 6 2161 C 4.019531 2161 2.039062 2161 0 2161 C 0 1447.871094 0 734.738281 0 0 Z M 0 0 "/>
</g>
</svg>
